<svg width="24" height="25" viewBox="0 0 24 25" fill="none" xmlns="http://www.w3.org/2000/svg">
<rect width="24" height="24" transform="translate(0 0.0996094)" fill="white"/>
<path d="M6 14.0996C5.45 14.0996 4.97917 13.9038 4.5875 13.5121C4.19583 13.1204 4 12.6496 4 12.0996C4 11.5496 4.19583 11.0788 4.5875 10.6871C4.97917 10.2954 5.45 10.0996 6 10.0996C6.55 10.0996 7.02083 10.2954 7.4125 10.6871C7.80417 11.0788 8 11.5496 8 12.0996C8 12.6496 7.80417 13.1204 7.4125 13.5121C7.02083 13.9038 6.55 14.0996 6 14.0996ZM12 14.0996C11.45 14.0996 10.9792 13.9038 10.5875 13.5121C10.1958 13.1204 10 12.6496 10 12.0996C10 11.5496 10.1958 11.0788 10.5875 10.6871C10.9792 10.2954 11.45 10.0996 12 10.0996C12.55 10.0996 13.0208 10.2954 13.4125 10.6871C13.8042 11.0788 14 11.5496 14 12.0996C14 12.6496 13.8042 13.1204 13.4125 13.5121C13.0208 13.9038 12.55 14.0996 12 14.0996ZM18 14.0996C17.45 14.0996 16.9792 13.9038 16.5875 13.5121C16.1958 13.1204 16 12.6496 16 12.0996C16 11.5496 16.1958 11.0788 16.5875 10.6871C16.9792 10.2954 17.45 10.0996 18 10.0996C18.55 10.0996 19.0208 10.2954 19.4125 10.6871C19.8042 11.0788 20 11.5496 20 12.0996C20 12.6496 19.8042 13.1204 19.4125 13.5121C19.0208 13.9038 18.55 14.0996 18 14.0996Z" fill="#1C1B1F"/>
</svg>
