<svg width="25" height="24" viewBox="0 0 25 24" fill="none" xmlns="http://www.w3.org/2000/svg">
<path d="M14.0188 13.1248C14.0188 13.3473 13.9528 13.5648 13.8292 13.7498C13.7056 13.9348 13.5299 14.079 13.3243 14.1641C13.1188 14.2493 12.8926 14.2715 12.6743 14.2281C12.4561 14.1847 12.2557 14.0776 12.0983 13.9202C11.941 13.7629 11.8338 13.5625 11.7904 13.3442C11.747 13.126 11.7693 12.8998 11.8545 12.6942C11.9396 12.4887 12.0838 12.313 12.2688 12.1893C12.4538 12.0657 12.6713 11.9998 12.8938 11.9998C13.1922 11.9998 13.4783 12.1183 13.6893 12.3293C13.9003 12.5402 14.0188 12.8264 14.0188 13.1248ZM18.1438 11.9998C17.9213 11.9998 17.7038 12.0657 17.5188 12.1893C17.3338 12.313 17.1896 12.4887 17.1045 12.6942C17.0193 12.8998 16.997 13.126 17.0404 13.3442C17.0838 13.5625 17.191 13.7629 17.3483 13.9202C17.5057 14.0776 17.7061 14.1847 17.9243 14.2281C18.1426 14.2715 18.3688 14.2493 18.5743 14.1641C18.7799 14.079 18.9556 13.9348 19.0792 13.7498C19.2028 13.5648 19.2688 13.3473 19.2688 13.1248C19.2688 12.8264 19.1503 12.5402 18.9393 12.3293C18.7283 12.1183 18.4422 11.9998 18.1438 11.9998ZM22.9569 19.8251C23.0332 20.0837 23.0382 20.358 22.9717 20.6193C22.9051 20.8806 22.7694 21.1191 22.5788 21.3097C22.3881 21.5003 22.1496 21.6361 21.8884 21.7026C21.6271 21.7692 21.3527 21.7641 21.0941 21.6879L18.7776 21.0063C17.8643 21.4468 16.8713 21.6975 15.8584 21.7433C14.8455 21.7891 13.8339 21.6291 12.8846 21.2729C11.9353 20.9167 11.0681 20.3717 10.3354 19.6708C9.60268 18.97 9.01969 18.1279 8.62164 17.1954C7.80154 17.0989 7.00334 16.866 6.26007 16.5063L3.94351 17.1879C3.6849 17.2641 3.41053 17.2692 3.14927 17.2026C2.88801 17.1361 2.64951 17.0003 2.45887 16.8097C2.26823 16.6191 2.1325 16.3806 2.06595 16.1193C1.9994 15.858 2.00449 15.5837 2.0807 15.3251L2.76226 13.0085C2.33481 12.1091 2.09074 11.1336 2.04429 10.1389C1.99784 9.14419 2.14994 8.15019 2.49172 7.21489C2.8335 6.27958 3.35812 5.4217 4.03496 4.6913C4.7118 3.96089 5.52732 3.37259 6.43394 2.9607C7.34056 2.54882 8.32013 2.3216 9.31549 2.29231C10.3109 2.26301 11.3021 2.43223 12.2314 2.79009C13.1606 3.14794 14.0093 3.68727 14.728 4.3766C15.4466 5.06594 16.0208 5.89148 16.4169 6.80506C17.6016 6.94782 18.7351 7.37116 19.7232 8.03992C20.7114 8.70868 21.5258 9.60356 22.0986 10.6502C22.6715 11.6969 22.9864 12.8652 23.0172 14.058C23.0479 15.2508 22.7936 16.4337 22.2754 17.5085L22.9569 19.8251ZM8.1407 15.5904C7.9552 14.5744 7.9817 13.531 8.21854 12.5257C8.45539 11.5204 8.89746 10.575 9.51701 9.74862C10.1366 8.92228 10.9202 8.23292 11.8188 7.7238C12.7174 7.21468 13.7115 6.89678 14.7388 6.79006C14.3586 6.09982 13.8462 5.49122 13.2309 4.99901C12.6155 4.5068 11.9092 4.14062 11.1523 3.92137C9.62365 3.47858 7.98173 3.66117 6.58773 4.42897C5.19373 5.19677 4.16183 6.48689 3.71904 8.01552C3.27624 9.54415 3.45883 11.1861 4.22664 12.5801C4.31898 12.7527 4.34017 12.9545 4.2857 13.1426L3.51882 15.7498L6.12132 14.9838C6.30935 14.9293 6.51122 14.9505 6.68382 15.0429C7.14337 15.2884 7.63319 15.4725 8.1407 15.5904ZM20.811 17.0801C21.4895 15.8112 21.6894 14.3408 21.3743 12.9369C21.0592 11.533 20.2501 10.2891 19.0945 9.43189C17.9389 8.57469 16.5137 8.1613 15.0788 8.26709C13.6438 8.37288 12.2947 8.99081 11.2773 10.0082C10.2599 11.0256 9.64196 12.3748 9.53617 13.8097C9.43038 15.2446 9.84376 16.6698 10.701 17.8254C11.5582 18.981 12.8021 19.7901 14.206 20.1052C15.6099 20.4203 17.0803 20.2204 18.3491 19.5419C18.5217 19.4496 18.7236 19.4284 18.9116 19.4829L21.5188 20.2498L20.7529 17.6473C20.6968 17.4579 20.7177 17.2541 20.811 17.0801Z" fill="black"/>
</svg>
