<svg width="14" height="14" viewBox="0 0 14 14" fill="none" xmlns="http://www.w3.org/2000/svg">
<path d="M11.8393 5.71458L7.46427 10.0896C7.40331 10.1508 7.33086 10.1993 7.25109 10.2324C7.17132 10.2655 7.0858 10.2826 6.99943 10.2826C6.91306 10.2826 6.82754 10.2655 6.74777 10.2324C6.668 10.1993 6.59555 10.1508 6.53458 10.0896L2.15959 5.71458C2.0363 5.59129 1.96704 5.42408 1.96704 5.24973C1.96704 5.07538 2.0363 4.90817 2.15959 4.78489C2.28287 4.6616 2.45008 4.59234 2.62443 4.59234C2.79878 4.59234 2.96599 4.6616 3.08927 4.78489L6.99998 8.69559L10.9107 4.78434C11.034 4.66106 11.2012 4.5918 11.3755 4.5918C11.5499 4.5918 11.7171 4.66106 11.8404 4.78434C11.9636 4.90763 12.0329 5.07484 12.0329 5.24919C12.0329 5.42354 11.9636 5.59075 11.8404 5.71403L11.8393 5.71458Z" fill="black" strokeWidth="2"/>
</svg>
