<svg width="16" height="17" viewBox="0 0 16 17" fill="none" xmlns="http://www.w3.org/2000/svg">
<path d="M12.8538 12.6463C12.9002 12.6927 12.9371 12.7479 12.9622 12.8086C12.9874 12.8693 13.0003 12.9343 13.0003 13C13.0003 13.0657 12.9874 13.1308 12.9622 13.1915C12.9371 13.2521 12.9002 13.3073 12.8538 13.3538C12.8073 13.4002 12.7522 13.4371 12.6915 13.4622C12.6308 13.4873 12.5657 13.5003 12.5 13.5003C12.4343 13.5003 12.3693 13.4873 12.3086 13.4622C12.2479 13.4371 12.1927 13.4002 12.1463 13.3538L8.00003 9.20688L3.85378 13.3538C3.75996 13.4476 3.63272 13.5003 3.50003 13.5003C3.36735 13.5003 3.2401 13.4476 3.14628 13.3538C3.05246 13.2599 2.99976 13.1327 2.99976 13C2.99976 12.8673 3.05246 12.7401 3.14628 12.6463L7.29316 8.5L3.14628 4.35375C3.05246 4.25993 2.99976 4.13269 2.99976 4C2.99976 3.86732 3.05246 3.74007 3.14628 3.64625C3.2401 3.55243 3.36735 3.49973 3.50003 3.49973C3.63272 3.49973 3.75996 3.55243 3.85378 3.64625L8.00003 7.79313L12.1463 3.64625C12.2401 3.55243 12.3674 3.49973 12.5 3.49973C12.6327 3.49973 12.76 3.55243 12.8538 3.64625C12.9476 3.74007 13.0003 3.86732 13.0003 4C13.0003 4.13269 12.9476 4.25993 12.8538 4.35375L8.70691 8.5L12.8538 12.6463Z" fill="white"/>
</svg>
