<svg width="32" height="32" viewBox="0 0 32 32" fill="none" xmlns="http://www.w3.org/2000/svg">
<path d="M11.3477 20.4278C11.7637 20.838 12.4844 20.8204 12.8652 20.4395L16 17.3048L19.1231 20.4337C19.5273 20.838 20.2246 20.838 20.6348 20.4219C21.0508 20.0059 21.0566 19.3087 20.6523 18.9044L17.5293 15.7755L20.6523 12.6524C21.0566 12.2481 21.0508 11.5508 20.6348 11.1407C20.2188 10.7247 19.5273 10.7188 19.1231 11.1231L16 14.2462L12.8652 11.1173C12.4844 10.7364 11.7637 10.7188 11.3477 11.1348C10.9375 11.5508 10.9492 12.2657 11.3359 12.6465L14.4707 15.7755L11.3359 18.9102C10.9492 19.2911 10.9316 20.0118 11.3477 20.4278Z" fill="#6F6D6E"/>
</svg>
