<svg width="75" height="42" viewBox="0 0 75 42" fill="none" xmlns="http://www.w3.org/2000/svg">
<path d="M41.6861 0.63345V0.423681C40.847 0.0041483 40.1478 0.213916 39.4486 0.00414833C39.2388 1.47252 39.5185 3.98973 38.4697 5.03856C37.7704 4.89872 37.4908 5.17841 37.0712 5.24833C35.3931 5.66786 38.7494 5.24833 38.6794 5.4581C37.0013 6.0874 36.8615 5.94755 35.463 6.85654C35.3931 6.15732 35.0435 6.85654 34.8337 6.22724C34.9036 6.92647 34.1345 6.7167 33.8548 7.06631C33.8548 6.85654 33.7849 6.7167 33.645 6.64678C32.0368 6.85654 30.988 7.90538 28.9602 7.48585C28.8903 8.18507 28.0512 8.11515 27.352 8.25499C28.0512 7.62569 28.261 6.64678 27.352 6.64678C28.4708 4.75887 26.9325 3.57019 26.1633 2.24167C26.1633 2.38151 26.1633 2.59128 25.9536 2.6612C26.0235 2.45143 25.9536 2.24167 26.1633 2.24167V2.0319C24.9746 1.05298 24.5551 0.35376 23.3664 0.63345C23.5762 1.40259 23.0168 1.54244 22.7371 1.82213C23.9258 3.36043 23.9258 6.85654 24.3453 8.46476C25.0446 8.46476 24.3453 8.81437 24.9746 9.09406C24.5551 9.44367 24.2055 9.16398 23.786 9.09406C23.4364 9.16398 23.786 9.30383 23.786 9.09406C23.716 8.6046 24.3453 8.88429 24.3453 8.46476C23.9957 8.53468 23.9957 8.32491 23.9258 8.04523C23.2965 8.39484 22.3875 8.39484 21.968 8.88429C22.1078 8.88429 22.1778 9.02414 22.1778 9.30383C22.7371 9.37375 23.1567 8.74445 23.3664 9.44367C22.6672 9.93313 21.7582 10.1429 20.9191 10.4925C20.9191 10.3527 20.9191 10.073 20.7094 10.073C20.7094 10.2128 20.7094 10.3527 20.5695 10.2827C20.7094 10.6324 20.15 11.1917 20.15 10.7023C20.15 10.4925 20.3598 10.3527 20.5695 10.2827C20.5695 10.1429 20.5695 10.073 20.7094 10.073C20.7793 9.86321 20.9891 9.79329 21.1289 9.65344C21.3387 9.23391 21.8981 9.93313 22.1778 9.30383C21.968 9.23391 21.8981 9.09406 21.968 8.88429C21.4086 9.02414 20.9191 9.16398 20.5695 9.44367C20.6395 9.44367 20.7793 9.65344 20.5695 9.65344V9.44367C20.0801 9.58352 20.0102 9.37375 19.7305 9.30383C18.6816 10.4226 17.0734 10.982 15.3254 11.4714C14.766 10.912 14.8359 10.0031 14.6961 9.44367C14.6961 9.58352 14.5562 9.72336 14.4863 9.44367C13.7171 8.74445 13.7871 7.06631 12.6683 6.64678C12.6683 6.99639 12.8082 7.41592 12.4585 7.48585C12.4585 6.92647 12.3886 6.50693 12.1089 6.22724C12.039 6.57685 12.1789 6.99639 11.8992 7.06631C12.039 6.43701 11.5495 6.43701 11.6894 5.87763C11.4097 5.80771 11.6195 5.24833 11.2699 5.24833C10.9902 5.38817 11.2699 6.01748 10.8503 6.0874C9.10227 6.0874 9.24211 7.69561 7.6339 7.06631C7.70382 7.55577 7.56397 7.90538 7.07452 7.83546C6.72491 8.25499 6.37529 7.69561 6.02568 8.25499C6.86475 10.0031 7.21436 12.2406 8.2632 13.7089C8.68273 13.5691 8.54289 14.0585 8.82258 14.1285C8.96242 13.4992 8.40304 13.2894 9.03234 13.0796C9.03234 13.4292 9.24211 13.639 9.45188 13.7089V12.8699C9.24211 12.8699 8.96242 12.5902 9.24211 12.5203C9.38196 12.5203 9.5218 12.6601 9.45188 12.8699C9.94133 12.7999 9.38196 13.8488 10.0812 13.4992C10.1511 13.2195 9.80149 12.4503 10.2909 12.5203C10.2909 13.1496 10.5706 13.5691 10.8503 13.9187V13.2894C10.7804 13.2894 10.6406 13.1496 10.8503 13.0796C11.0601 12.6601 10.1511 12.2406 10.6406 12.1007C11.2699 12.3804 11.3398 13.2195 11.6894 13.7089C11.2699 13.639 11.1999 13.9187 10.8503 13.9187C10.8503 14.0585 10.8503 14.3382 10.6406 14.3382C10.4308 14.0585 10.5007 13.5691 10.0812 13.4992C10.0113 13.9187 10.2909 13.9187 10.2909 14.3382C10.3609 14.6179 10.5007 14.2683 10.2909 14.3382H10.0812C10.1511 14.8277 9.80149 14.9675 9.24211 14.8976C9.24211 15.0375 9.10227 15.1773 9.03234 14.8976C8.68273 15.7367 7.84366 16.0863 7.07452 16.5058C7.0046 16.6457 7.00459 16.7855 6.86475 16.7156C6.44522 17.0652 5.81591 17.6945 5.4663 16.9254C3.15886 18.7433 -1.94547 21.6801 0.781503 25.386C0.71158 25.5258 0.571736 25.7356 0.571736 26.0153C1.34088 26.225 1.69049 26.9243 1.62057 27.9731C2.38972 28.1129 1.76042 26.7844 2.59949 26.9942C2.17995 27.6934 3.08894 27.6934 3.22879 28.3926C3.22879 28.2528 3.22879 28.043 3.43855 27.9731C3.36863 28.1829 3.43855 28.3926 3.22879 28.3926V28.8122C3.43855 28.6024 3.64832 28.6024 3.64832 29.0219C4.97685 31.2595 6.58506 33.1474 8.68273 34.6157C8.68273 34.4759 8.8925 34.4759 9.03234 34.4759C10.1511 35.5946 11.3398 36.6435 13.0878 37.063C25.3942 44.6146 49.0279 43.2162 60.0058 34.8255C61.4741 34.5458 62.453 32.7278 63.6417 32.8677C63.9913 32.0985 64.4808 31.3993 65.4597 31.2595C65.4597 30.9098 65.3898 30.6302 65.6695 30.6302C65.6695 30.4903 65.6695 30.3505 65.8792 30.4204C65.9492 29.6512 66.5085 30.5602 66.6484 29.7911C66.4386 29.861 66.5085 29.5114 66.6484 29.7911C67.2777 29.5114 67.5574 28.8122 67.8371 28.1829C67.6273 28.2528 67.7671 27.9032 67.8371 28.1829C68.0468 28.043 68.1867 27.8333 68.2566 27.6235C68.1168 27.5536 68.0468 27.4137 68.0468 27.204H68.2566C68.2566 27.0641 68.3964 26.9942 68.4664 27.204C68.2566 26.4348 70.4941 24.0574 68.8859 23.7778C69.0957 23.2184 69.3054 22.7289 69.0957 22.1695C68.5363 22.2395 69.2355 21.0508 68.6761 21.1906C68.5363 21.5402 68.3265 21.1906 68.0468 21.1906C67.7671 21.75 66.9281 22.4492 67.6273 22.9387C66.998 22.8688 66.8582 23.2883 66.4386 23.3582C66.3687 23.8477 66.8581 23.6379 66.8581 23.9875C66.089 24.0574 65.7394 24.1274 65.4597 24.9664C65.5296 24.9664 65.6695 25.1762 65.4597 25.1762C65.4597 25.3161 65.3898 25.4559 65.2499 25.386C65.2499 25.5258 65.18 25.5957 65.0402 25.5957C65.0402 25.7356 65.0402 25.8055 64.8304 25.8055C64.8304 25.9454 64.8304 26.0153 64.6206 26.0153C64.6206 26.0852 64.6206 26.225 64.4109 26.225C64.4109 26.295 64.271 26.4348 64.2011 26.225C63.5718 26.4348 63.0124 26.8543 62.5929 27.4137C62.7327 27.4137 62.8726 27.5536 62.5929 27.6235V27.4137C62.3831 27.4137 62.2433 27.6934 62.2433 27.204C62.0335 27.204 61.9636 27.0641 61.8237 26.9942C61.8237 27.204 61.4741 27.2739 61.4042 26.9942C61.3343 26.9942 61.1944 26.8543 61.4042 26.7844C61.4741 26.5747 61.4042 26.4348 61.1944 26.3649C60.705 26.7844 60.6351 27.6934 59.796 27.8333C59.5862 27.5536 59.7261 27.4836 59.796 27.204C58.9569 27.204 59.3065 28.4626 58.3975 28.3926V27.9731C58.2577 27.9731 58.1878 27.8333 57.978 27.8333C57.4186 28.6024 55.8803 28.5325 55.3909 29.4415C55.1112 29.5114 55.3909 29.6512 55.3909 29.4415C53.0834 30.0009 49.3076 31.8888 45.8814 32.6579V32.2384C45.6017 32.0985 45.392 33.0075 45.3221 32.4481C45.6017 32.0985 45.6717 31.6091 46.0912 31.3993V31.8188C47.0701 31.6091 47.14 29.3716 47.9092 29.5813C48.119 29.5813 48.119 29.4415 48.3287 29.4415C48.2588 28.5325 48.4686 27.8333 48.958 27.4137C48.958 27.2739 48.958 27.134 49.0979 27.204C49.0279 26.5047 49.1678 26.0852 49.9369 26.225C49.7272 25.5957 49.7971 25.4559 50.3565 25.1762C50.2866 25.4559 50.2865 26.6446 50.5662 26.0153V24.9664C50.3565 24.9664 50.2865 24.6168 50.5662 24.5469V24.9664C50.8459 24.6868 51.1955 23.3582 50.776 23.1485C52.1045 21.6801 50.0069 17.4847 49.9369 15.5269C49.9369 15.8066 50.0069 16.2961 49.7272 16.2961C49.4475 14.6879 48.8881 13.3593 48.3287 12.1007C56.5796 13.0097 64.271 15.8765 69.8648 20.5613H70.7039C71.4031 21.3305 71.8226 22.3793 72.5219 23.1485C72.8016 22.4492 72.8715 23.7078 73.291 23.568C73.2211 22.0996 73.5008 21.1207 73.9203 19.3727C73.3609 18.184 72.6617 16.5758 72.8715 15.3172H72.5219C72.1723 15.457 72.5219 15.5269 72.5219 15.3172C72.5219 15.1074 72.8715 15.1773 72.8715 14.8976C72.5918 14.7578 72.2422 14.6179 72.3121 14.1285C71.473 13.8488 72.1723 13.0796 71.473 12.8699C71.1933 13.0097 71.473 13.1496 71.473 12.8699C71.4031 12.73 71.3332 12.5203 71.0535 12.5203C71.0535 13.0097 70.4242 12.5203 70.4941 12.3105C70.3543 12.3105 70.2144 12.2406 70.2843 12.1007C70.4242 12.1007 70.4941 12.1007 70.4941 12.3105H70.9136C70.7738 11.7511 69.8648 11.9609 69.8648 11.2617C69.2355 11.4714 69.5851 10.912 69.8648 10.912C69.8648 10.7722 69.9347 10.6324 70.0746 10.7023C70.0746 10.3527 70.2144 10.1429 70.4941 10.073C70.4242 9.86321 70.7738 9.93313 70.4941 10.073C70.4941 10.4226 70.3543 10.6324 70.0746 10.7023C70.0746 10.8421 70.0746 10.912 69.8648 10.912V11.2617C71.1234 10.073 72.8016 8.18507 73.0812 6.64678C73.0812 6.78662 73.0812 6.92647 72.8715 6.85654C72.5918 6.99639 72.9414 7.13623 72.8715 6.85654C72.8715 6.7167 72.9414 6.64678 73.0812 6.64678V6.22724C72.5219 6.29717 72.4519 5.80771 71.8926 5.87763C72.0324 6.15732 71.473 6.7167 71.473 6.22724C71.543 6.01748 71.6828 5.94755 71.8926 5.87763V5.4581C71.6129 5.03856 71.1234 4.89872 71.0535 4.26942C68.4664 5.03856 68.1867 8.18507 66.0191 9.44367C66.0191 9.93313 65.3199 9.44367 65.2499 9.30383C65.4597 9.30383 65.5995 9.23391 65.6695 9.09406C65.2499 9.09406 65.2499 8.81437 64.8304 8.88429C64.9702 9.02414 65.1101 9.23391 64.8304 9.30383C64.4109 8.95422 63.7816 8.88429 63.432 8.46476C62.9425 8.53468 62.5929 8.39484 62.453 8.04523C61.544 7.76554 60.5651 7.62569 60.0058 7.06631C60.4952 6.50693 60.7749 5.73779 60.9847 4.8288C60.2854 5.31825 60.3554 6.57685 59.5862 7.06631C59.5862 7.20616 59.5862 7.48585 59.3765 7.48585C59.4464 7.27608 59.3765 7.06631 59.5862 7.06631V6.43701C59.4464 6.43701 59.3765 6.43701 59.3765 6.22724C58.9569 6.22724 59.4464 5.52802 59.5862 5.4581C59.5862 5.17841 59.8659 5.31825 59.5862 5.4581C59.5862 5.80771 59.5862 6.0874 59.3765 6.22724C59.5163 6.29717 59.6562 6.29717 59.5862 6.43701H59.796C60.0058 5.52802 60.4253 4.82879 60.9847 4.26942C60.9847 3.98973 61.3343 4.12957 60.9847 4.26942V4.8288C61.614 4.33934 61.6839 3.50027 61.4042 2.6612H60.8448C60.7749 2.80105 60.5651 2.80105 60.4253 2.80105C60.3554 3.08074 60.3554 3.2905 60.0058 3.22058C60.0757 3.01081 60.2155 2.94089 60.4253 2.80105C60.5651 2.10182 60.0058 1.96198 60.4253 1.61236C59.5862 1.54244 58.8171 1.47252 58.8171 0.63345C57.9081 0.773292 57.978 -0.0657734 57.2089 0.00414833C55.8803 1.68229 55.1811 4.05965 53.9924 5.87763C53.3631 5.87763 52.7338 5.31825 52.5241 6.0874C52.9436 6.0874 53.5729 5.87763 53.3631 6.43701C53.0834 6.57685 52.3143 6.22724 52.3842 6.64678C52.8038 7.06631 52.9436 6.57685 53.5729 6.64678C53.5729 6.50693 53.5729 6.22724 53.7827 6.22724C53.7127 6.01748 54.0624 6.15732 53.7827 6.22724C53.7127 6.43701 53.7827 6.64678 53.5729 6.64678C53.5729 6.99639 53.4331 7.20616 53.1534 7.27608C52.8737 6.92647 52.1745 7.06631 51.9647 6.64678C51.9647 6.78662 51.7549 6.85654 51.7549 6.64678H51.9647C51.9647 6.50693 52.1745 6.43701 52.1745 6.22724H51.5452C51.5452 6.50693 51.4752 6.7167 51.1256 6.64678C51.1256 6.43701 51.3354 6.43701 51.3354 6.22724C51.1256 6.22724 51.1955 5.87763 51.1256 5.66786C51.2655 6.01748 52.9436 5.94755 52.1745 5.4581C51.685 5.80771 50.7061 5.03856 49.9369 5.03856V5.4581C50.0768 5.4581 50.1467 5.4581 50.1467 5.66786C50.4264 5.66786 50.8459 5.59794 50.776 6.0874C50.4264 5.59794 50.0768 6.43701 50.1467 5.66786C50.0069 5.66786 49.867 5.59794 49.9369 5.4581H49.5174C50.0768 5.87763 48.8881 6.0874 48.7483 5.87763C48.8182 6.29717 48.4686 6.22724 48.119 6.22724C48.2588 6.0874 48.3287 5.94755 48.3287 5.66786C47.9791 5.52802 47.14 5.94755 47.3498 5.24833C47.4897 5.38817 48.5385 5.80771 48.3287 5.03856C48.119 4.47918 47.4897 5.10848 47.14 5.03856C47.14 5.38817 47.0002 5.59794 46.7205 5.66786C46.8604 5.10848 45.7416 5.80771 45.8814 5.24833C46.1611 5.24833 46.301 5.17841 46.301 5.03856C45.8115 4.61903 45.8814 4.75887 45.1123 4.8288C44.7627 5.52802 45.8115 4.96864 45.7416 5.4581C45.1822 5.4581 44.7627 5.4581 44.6928 5.03856C44.4131 4.61903 43.5041 4.82879 43.0845 4.40926C43.1545 2.10182 43.7838 1.19283 41.8959 0.213916C41.8959 0.423681 41.8259 0.563528 41.6861 0.63345C41.6861 0.703372 41.5463 0.84322 41.4763 0.63345H41.6861ZM60.4253 3.84988C60.3554 3.57019 60.705 3.71004 60.4253 3.84988C59.796 3.84988 60.6351 4.68895 60.4253 3.84988ZM59.796 4.05965C59.796 3.77996 60.0757 3.9198 59.796 4.05965C59.1667 4.05965 60.0058 4.89872 59.796 4.05965ZM60.0058 4.61903C59.9358 4.54911 60.1456 4.75887 60.0058 4.61903V4.61903ZM59.1667 5.03856C59.4464 4.26942 59.4464 5.80771 59.1667 5.03856V5.03856ZM59.796 5.03856C59.7261 4.96864 59.9358 5.17841 59.796 5.03856V5.03856ZM44.0635 5.24833C43.8537 5.24833 43.9935 4.96864 44.0635 5.24833C44.1334 5.87763 44.9025 5.03856 44.0635 5.24833ZM43.7138 5.24833C43.7138 5.4581 43.4342 5.38817 43.2943 5.4581C43.2943 5.24833 43.5041 5.31825 43.7138 5.24833ZM44.9025 5.66786C44.9025 5.87763 44.6228 5.80771 44.483 5.87763C44.483 5.66786 44.7627 5.66786 44.9025 5.66786ZM45.3221 5.87763C45.2521 5.73779 45.4619 6.01748 45.3221 5.87763V5.87763ZM46.301 5.87763C45.6017 5.24833 45.6717 6.57685 46.301 5.87763V5.87763ZM47.3498 6.22724C47.14 6.0874 46.8604 6.01748 46.5107 6.0874C46.4408 5.66786 47.6295 5.66786 47.3498 6.22724ZM47.6994 6.0874C47.6295 5.94755 47.8393 6.15732 47.6994 6.0874V6.0874ZM58.8171 6.0874C58.7472 5.94755 58.9569 6.15732 58.8171 6.0874V6.0874ZM37.8404 6.22724C37.7704 6.15732 37.9802 6.36709 37.8404 6.22724V6.22724ZM50.9159 6.43701C50.9858 6.78662 49.6572 6.85654 49.9369 6.22724C50.4963 6.0874 50.4264 6.50693 50.9159 6.43701ZM58.3975 6.64678C58.3276 6.57685 58.5374 6.78662 58.3975 6.64678V6.64678ZM59.0268 6.64678C58.887 6.57685 59.0968 6.78662 59.0268 6.64678V6.64678ZM72.3121 6.64678C72.1722 6.57685 72.4519 6.78662 72.3121 6.64678V6.64678ZM10.6406 8.04523C10.3609 7.69561 10.221 7.20616 10.0812 6.64678C10.7105 6.7167 10.6406 7.48585 10.6406 8.04523C10.9202 8.04523 10.7804 8.39484 10.6406 8.04523ZM11.2699 6.85654C11.0601 6.85654 11.13 6.57685 11.2699 6.85654C11.0601 8.39484 11.8992 7.48585 11.2699 6.85654ZM34.2044 7.27608C34.4841 6.43701 34.4841 8.04523 34.2044 7.27608V7.27608ZM58.8171 7.27608C58.7472 7.20616 58.9569 7.41592 58.8171 7.27608V7.27608ZM32.3864 7.83546C32.3864 7.27608 32.8759 7.27608 33.4353 7.27608C33.5052 7.90538 32.736 7.69561 32.3864 7.83546ZM72.3121 7.48585C72.1722 7.346 72.4519 7.62569 72.3121 7.48585V7.48585ZM33.8548 7.69561C34.0646 6.85654 34.0646 8.46476 33.8548 7.69561V7.69561ZM59.796 7.69561C59.7261 7.55577 59.9358 7.76554 59.796 7.69561V7.69561ZM12.6683 7.83546C12.5984 7.76554 12.8082 7.9753 12.6683 7.83546V7.83546ZM29.17 7.83546C29.1001 7.76554 29.3098 7.9753 29.17 7.83546V7.83546ZM30.988 7.83546C30.9181 7.76554 31.1278 7.9753 30.988 7.83546V7.83546ZM28.9602 8.25499C28.8903 8.18507 29.1001 8.39484 28.9602 8.25499V8.25499ZM71.6828 8.25499C71.6129 8.18507 71.8226 8.39484 71.6828 8.25499V8.25499ZM30.6384 8.46476C30.4985 8.39484 30.7083 8.6046 30.6384 8.46476V8.46476ZM23.786 8.46476C23.786 8.67453 23.5063 8.6046 23.3664 8.67453C23.3664 8.46476 23.5762 8.53468 23.786 8.46476ZM62.453 8.67453C62.3132 8.6046 62.523 8.81437 62.453 8.67453V8.67453ZM29.3798 8.67453C29.3798 8.88429 29.17 8.81437 28.9602 8.88429C29.0301 8.67453 29.2399 8.74445 29.3798 8.67453ZM59.3765 8.88429C59.3065 8.81437 59.5163 9.02414 59.3765 8.88429V8.88429ZM28.1911 9.09406C28.1212 9.02414 28.3309 9.23391 28.1911 9.09406V9.09406ZM60.2155 9.09406C59.9358 9.09406 60.0757 8.81437 60.2155 9.09406C60.2155 9.65344 61.0546 8.88429 60.2155 9.09406ZM30.2188 9.30383C30.1489 9.16398 30.3587 9.37375 30.2188 9.30383V9.30383ZM63.6417 9.30383C63.5019 9.65344 63.2921 9.30383 63.0124 9.30383C63.1523 8.88429 63.362 9.23391 63.6417 9.30383ZM61.4042 9.65344C61.3343 9.58352 61.544 9.79329 61.4042 9.65344V9.65344ZM23.5762 9.86321C23.5063 9.79328 23.716 10.0031 23.5762 9.86321V9.86321ZM28.1911 9.86321C28.1212 9.79328 28.3309 10.0031 28.1911 9.86321V9.86321ZM23.1567 10.073C23.0867 10.0031 23.2965 10.2128 23.1567 10.073V10.073ZM26.7926 10.2827C26.7227 10.2128 26.9325 10.4226 26.7926 10.2827V10.2827ZM19.7305 10.4925C19.6605 10.4226 19.8703 10.6324 19.7305 10.4925V10.4925ZM13.7171 10.7023C13.5773 10.6324 13.7871 10.8421 13.7171 10.7023V10.7023ZM21.968 10.4925C21.968 10.7023 21.6883 10.6324 21.5485 10.7023C21.5485 10.4925 21.7582 10.5624 21.968 10.4925ZM19.5207 10.912C19.7305 10.073 19.7305 11.6812 19.5207 10.912V10.912ZM24.5551 10.912C24.0657 11.5413 25.2543 10.4226 24.5551 10.912V10.912ZM13.5074 11.1218C13.4375 10.982 13.6472 11.1917 13.5074 11.1218V11.1218ZM18.332 11.1218C18.332 10.4925 19.1711 11.2617 18.332 11.1218V11.6812C17.493 11.2617 17.2133 12.1706 16.0945 12.1007C15.8148 12.2406 16.0945 12.3105 16.0945 12.1007C16.4441 11.3316 17.5629 11.4015 18.332 11.1218ZM14.0668 11.2617C13.9968 11.1917 14.2066 11.4015 14.0668 11.2617V11.2617ZM68.8859 11.2617C69.0957 10.4925 69.0957 12.1007 68.8859 11.2617V11.2617ZM18.5418 11.4714C18.4719 11.4015 18.6816 11.6113 18.5418 11.4714V11.4714ZM13.0878 12.5203C12.5285 12.5902 12.8781 11.7511 12.4585 11.6812C12.7382 11.1218 13.2277 12.0308 13.0878 12.5203C13.2976 12.4503 13.2277 12.7999 13.0878 12.5203ZM9.66164 11.891C9.87141 11.1218 9.87141 12.6601 9.66164 11.891V11.891ZM10.5007 11.891C10.3609 11.821 10.5706 12.0308 10.5007 11.891V11.891ZM12.2488 11.6812C12.2488 11.891 12.039 11.821 11.8992 11.891C11.8992 11.6812 12.1089 11.7511 12.2488 11.6812ZM14.4863 12.1007C14.4164 12.0308 14.6261 12.2406 14.4863 12.1007V12.1007ZM13.2976 12.3105C13.2277 12.2406 13.4375 12.4503 13.2976 12.3105V12.3105ZM8.68273 12.5203C8.54289 12.3804 8.75265 12.6601 8.68273 12.5203V12.5203ZM69.2355 12.73C69.1656 12.5902 69.3754 12.7999 69.2355 12.73V12.73ZM8.68273 12.8699C8.61281 12.6601 8.96242 12.7999 8.68273 12.8699C8.33312 13.0097 8.68273 13.1496 8.68273 12.8699ZM14.4863 12.8699C14.4164 12.7999 14.6261 13.0097 14.4863 12.8699V12.8699ZM12.4585 13.0796C12.4585 12.8699 12.8082 13.0097 12.4585 13.0796C12.1789 13.2195 12.5285 13.3593 12.4585 13.0796ZM13.5074 13.2894C13.5074 13.0097 14.0668 13.2195 14.0668 12.8699C14.5562 12.9398 14.2066 13.7789 14.0668 13.9187C13.7171 13.9187 13.9269 13.2195 13.5074 13.2894ZM70.2843 13.2894C70.4941 12.5203 70.4941 14.1285 70.2843 13.2894V13.2894ZM13.0878 13.7089C12.8082 13.7089 12.948 13.4292 13.0878 13.7089C13.0179 14.6179 13.857 13.7789 13.0878 13.7089ZM30.988 13.7089C30.988 13.4292 31.2677 13.5691 30.988 13.7089C30.7083 13.8488 31.0579 13.9187 30.988 13.7089ZM12.4585 13.9187C12.3886 13.8488 12.5984 14.0585 12.4585 13.9187V13.9187ZM30.2188 13.9187C30.1489 13.8488 30.3587 14.0585 30.2188 13.9187V13.9187ZM13.5074 31.3993C10.7105 30.0708 7.28428 29.3016 6.02568 26.3649C12.039 20.3516 20.2199 16.5758 29.5895 13.9187C28.8204 14.548 28.4008 15.5269 27.7715 16.2961C28.261 16.366 27.8415 16.9953 27.5618 16.9254C27.5618 17.275 27.4219 17.4148 27.2122 17.5547C27.4219 17.9742 25.8836 17.9742 25.7438 19.1629H25.6039C25.6039 19.4426 25.3243 19.6523 25.1844 19.3727C25.0446 19.3727 24.9047 19.5125 24.9746 19.7223C25.3942 20.002 24.4852 21.4004 23.9258 20.7711C24.1356 21.3305 24.1356 21.6102 23.9258 22.1695C24.2055 22.1695 24.2055 21.8899 24.5551 21.9598C24.4852 22.2395 24.2055 22.3094 24.1356 22.5891C23.9957 22.5192 23.9258 22.3793 23.9258 22.1695C23.5762 22.5192 23.716 22.1695 23.1567 22.1695C22.0379 25.5957 21.8981 29.2317 22.9469 33.0075C22.2477 33.2173 22.1778 32.7278 21.5485 32.8677C21.6184 33.0075 21.6883 33.0774 21.968 33.0075C18.9613 32.7977 16.4441 31.2595 13.7171 31.3993C13.7171 31.5391 13.5074 31.679 13.5074 31.3993ZM71.2633 14.1285C71.0535 14.1285 71.1933 13.8488 71.2633 14.1285C71.4031 14.4082 71.5429 14.0585 71.2633 14.1285ZM11.6894 14.3382C11.6894 13.7089 12.5285 14.4781 11.6894 14.3382C11.6195 14.4781 11.4796 14.548 11.2699 14.4781C10.3609 14.2683 11.4796 15.457 11.2699 14.4781C11.3398 14.3382 11.4097 14.2683 11.6894 14.3382ZM30.0091 14.3382C29.9391 14.1984 30.1489 14.4082 30.0091 14.3382V14.3382ZM29.17 15.3172C29.17 14.8277 29.5196 14.6879 29.5895 14.3382C30.1489 14.4781 29.3798 15.0375 29.3798 15.3172H29.17C29.17 15.457 29.17 15.5269 28.9602 15.5269C28.9602 15.6668 28.9602 15.7367 28.8204 15.7367C27.9813 15.8066 28.8204 16.5758 28.8204 15.7367C28.8204 15.5968 28.8204 15.457 28.9602 15.5269C29.0301 15.3871 29.0301 15.2472 29.17 15.3172ZM10.2909 15.1074C10.2909 14.8277 10.7804 14.4781 10.6406 15.1074C10.7804 15.1074 10.9202 15.1773 10.8503 15.3172C10.9902 15.5968 11.13 15.3172 10.8503 15.3172C10.7804 15.3172 10.6406 15.3172 10.6406 15.1074H10.2909V15.5269C10.3609 15.5269 10.5007 15.6668 10.2909 15.7367C10.221 15.8765 10.0812 15.9465 9.87141 15.9465C9.80149 16.1562 9.66164 16.2261 9.45188 16.2961C9.38196 16.5058 9.31203 16.5758 9.03234 16.5058C9.03234 16.7156 8.8925 16.7855 8.68273 16.7156C8.61281 16.8554 8.61281 16.9953 8.47297 16.9254C8.47297 17.0652 8.40304 17.1351 8.2632 17.1351C7.98351 17.275 8.2632 17.3449 8.2632 17.1351C8.2632 16.9953 8.2632 16.9254 8.47297 16.9254C8.47297 16.7855 8.47296 16.7156 8.68273 16.7156V16.5058C8.2632 16.5058 8.19328 16.7855 7.84366 16.7156C7.98351 16.2261 8.75265 16.2961 8.82258 15.7367C9.45188 15.9465 8.61281 16.2261 8.68273 16.5058H9.03234C9.10227 16.366 9.24211 16.2961 9.45188 16.2961V15.9465C9.38196 15.9465 9.24211 15.7367 9.45188 15.7367C9.45188 15.5968 9.5218 15.457 9.66164 15.5269C9.73157 15.2472 10.0812 15.3172 10.2909 15.1074ZM7.42413 17.3449C7.35421 17.275 7.56397 17.4847 7.42413 17.3449V17.3449ZM27.9813 17.3449C27.9114 17.275 28.1212 17.4847 27.9813 17.3449V17.3449ZM6.65498 17.5547C6.93467 18.184 7.14444 16.7156 6.65498 17.5547V17.5547ZM42.665 20.1418C43.0146 19.5125 43.1545 20.9109 42.665 20.1418V20.1418ZM42.665 20.7711C42.5951 20.7012 42.8049 20.9109 42.665 20.7711V20.7711ZM32.2466 29.0219C33.2954 25.0364 35.8825 22.5891 39.2388 20.9809C39.3087 22.3094 38.6095 23.0086 38.4697 24.1973C35.9525 25.386 36.0224 29.1618 32.2466 29.0219ZM24.7649 21.3305C24.695 21.2606 24.9047 21.4703 24.7649 21.3305V21.3305ZM67.8371 21.9598C68.1168 21.1906 68.1168 22.7289 67.8371 21.9598V21.9598ZM33.8548 22.5891C33.7149 22.4492 33.9247 22.7289 33.8548 22.5891V22.5891ZM50.776 22.5891C50.9858 21.75 50.9858 23.3582 50.776 22.5891V22.5891ZM34.6239 22.7988C34.554 22.659 34.7638 22.8688 34.6239 22.7988V22.7988ZM23.786 22.9387C23.9957 22.1695 23.9957 23.7778 23.786 22.9387V22.9387ZM33.4353 22.9387C33.3653 22.8688 33.5751 23.0785 33.4353 22.9387V22.9387ZM23.5762 23.568C23.0867 24.2672 24.2055 23.0785 23.5762 23.568V23.568ZM33.0157 23.568C32.9458 23.4981 33.1556 23.7078 33.0157 23.568V23.568ZM33.4353 23.9875C33.3653 23.9176 33.5751 24.1274 33.4353 23.9875V23.9875ZM23.3664 24.4071V23.9875H23.786V24.4071H23.3664ZM32.3864 24.1973C32.3864 23.9176 32.736 24.0575 32.3864 24.1973C32.1067 24.2672 32.4563 24.4071 32.3864 24.1973ZM33.0157 24.4071C33.0157 24.1274 33.2954 24.2672 33.0157 24.4071C32.736 24.477 33.0157 24.6168 33.0157 24.4071ZM65.8792 24.7567C65.7394 24.6868 65.9492 24.8965 65.8792 24.7567V24.7567ZM22.5274 26.0153C22.4574 25.8754 22.6672 26.1551 22.5274 26.0153V26.0153ZM48.958 26.0153C48.8182 25.8754 49.0279 26.1551 48.958 26.0153V26.0153ZM63.0124 27.4137C62.9425 27.3438 63.1523 27.5536 63.0124 27.4137V27.4137ZM63.8515 27.4137C63.7816 27.3438 63.9913 27.5536 63.8515 27.4137V27.4137ZM60.8448 27.9731C60.2854 27.9032 60.7749 27.204 61.1944 27.4137C61.1245 27.6934 60.8448 27.6934 60.8448 27.9731ZM61.8237 27.8333C61.7538 27.6934 61.9636 27.9032 61.8237 27.8333V27.8333ZM59.796 28.1829C60.0757 28.8821 60.2854 27.4137 59.796 28.1829V28.1829ZM61.614 28.1829C60.7749 28.3926 61.544 27.6235 61.614 28.1829C61.7538 28.5325 61.8937 28.1829 61.614 28.1829ZM57.978 28.3926C57.7682 28.3926 57.8382 28.1129 57.978 28.3926C58.1179 28.6723 58.2577 28.3926 57.978 28.3926ZM60.2155 28.8122C60.1456 28.7422 60.3554 28.952 60.2155 28.8122V28.8122ZM56.5796 29.0219C56.5096 28.952 56.7194 29.1618 56.5796 29.0219V29.0219ZM58.6073 29.0219C58.6073 28.7422 58.887 28.8821 58.6073 29.0219C58.3276 29.1618 58.6073 29.2317 58.6073 29.0219ZM59.5862 29.4415C58.9569 29.2317 59.796 29.0219 59.796 28.8122C60.4952 29.0219 59.5862 29.2317 59.5862 29.4415ZM67.0679 29.0219C66.998 28.7422 67.3476 28.8821 67.0679 29.0219C66.7882 29.1618 67.0679 29.2317 67.0679 29.0219ZM55.9503 29.7911C55.8803 29.7212 56.0901 29.9309 55.9503 29.7911V29.7911ZM58.3975 29.7911C58.3276 29.7212 58.5374 29.9309 58.3975 29.7911V29.7911ZM55.1811 30.0009C55.1112 29.9309 55.321 30.1407 55.1811 30.0009V30.0009ZM56.7893 30.0009C56.7893 29.7911 57.069 29.861 56.7893 30.0009C56.5096 30.1407 56.7893 30.2805 56.7893 30.0009ZM46.5107 30.2106C46.7904 30.9098 47.0002 29.4415 46.5107 30.2106V30.2106ZM56.9991 30.6302C56.9292 30.5602 57.1389 30.77 56.9991 30.6302V30.6302ZM46.0912 31.0497C46.3709 31.679 46.5807 30.2106 46.0912 31.0497V31.0497ZM54.342 31.2595C54.2721 31.1196 54.4819 31.3294 54.342 31.2595V31.2595ZM51.1256 31.3993C51.0557 31.3294 51.2655 31.5391 51.1256 31.3993V31.3993ZM51.9647 31.3993C51.8948 31.3294 52.1045 31.5391 51.9647 31.3993V31.3993ZM14.2765 31.6091C14.2765 31.8188 14.0668 31.8188 13.857 31.8188C13.9269 31.6091 14.1367 31.679 14.2765 31.6091ZM17.2832 32.4481C17.423 32.3782 16.7238 32.2384 16.7238 32.2384C16.6539 31.8888 17.7726 31.9587 17.2832 32.4481ZM50.1467 32.2384C50.0768 32.1684 50.2865 32.3782 50.1467 32.2384V32.2384ZM23.1567 33.0075C23.0867 32.9376 23.2965 33.1474 23.1567 33.0075V33.0075ZM22.5274 33.2173C22.5274 33.427 22.3176 33.427 22.1778 33.427C22.1778 33.2173 22.3875 33.2872 22.5274 33.2173ZM48.3287 34.4759C48.2588 34.336 48.4686 34.5458 48.3287 34.4759V34.4759ZM48.958 34.4759C48.8182 34.336 49.0279 34.5458 48.958 34.4759V34.4759ZM58.1878 34.8255C58.2577 34.6157 58.4675 34.406 58.8171 34.4759C58.6772 34.6856 58.5374 34.8954 58.1878 34.8255ZM57.5585 35.0353C57.5585 34.8255 57.9081 34.8954 57.5585 35.0353C57.2788 35.1751 57.6284 35.315 57.5585 35.0353ZM55.3909 36.0841C55.321 35.9443 55.5307 36.2239 55.3909 36.0841V36.0841ZM50.5662 38.0419C50.4963 37.8322 50.8459 37.972 50.5662 38.0419C50.4264 38.3216 50.0768 38.4615 49.7272 38.4615C49.7971 38.1118 50.0768 38.0419 50.5662 38.0419ZM48.119 38.881C48.049 38.8111 48.2588 39.0208 48.119 38.881V38.881ZM47.3498 39.5103C47.2799 39.6501 47.0701 39.6501 46.9303 39.6501C46.9303 39.5103 47.14 39.5103 47.3498 39.5103ZM25.6039 40.2794C25.4641 40.2095 25.6739 40.4193 25.6039 40.2794V40.2794ZM38.2599 40.699C38.19 40.6291 38.3997 40.8388 38.2599 40.699V40.699ZM38.8892 40.699C38.7494 40.6291 38.9591 40.8388 38.8892 40.699V40.699ZM32.2466 40.9087C32.1067 40.8388 32.3165 41.0486 32.2466 40.9087V40.9087ZM33.8548 40.9087C33.7149 40.8388 33.9247 41.0486 33.8548 40.9087V40.9087ZM36.4419 40.699C36.4419 41.1185 35.6029 40.7689 35.2532 40.9087C35.2532 40.4193 36.0923 40.8388 36.4419 40.699ZM37.4208 40.9087C37.3509 40.8388 37.5607 41.0486 37.4208 40.9087V40.9087ZM34.2044 41.3283C34.1345 41.1884 34.3442 41.3982 34.2044 41.3283V41.3283ZM36.6517 41.3283C36.5818 41.1884 36.7915 41.3982 36.6517 41.3283V41.3283ZM37.281 41.3283C37.1411 41.1884 37.3509 41.3982 37.281 41.3283V41.3283ZM58.8171 0.63345C58.7472 0.35376 59.0968 0.493608 58.8171 0.63345V0.63345ZM26.1633 2.0319C25.9536 1.19283 26.7926 1.96198 26.1633 2.0319V2.0319ZM60.8448 2.6612C60.5651 2.6612 60.705 2.31159 60.8448 2.6612V2.6612ZM71.473 4.05965C71.4031 3.98973 71.6129 4.19949 71.473 4.05965V4.05965ZM43.5041 4.40926C43.4342 4.33934 43.6439 4.54911 43.5041 4.40926V4.40926ZM28.4008 5.66786C28.4008 5.10848 28.4708 4.47918 27.9813 4.40926C27.9813 4.96864 28.1212 5.38817 28.4008 5.66786ZM12.1089 5.03856C11.9691 4.96864 12.1789 5.17841 12.1089 5.03856V5.03856ZM44.6928 5.03856C44.6928 4.8288 44.9725 4.89872 44.6928 5.03856V5.03856ZM47.14 5.03856V4.8288C46.7205 4.75887 46.5107 4.89872 46.5107 5.24833C46.8604 5.31825 46.8604 5.03856 47.14 5.03856ZM49.0979 5.24833C48.3287 5.4581 49.0979 4.61903 49.0979 5.24833V5.24833ZM72.1023 5.24833C72.0324 5.17841 72.2422 5.38817 72.1023 5.24833V5.24833ZM12.2488 5.4581C12.1089 6.64678 12.3886 4.61903 12.2488 5.4581V5.4581ZM49.0979 5.24833C49.1678 5.4581 49.3776 5.38817 49.5174 5.4581C49.5174 5.24833 49.3076 5.31825 49.0979 5.24833ZM11.8992 5.87763C11.8992 5.38817 11.6195 5.52802 11.6894 5.87763H11.8992ZM35.2532 5.66786C35.3931 5.59794 35.6029 5.66786 35.6728 5.4581C35.463 5.52802 35.2532 5.4581 35.2532 5.66786ZM35.8126 5.66786C36.0224 5.59794 36.2322 5.66786 36.2322 5.4581C36.0923 5.52802 35.8126 5.4581 35.8126 5.66786ZM28.4008 5.66786C28.5407 5.94755 28.6106 5.59794 28.4008 5.66786V5.66786ZM32.3864 5.87763C32.3165 5.73779 32.5263 6.01748 32.3864 5.87763V5.87763ZM33.9946 5.87763V5.66786C33.645 5.73779 33.2255 5.73779 33.0157 6.0874C33.645 6.29717 33.5751 6.15732 33.9946 5.87763ZM48.7483 5.87763C48.4686 5.87763 48.6084 5.52802 48.7483 5.87763V5.87763ZM11.8992 5.87763C11.8292 6.0874 11.8992 6.22724 12.1089 6.22724C12.1089 6.01748 12.039 5.87763 11.8992 5.87763ZM12.6683 6.0874C12.6683 5.80771 12.948 5.94755 12.6683 6.0874V6.0874ZM31.827 6.0874C32.0368 5.24833 32.0368 6.85654 31.827 6.0874V6.0874ZM33.9946 5.87763C34.1345 6.15732 34.2743 5.80771 33.9946 5.87763V5.87763ZM12.6683 6.0874C12.1089 6.0874 12.8781 6.85654 12.6683 6.0874V6.0874ZM32.2466 6.22724C32.3864 6.22724 32.5962 6.22724 32.5962 6.0874C32.4563 6.0874 32.2466 6.0874 32.2466 6.22724ZM33.0157 6.0874C32.736 6.15732 33.0157 6.29717 33.0157 6.0874V6.0874ZM35.2532 6.22724C35.1833 6.15732 35.3931 6.36709 35.2532 6.22724V6.22724ZM51.3354 6.22724H51.5452C51.4752 6.01748 51.3354 6.15732 51.3354 6.22724ZM33.9946 6.43701C34.2044 6.43701 34.4142 6.43701 34.4142 6.22724C34.2743 6.29717 34.0646 6.22724 33.9946 6.43701ZM30.4286 6.85654C29.7993 6.22724 31.7571 6.43701 30.4286 6.85654V6.85654ZM33.645 6.64678C33.3653 6.64678 33.5052 6.36709 33.645 6.64678V6.64678ZM13.857 7.06631C13.2976 6.99639 14.0668 6.22724 13.857 7.06631V7.06631ZM30.0091 6.64678C29.5196 6.57685 29.2399 6.7167 29.17 7.06631C29.5895 7.06631 29.8692 6.92647 30.0091 6.64678ZM28.1911 6.85654C27.9813 7.27608 28.3309 8.11515 28.6106 7.48585C28.4008 7.41592 28.3309 7.27608 28.4008 7.06631C28.5407 6.99639 28.8204 7.06631 28.8204 6.85654H28.1911ZM60.4253 7.06631C60.3554 6.99639 60.5651 7.20616 60.4253 7.06631V7.06631ZM13.857 7.06631C13.9968 7.346 14.1367 7.06631 13.857 7.06631V7.06631ZM60.8448 7.27608C60.9147 7.346 61.614 7.76554 61.614 7.27608C61.2644 7.48585 60.9147 6.64678 60.8448 7.27608ZM29.7993 7.48585C29.7294 7.346 29.9391 7.62569 29.7993 7.48585V7.48585ZM13.857 7.69561C14.1367 6.85654 14.1367 8.46476 13.857 7.69561V7.69561ZM7.07452 7.83546C6.79483 7.90538 6.93467 7.55577 7.07452 7.83546V7.83546ZM63.0124 8.04523V7.83546C62.5929 7.9753 62.3831 7.27608 62.453 8.04523H63.0124ZM22.3176 8.04523C22.3176 7.83546 22.6672 7.9753 22.3176 8.04523V8.04523ZM14.0668 8.04523C14.1367 8.46476 14.2066 8.74445 14.4863 8.88429C14.5562 8.39484 14.4164 8.11515 14.0668 8.04523ZM22.3176 8.04523C22.0379 8.18507 22.3875 8.32491 22.3176 8.04523V8.04523ZM63.0124 8.04523C63.0124 8.25499 63.2921 8.25499 63.432 8.25499C63.432 8.04523 63.1523 8.11515 63.0124 8.04523ZM74.1301 8.04523C73.7805 8.04523 73.5707 8.25499 73.5008 8.46476C73.8504 8.46476 73.9902 8.32491 74.1301 8.04523ZM63.432 8.46476C64.1312 8.6046 64.1312 8.11515 63.432 8.25499V8.46476ZM72.6617 8.46476C72.6617 8.25499 73.0113 8.32491 72.6617 8.46476V8.46476ZM64.4109 8.67453C64.2011 8.67453 64.3409 8.39484 64.4109 8.67453V8.67453ZM72.5219 8.67453C72.6617 8.67453 72.6617 8.6046 72.6617 8.46476C72.5219 8.46476 72.5219 8.53468 72.5219 8.67453ZM21.1289 8.88429C21.059 8.81437 21.2688 9.02414 21.1289 8.88429V8.88429ZM64.4109 8.67453C64.4109 8.88429 64.6906 8.81437 64.8304 8.88429C64.8304 8.67453 64.6206 8.74445 64.4109 8.67453ZM72.5219 8.67453C71.8926 8.74445 72.6617 9.5136 72.5219 8.67453V8.67453ZM73.0812 8.67453C73.1512 8.88429 73.0812 9.23391 73.291 9.30383C73.291 9.16398 73.291 9.02414 73.5008 9.09406C73.5008 8.81437 73.4309 8.6046 73.0812 8.67453ZM14.6961 9.44367C14.6961 8.95422 14.4164 9.16398 14.4863 9.44367H14.6961ZM66.0191 9.44367C65.8093 9.5136 65.9492 9.16398 66.0191 9.44367V9.44367ZM21.1289 9.65344V10.073C21.4086 10.0031 21.3387 9.65344 21.1289 9.65344ZM72.1023 10.073C72.3121 9.30383 72.3121 10.8421 72.1023 10.073V10.073ZM17.7027 10.2827C17.6328 10.2128 17.8426 10.4226 17.7027 10.2827V10.2827ZM15.1156 10.4925C15.0457 10.4226 15.2554 10.6324 15.1156 10.4925V10.4925ZM15.5351 11.1218C14.9058 11.0519 15.675 10.2827 15.5351 11.1218V11.1218ZM16.514 10.912C16.4441 10.7722 16.6539 11.0519 16.514 10.912V10.912ZM15.5351 11.1218C15.5351 11.6812 16.3043 10.912 15.5351 11.1218V11.1218ZM70.9136 12.3105C70.8437 12.4503 70.9836 12.5203 71.0535 12.5203C71.1234 12.3105 70.9836 12.3105 70.9136 12.3105ZM10.8503 13.2894C11.13 13.2894 10.9902 13.0796 10.8503 13.0796V13.2894ZM72.3121 13.7089C72.0324 13.7089 72.1722 13.4292 72.3121 13.7089V13.7089ZM8.2632 13.7089C7.98351 13.8488 8.2632 13.9187 8.2632 13.7089V13.7089ZM72.3121 13.7089V14.1285H72.5219C72.5219 13.8488 72.4519 13.7789 72.3121 13.7089ZM8.82258 14.1285C8.82258 14.4781 9.10227 14.548 9.03234 14.8976H9.24211V14.3382C9.10227 14.2683 9.03234 14.1285 8.82258 14.1285ZM9.24211 14.3382H9.45188C9.45188 14.0585 9.24211 14.1984 9.24211 14.3382ZM10.0812 14.3382C9.80149 14.3382 9.94133 13.9886 10.0812 14.3382V14.3382ZM72.5219 14.1285C72.4519 14.2683 72.5918 14.2683 72.6617 14.3382C72.7316 14.1285 72.5918 14.1285 72.5219 14.1285ZM28.6106 14.4781C28.5407 14.4082 28.7505 14.6179 28.6106 14.4781V14.4781ZM72.6617 14.3382C72.8016 14.6179 72.9414 14.2683 72.6617 14.3382V14.3382ZM8.47297 14.6879C8.40304 14.6179 8.61281 14.8277 8.47297 14.6879V14.6879ZM9.45188 14.6879C9.38196 14.6179 9.59172 14.8277 9.45188 14.6879V14.6879ZM72.8715 14.8976C72.8715 14.6879 73.2211 14.7578 72.8715 14.8976V14.8976ZM49.9369 15.5269C49.3076 15.2472 50.1467 14.4781 49.9369 15.5269V15.5269ZM9.66164 15.5269H10.2909V15.7367C10.0113 15.6668 9.94133 15.7367 9.87141 15.9465H9.45188V15.7367C9.59172 15.7367 9.73157 15.6668 9.66164 15.5269ZM73.291 15.9465C73.2211 15.8066 73.4309 16.0863 73.291 15.9465V15.9465ZM27.2122 16.2961C27.0723 16.2261 27.2821 16.4359 27.2122 16.2961V16.2961ZM6.86475 16.5058H7.07452C7.0046 16.2961 6.86475 16.4359 6.86475 16.5058ZM27.7715 16.2961C27.4919 16.4359 27.7715 16.5758 27.7715 16.2961V16.2961ZM6.86475 16.5058C6.37529 16.5058 6.51514 16.7855 6.86475 16.7156V16.5058ZM5.4663 16.9254C5.4663 16.2961 6.23545 17.1351 5.4663 16.9254V16.9254ZM27.5618 16.9254C27.352 16.9254 27.4919 16.6457 27.5618 16.9254V16.9254ZM27.2122 17.5547C26.9325 17.5547 27.0723 17.2051 27.2122 17.5547V17.5547ZM25.6039 19.1629C25.6039 18.6734 25.3243 18.8133 25.3942 19.1629H25.6039ZM25.1844 19.3727C25.3243 19.3027 25.3942 19.3027 25.3942 19.1629C25.1844 19.093 25.1844 19.2328 25.1844 19.3727ZM24.9746 19.7223C24.9746 19.8621 24.8348 20.002 24.7649 19.7223H24.9746ZM24.3453 20.3516C24.2754 20.2816 24.4852 20.4914 24.3453 20.3516V20.3516ZM69.8648 20.9809C69.7949 20.841 70.0047 21.1207 69.8648 20.9809V20.9809ZM23.5762 21.75C23.786 20.9809 23.786 22.5891 23.5762 21.75V21.75ZM73.7105 21.9598C73.6406 21.8899 73.8504 22.0996 73.7105 21.9598V21.9598ZM69.0957 22.1695C69.0257 21.8899 69.3754 22.0297 69.0957 22.1695V22.1695ZM66.2289 22.7988C66.1589 22.659 66.3687 22.8688 66.2289 22.7988V22.7988ZM65.0402 23.568C65.3199 24.0574 64.4808 24.4071 65.0402 24.5469C65.18 24.477 65.5296 23.6379 65.0402 23.568ZM65.6695 23.7778C65.5995 23.4981 65.9492 23.6379 65.6695 23.7778V23.7778ZM65.6695 23.7778C65.3199 23.9176 65.6695 23.9875 65.6695 23.7778V23.7778ZM37.8404 24.1973C37.7704 24.1274 37.9802 24.3371 37.8404 24.1973V24.1973ZM64.0613 25.386C64.1312 25.2461 65.18 24.9664 64.4109 24.5469C64.0613 24.6868 63.1523 25.2461 62.8027 26.0153C63.362 25.8754 63.432 25.386 64.0613 25.386ZM65.4597 24.9664C64.7605 24.9664 64.7605 25.6657 64.2011 25.8055V26.225H64.4109C64.4808 26.0852 64.4808 25.9454 64.6206 26.0153C64.6206 25.8754 64.6906 25.7356 64.8304 25.8055C64.8304 25.6657 64.9003 25.5258 65.0402 25.5957C65.0402 25.4559 65.0402 25.3161 65.2499 25.386C65.2499 25.2461 65.2499 25.1762 65.4597 25.1762V24.9664ZM64.0613 25.386C63.9913 25.5957 64.0613 25.7356 64.2011 25.8055C64.271 25.5258 64.2011 25.4559 64.0613 25.386ZM61.8237 26.225C61.7538 26.0852 61.9636 26.295 61.8237 26.225V26.225ZM62.5929 26.225C62.8027 26.225 62.8027 26.0852 62.8027 26.0153C62.6628 25.9454 62.6628 26.0852 62.5929 26.225ZM63.2222 26.225C63.2222 25.9454 63.5019 26.0852 63.2222 26.225V26.225ZM62.5929 26.225C62.3132 26.1551 62.1034 26.3649 62.0335 26.5747H62.453C62.453 26.5047 62.453 26.3649 62.5929 26.3649V26.225ZM63.0124 26.3649C63.2222 26.4348 63.2222 26.295 63.2222 26.225C63.0823 26.1551 63.0124 26.295 63.0124 26.3649ZM49.5174 26.5747C49.4475 26.5047 49.6572 26.7145 49.5174 26.5747V26.5747ZM62.5929 26.3649C62.6628 26.5747 62.523 26.5747 62.453 26.5747C62.3831 26.8543 62.1734 26.8543 62.2433 27.204C62.5929 26.9942 62.8726 26.7145 63.0124 26.3649H62.5929ZM62.0335 26.5747C61.6839 26.5047 61.6839 26.7844 61.4042 26.7844V26.9942H61.8237C61.8237 26.7844 61.9636 26.7844 62.0335 26.5747ZM60.2155 26.9942C60.2155 26.7844 60.4952 26.8543 60.2155 26.9942V26.9942ZM60.2155 26.9942C59.9358 27.134 60.2155 27.2739 60.2155 26.9942V26.9942ZM49.0979 27.204C49.1678 27.3438 49.0279 27.4137 48.958 27.4137C48.8881 28.043 49.7971 27.204 49.0979 27.204ZM68.2566 27.204V27.6235C68.4664 27.6235 68.3964 27.3438 68.4664 27.204H68.2566ZM58.3975 27.9731C58.7472 28.043 58.887 27.8333 59.0268 27.6235C58.6772 27.6235 58.4675 27.7633 58.3975 27.9731ZM7.42413 28.1829C7.6339 28.1829 7.84366 28.1829 7.84366 27.9731C7.70382 28.043 7.42413 28.043 7.42413 28.1829ZM1.83034 28.3926C1.69049 28.3227 1.97018 28.5325 1.83034 28.3926V28.3926ZM8.05343 28.6024C7.98351 28.5325 8.19327 28.7422 8.05343 28.6024V28.6024ZM2.17995 28.8122C2.11003 28.7422 2.3198 28.952 2.17995 28.8122V28.8122ZM3.22879 28.8122C2.38972 28.6024 3.15886 29.4415 3.22879 28.8122V28.8122ZM2.38972 29.2317C2.3198 29.1618 2.52956 29.3716 2.38972 29.2317V29.2317ZM3.64832 29.0219C3.36863 29.0219 3.43855 29.3716 3.43855 29.5813C3.64832 29.5813 3.5784 29.2317 3.64832 29.0219ZM3.43855 29.5813C3.15886 29.7212 3.43855 29.861 3.43855 29.5813V29.5813ZM47.9092 29.5813C47.6295 29.7212 47.9092 29.861 47.9092 29.5813V29.5813ZM3.99793 30.4204C3.92801 30.3505 4.13778 30.5602 3.99793 30.4204V30.4204ZM12.6683 30.4204C11.8292 30.6302 12.6683 29.7911 12.6683 30.4204V30.4204ZM12.6683 30.4204C12.8082 30.7001 12.948 30.4204 12.6683 30.4204V30.4204ZM13.7171 30.6302C13.5773 30.5602 13.7871 30.77 13.7171 30.6302V30.6302ZM65.8792 30.4204C65.8792 30.5602 65.7394 30.6302 65.6695 30.6302C65.5995 30.8399 65.6695 30.9798 65.8792 31.0497C66.0191 30.8399 66.1589 30.4903 65.8792 30.4204ZM4.2077 30.8399C4.13778 30.77 4.34754 30.9798 4.2077 30.8399V30.8399ZM13.7171 31.3993C13.6472 31.1196 13.857 31.0497 13.857 30.8399C13.4375 30.7001 13.5074 31.1196 13.5074 31.3993H13.7171ZM14.4863 31.0497C14.4164 30.9098 14.6261 31.1895 14.4863 31.0497V31.0497ZM15.1156 31.2595C15.2554 31.1895 15.4652 31.1895 15.5351 31.0497C15.3254 31.0497 15.1156 31.0497 15.1156 31.2595ZM47.14 31.2595C47.0002 31.1196 47.2799 31.3294 47.14 31.2595V31.2595ZM15.675 31.3993C15.605 31.3294 15.8148 31.5391 15.675 31.3993V31.3993ZM46.0912 31.8188C45.8814 31.8188 45.9514 32.0985 45.8814 32.2384C46.0912 32.2384 46.0912 31.9587 46.0912 31.8188ZM21.1289 32.8677C21.059 32.7278 21.2688 32.9376 21.1289 32.8677V32.8677Z" fill="#7C65C1"/>
</svg>
