<svg width="24" height="25" viewBox="0 0 24 25" fill="none" xmlns="http://www.w3.org/2000/svg">
<path d="M20.3113 19.6151C20.6389 19.6151 20.9042 19.8805 20.9042 20.208V20.801H14.975V20.208C14.975 19.8805 15.2403 19.6151 15.5679 19.6151H20.3113Z" fill="white"/>
<path d="M20.3113 19.6151V19.0222C20.3113 18.6946 20.046 18.4293 19.7184 18.4293H16.1608C15.8332 18.4293 15.5679 18.6946 15.5679 19.0222L15.5679 19.6151H20.3113Z" fill="white"/>
<path d="M17.9396 4.19904H6.08109V6.57074H17.9396V4.19904Z" fill="white"/>
<path d="M17.9396 5.97782H6.08109V6.57074H17.9396V5.97782Z" fill="white"/>
<path d="M20.3113 8.94245H3.70938L3.11646 6.57074H20.9042L20.3113 8.94245Z" fill="white"/>
<path d="M19.7184 8.94245H16.1608L16.1608 18.4293H19.7184V8.94245Z" fill="white"/>
<path d="M8.45279 19.6151C8.78039 19.6151 9.04572 19.8805 9.04572 20.208V20.801H3.11646V20.208C3.11646 19.8805 3.38179 19.6151 3.70938 19.6151H8.45279Z" fill="white"/>
<path d="M8.45279 19.6151V19.0222C8.45279 18.6946 8.18746 18.4293 7.85987 18.4293H4.30231C3.97472 18.4293 3.70938 18.6946 3.70938 19.0222L3.70938 19.6151H8.45279Z" fill="white"/>
<path d="M7.85987 8.94245H4.30231L4.30231 18.4293H7.85987L7.85987 8.94245Z" fill="white"/>
<path d="M7.85987 13.6384C7.85987 11.3462 9.7181 9.48794 12.0104 9.48794C14.3026 9.48794 16.1608 11.3462 16.1608 13.6384V7.70916H7.85987V13.6384Z" fill="white"/>
</svg>
