<svg width="40" height="41" viewBox="0 0 40 41" fill="none" xmlns="http://www.w3.org/2000/svg">
<circle cx="20" cy="20.9004" r="20" fill="#C241EF" fill-opacity="0.22"/>
<path d="M29.6497 29.6246C29.5838 29.7387 29.4891 29.8334 29.3751 29.8992C29.261 29.965 29.1316 29.9997 29 29.9996H11C10.8684 29.9995 10.7391 29.9647 10.6252 29.8989C10.5113 29.833 10.4168 29.7383 10.351 29.6243C10.2853 29.5103 10.2507 29.381 10.2507 29.2494C10.2508 29.1178 10.2854 28.9886 10.3512 28.8746C11.779 26.4062 13.9793 24.6362 16.5472 23.7971C15.277 23.041 14.2902 21.8888 13.7382 20.5176C13.1862 19.1463 13.0997 17.6317 13.4918 16.2065C13.8839 14.7813 14.733 13.5242 15.9087 12.6282C17.0845 11.7323 18.5218 11.2471 20 11.2471C21.4781 11.2471 22.9155 11.7323 24.0912 12.6282C25.2669 13.5242 26.116 14.7813 26.5081 16.2065C26.9003 17.6317 26.8137 19.1463 26.2617 20.5176C25.7098 21.8888 24.7229 23.041 23.4528 23.7971C26.0206 24.6362 28.2209 26.4062 29.6487 28.8746C29.7147 28.9886 29.7495 29.1178 29.7497 29.2495C29.7498 29.3811 29.7153 29.5105 29.6497 29.6246Z" fill="#C241EF"/>
</svg>
