<svg width="22" height="23" viewBox="0 0 22 23" fill="none" xmlns="http://www.w3.org/2000/svg">
<path d="M15.125 3.64999C13.3538 3.64999 11.8353 5.21062 11 7.59023C10.1647 5.21062 8.64617 3.64999 6.875 3.64999C4.17656 3.64999 2.0625 7.27398 2.0625 11.9C2.0625 16.526 4.17656 20.15 6.875 20.15C8.64617 20.15 10.1647 18.5894 11 16.2098C11.8353 18.5894 13.3538 20.15 15.125 20.15C17.8234 20.15 19.9375 16.526 19.9375 11.9C19.9375 7.27398 17.8234 3.64999 15.125 3.64999ZM9.18844 16.9179C8.54477 18.0978 7.70172 18.775 6.875 18.775C6.04828 18.775 5.20523 18.0978 4.56156 16.9179C4.14545 16.1288 3.84888 15.2822 3.68156 14.4059C4.10041 14.5952 4.56002 14.6765 5.01839 14.6424C5.47676 14.6083 5.91926 14.4598 6.30544 14.2105C6.69163 13.9613 7.00918 13.6192 7.22906 13.2156C7.44895 12.8119 7.56416 12.3596 7.56416 11.9C7.56416 11.4404 7.44895 10.988 7.22906 10.5844C7.00918 10.1808 6.69163 9.83871 6.30544 9.58946C5.91926 9.3402 5.47676 9.19172 5.01839 9.15759C4.56002 9.12345 4.10041 9.20475 3.68156 9.39406C3.84888 8.51778 4.14545 7.67122 4.56156 6.8821C5.20523 5.70218 6.04828 5.02499 6.875 5.02499C7.70172 5.02499 8.54477 5.70218 9.18844 6.8821C9.91289 8.2107 10.3125 9.99304 10.3125 11.9C10.3125 13.8069 9.91289 15.5893 9.18844 16.9179ZM17.4384 16.9179C16.7948 18.0978 15.9517 18.775 15.125 18.775C14.2983 18.775 13.4552 18.0978 12.8116 16.9179C12.3954 16.1288 12.0989 15.2822 11.9316 14.4059C12.3504 14.5952 12.81 14.6765 13.2684 14.6424C13.7268 14.6083 14.1693 14.4598 14.5554 14.2105C14.9416 13.9613 15.2592 13.6192 15.4791 13.2156C15.699 12.8119 15.8142 12.3596 15.8142 11.9C15.8142 11.4404 15.699 10.988 15.4791 10.5844C15.2592 10.1808 14.9416 9.83871 14.5554 9.58946C14.1693 9.3402 13.7268 9.19172 13.2684 9.15759C12.81 9.12345 12.3504 9.20475 11.9316 9.39406C12.0989 8.51778 12.3954 7.67122 12.8116 6.8821C13.4552 5.70218 14.2983 5.02499 15.125 5.02499C15.9517 5.02499 16.7948 5.70218 17.4384 6.8821C18.1629 8.2107 18.5625 9.99304 18.5625 11.9C18.5625 13.8069 18.1629 15.5893 17.4384 16.9179Z" fill="white"/>
</svg>
