<svg width="24" height="25" viewBox="0 0 24 25" fill="none" xmlns="http://www.w3.org/2000/svg">
<path d="M18.9999 16.5001L14.2856 11.5001L9.64273 15.7354L7.49988 13.6177L4.99988 16.0883" stroke="#1C1B1F" stroke-width="2" stroke-linecap="square"/>
<rect x="7.00012" y="7.49994" width="3" height="3" rx="1.5" fill="#1C1B1F"/>
<path d="M15.2001 4.49994H8.80012C7.11996 4.49994 6.27989 4.49994 5.63815 4.82692C5.07366 5.11454 4.61472 5.57348 4.3271 6.13797C4.00012 6.7797 4.00012 7.61978 4.00012 9.29994V15.6999C4.00012 17.3801 4.00012 18.2202 4.3271 18.8619C4.61472 19.4264 5.07366 19.8853 5.63815 20.173C6.27989 20.4999 7.11996 20.4999 8.80012 20.4999H15.2001C16.8803 20.4999 17.7204 20.4999 18.3621 20.173C18.9266 19.8853 19.3855 19.4264 19.6731 18.8619C20.0001 18.2202 20.0001 17.3801 20.0001 15.6999V9.29994C20.0001 7.61978 20.0001 6.7797 19.6731 6.13797C19.3855 5.57348 18.9266 5.11454 18.3621 4.82692C17.7204 4.49994 16.8803 4.49994 15.2001 4.49994Z" stroke="#1C1B1F" stroke-width="2"/>
</svg>
