<svg width="40" height="41" viewBox="0 0 40 41" fill="none" xmlns="http://www.w3.org/2000/svg">
<circle cx="20" cy="20.9" r="20" fill="#F72F3F" fill-opacity="0.22"/>
<path d="M30.5 18.4625C30.5 25.025 20.7697 30.3369 20.3553 30.5563C20.2461 30.615 20.124 30.6458 20 30.6458C19.876 30.6458 19.7539 30.615 19.6447 30.5563C19.2303 30.3369 9.5 25.025 9.5 18.4625C9.50174 16.9215 10.1147 15.4441 11.2044 14.3544C12.294 13.2647 13.7715 12.6518 15.3125 12.65C17.2484 12.65 18.9434 13.4825 20 14.8897C21.0566 13.4825 22.7516 12.65 24.6875 12.65C26.2285 12.6518 27.706 13.2647 28.7956 14.3544C29.8853 15.4441 30.4983 16.9215 30.5 18.4625Z" fill="#F72F3F"/>
</svg>
