<svg width="25" height="24" viewBox="0 0 25 24" fill="none" xmlns="http://www.w3.org/2000/svg">
<path d="M11.75 20.25C11.75 20.4489 11.671 20.6397 11.5303 20.7803C11.3897 20.921 11.1989 21 11 21H5C4.80109 21 4.61032 20.921 4.46967 20.7803C4.32902 20.6397 4.25 20.4489 4.25 20.25V3.75C4.25 3.55109 4.32902 3.36032 4.46967 3.21967C4.61032 3.07902 4.80109 3 5 3H11C11.1989 3 11.3897 3.07902 11.5303 3.21967C11.671 3.36032 11.75 3.55109 11.75 3.75C11.75 3.94891 11.671 4.13968 11.5303 4.28033C11.3897 4.42098 11.1989 4.5 11 4.5H5.75V19.5H11C11.1989 19.5 11.3897 19.579 11.5303 19.7197C11.671 19.8603 11.75 20.0511 11.75 20.25ZM22.0306 11.4694L18.2806 7.71937C18.1399 7.57864 17.949 7.49958 17.75 7.49958C17.551 7.49958 17.3601 7.57864 17.2194 7.71937C17.0786 7.86011 16.9996 8.05098 16.9996 8.25C16.9996 8.44902 17.0786 8.63989 17.2194 8.78063L19.6897 11.25H11C10.8011 11.25 10.6103 11.329 10.4697 11.4697C10.329 11.6103 10.25 11.8011 10.25 12C10.25 12.1989 10.329 12.3897 10.4697 12.5303C10.6103 12.671 10.8011 12.75 11 12.75H19.6897L17.2194 15.2194C17.0786 15.3601 16.9996 15.551 16.9996 15.75C16.9996 15.949 17.0786 16.1399 17.2194 16.2806C17.3601 16.4214 17.551 16.5004 17.75 16.5004C17.949 16.5004 18.1399 16.4214 18.2806 16.2806L22.0306 12.5306C22.1004 12.461 22.1557 12.3783 22.1934 12.2872C22.2312 12.1962 22.2506 12.0986 22.2506 12C22.2506 11.9014 22.2312 11.8038 22.1934 11.7128C22.1557 11.6217 22.1004 11.539 22.0306 11.4694Z" fill="black"/>
</svg>
