<svg width="32" height="32" viewBox="0 0 32 32" fill="none" xmlns="http://www.w3.org/2000/svg">
<path d="M30 16C30 17.305 29.0613 18.2837 28.2325 19.1475C27.7612 19.64 27.2738 20.1475 27.09 20.5938C26.92 21.0025 26.91 21.68 26.9 22.3363C26.8813 23.5562 26.8612 24.9387 25.9 25.9C24.9387 26.8612 23.5562 26.8813 22.3363 26.9C21.68 26.91 21.0025 26.92 20.5938 27.09C20.1475 27.2738 19.64 27.7612 19.1475 28.2325C18.2837 29.0613 17.305 30 16 30C14.695 30 13.7162 29.0613 12.8525 28.2325C12.36 27.7612 11.8525 27.2738 11.4062 27.09C10.9975 26.92 10.32 26.91 9.66375 26.9C8.44375 26.8813 7.06125 26.8612 6.1 25.9C5.13875 24.9387 5.11875 23.5562 5.1 22.3363C5.09 21.68 5.08 21.0025 4.91 20.5938C4.72625 20.1475 4.23875 19.64 3.7675 19.1475C2.93875 18.2837 2 17.305 2 16C2 14.695 2.93875 13.7162 3.7675 12.8525C4.23875 12.36 4.72625 11.8525 4.91 11.4062C5.08 10.9975 5.09 10.32 5.1 9.66375C5.11875 8.44375 5.13875 7.06125 6.1 6.1C7.06125 5.13875 8.44375 5.11875 9.66375 5.1C10.32 5.09 10.9975 5.08 11.4062 4.91C11.8525 4.72625 12.36 4.23875 12.8525 3.7675C13.7162 2.93875 14.695 2 16 2C17.305 2 18.2837 2.93875 19.1475 3.7675C19.64 4.23875 20.1475 4.72625 20.5938 4.91C21.0025 5.08 21.68 5.09 22.3363 5.1C23.5562 5.11875 24.9387 5.13875 25.9 6.1C26.8612 7.06125 26.8813 8.44375 26.9 9.66375C26.91 10.32 26.92 10.9975 27.09 11.4062C27.2738 11.8525 27.7612 12.36 28.2325 12.8525C29.0613 13.7162 30 14.695 30 16Z" fill="#5A5A5A"/>
<path d="M21.4878 17.6696L16.5787 22.5787C16.5027 22.655 16.4124 22.7155 16.313 22.7568C16.2135 22.7981 16.1069 22.8193 15.9992 22.8193C15.8915 22.8193 15.7849 22.7981 15.6854 22.7568C15.586 22.7155 15.4957 22.655 15.4197 22.5787L10.5106 17.6696C10.3569 17.5159 10.2705 17.3074 10.2705 17.0901C10.2705 16.8727 10.3569 16.6642 10.5106 16.5105C10.6643 16.3568 10.8727 16.2704 11.0901 16.2704C11.3075 16.2704 11.5159 16.3568 11.6697 16.5105L15.1817 20.0225V9.99982C15.1817 9.78283 15.2679 9.57472 15.4213 9.42128C15.5748 9.26784 15.7829 9.18164 15.9999 9.18164C16.2169 9.18164 16.425 9.26784 16.5784 9.42128C16.7319 9.57472 16.8181 9.78283 16.8181 9.99982V20.0225L20.3301 16.5098C20.4838 16.3561 20.6923 16.2698 20.9097 16.2698C21.127 16.2698 21.3355 16.3561 21.4892 16.5098C21.6429 16.6635 21.7293 16.872 21.7293 17.0894C21.7293 17.3067 21.6429 17.5152 21.4892 17.6689L21.4878 17.6696Z" fill="white"/>
</svg>
