<svg width="18" height="18" viewBox="0 0 18 18" fill="none" xmlns="http://www.w3.org/2000/svg">
<rect width="18" height="18" rx="9" fill="white"/>
<mask id="mask0_725_71478" style="mask-type:alpha" maskUnits="userSpaceOnUse" x="3" y="3" width="12" height="12">
<rect x="3" y="3" width="12" height="12" fill="#D9D9D9"/>
</mask>
<g mask="url(#mask0_725_71478)">
<path d="M7 11.5881V6.41309C7 6.27142 7.05 6.15267 7.15 6.05684C7.25 5.961 7.36667 5.91309 7.5 5.91309C7.54167 5.91309 7.58542 5.91934 7.63125 5.93184C7.67708 5.94434 7.72083 5.96309 7.7625 5.98809L11.8375 8.57559C11.9125 8.62559 11.9687 8.68809 12.0062 8.76309C12.0437 8.83809 12.0625 8.91725 12.0625 9.00059C12.0625 9.08392 12.0437 9.16309 12.0062 9.23809C11.9687 9.31309 11.9125 9.37559 11.8375 9.42559L7.7625 12.0131C7.72083 12.0381 7.67708 12.0568 7.63125 12.0693C7.58542 12.0818 7.54167 12.0881 7.5 12.0881C7.36667 12.0881 7.25 12.0402 7.15 11.9443C7.05 11.8485 7 11.7298 7 11.5881Z" fill="#67B96B"/>
</g>
</svg>
