<svg width="32" height="32" viewBox="0 0 32 32" fill="none" xmlns="http://www.w3.org/2000/svg">
<path d="M24.2727 27.8182C24.2727 28.4709 23.7436 29 23.0909 29C22.4382 29 21.9091 28.4709 21.9091 27.8182C21.9091 27.1655 22.4382 26.6364 23.0909 26.6364C23.7436 26.6364 24.2727 27.1655 24.2727 27.8182Z" fill="black"/>
<path d="M29 23.0909C29 23.7436 28.4709 24.2727 27.8182 24.2727C27.1655 24.2727 26.6364 23.7436 26.6364 23.0909C26.6364 22.4382 27.1655 21.9091 27.8182 21.9091C28.4709 21.9091 29 22.4382 29 23.0909Z" fill="black"/>
<path d="M5.36364 8.90909C5.36364 9.56179 4.83452 10.0909 4.18182 10.0909C3.52912 10.0909 3 9.56179 3 8.90909C3 8.25639 3.52912 7.72727 4.18182 7.72727C4.83452 7.72727 5.36364 8.25639 5.36364 8.90909Z" fill="black"/>
<path d="M10.0909 4.18182C10.0909 4.83452 9.56179 5.36364 8.90909 5.36364C8.25639 5.36364 7.72727 4.83452 7.72727 4.18182C7.72727 3.52912 8.25639 3 8.90909 3C9.56179 3 10.0909 3.52912 10.0909 4.18182Z" fill="black"/>
<path fill-rule="evenodd" clip-rule="evenodd" d="M16 9.47981L15.2292 12.6585C14.9211 13.9291 13.9291 14.9211 12.6585 15.2292L9.47981 16L12.6585 16.7708C13.9291 17.0789 14.9211 18.0709 15.2292 19.3415L16 22.5202L16.7708 19.3415C17.0789 18.0709 18.0709 17.0789 19.3415 16.7708L22.5202 16L19.3415 15.2292C18.0709 14.9211 17.0789 13.9291 16.7708 12.6585L16 9.47981ZM17.5426 7.75867C17.1503 6.14105 14.8497 6.14105 14.4574 7.75867L13.3781 12.2096C13.2381 12.7872 12.7872 13.2381 12.2096 13.3781L7.75867 14.4574C6.14105 14.8497 6.14105 17.1503 7.75867 17.5426L12.2096 18.6219C12.7872 18.7619 13.2381 19.2128 13.3781 19.7904L14.4574 24.2413C14.8497 25.8589 17.1503 25.8589 17.5426 24.2413L18.6219 19.7904C18.7619 19.2128 19.2128 18.7619 19.7904 18.6219L24.2413 17.5426C25.8589 17.1503 25.8589 14.8497 24.2413 14.4574L19.7904 13.3781C19.2128 13.2381 18.7619 12.7872 18.6219 12.2096L17.5426 7.75867Z" fill="black"/>
<path fill-rule="evenodd" clip-rule="evenodd" d="M12.46 28.1901C12.2546 28.7404 11.6419 29.0201 11.0916 28.8147C7.52672 27.4841 4.6632 24.722 3.2006 21.227C2.97382 20.6851 3.22927 20.062 3.77117 19.8352C4.31306 19.6084 4.93619 19.8639 5.16296 20.4058C6.39915 23.3597 8.82227 25.6971 11.8354 26.8217C12.3858 27.0271 12.6654 27.6398 12.46 28.1901Z" fill="black"/>
<path fill-rule="evenodd" clip-rule="evenodd" d="M28.1908 12.4791C27.6407 12.6849 27.0278 12.4058 26.8219 11.8556C25.6884 8.82582 23.3238 6.39267 20.3365 5.16569C19.7931 4.94251 19.5335 4.32108 19.7567 3.7777C19.9799 3.23432 20.6013 2.97475 21.1447 3.19793C24.6777 4.64903 27.4727 7.52397 28.8143 11.1102C29.0202 11.6604 28.741 12.2732 28.1908 12.4791Z" fill="black"/>
</svg>
