<svg width="22" height="23" viewBox="0 0 22 23" fill="none" xmlns="http://www.w3.org/2000/svg">
<path d="M10.0762 14.0646C10.9976 13.4511 11.6972 12.5575 12.0714 11.5157C12.4456 10.4739 12.4747 9.33939 12.1542 8.27984C11.8338 7.2203 11.1809 6.292 10.2921 5.63222C9.40326 4.97244 8.3257 4.61621 7.21876 4.61621C6.11182 4.61621 5.03427 4.97244 4.14544 5.63222C3.25662 6.292 2.60371 7.2203 2.28328 8.27984C1.96284 9.33939 1.99189 10.4739 2.36613 11.5157C2.74036 12.5575 3.43992 13.4511 4.36134 14.0646C2.69458 14.6789 1.27112 15.8156 0.303372 17.3053C0.25251 17.3809 0.217182 17.4658 0.19944 17.5552C0.181698 17.6445 0.181897 17.7365 0.200024 17.8258C0.218152 17.9151 0.253847 17.9999 0.305034 18.0753C0.356221 18.1507 0.42188 18.2151 0.498194 18.2649C0.574508 18.3147 0.659954 18.3488 0.749566 18.3652C0.839178 18.3817 0.931168 18.3802 1.02019 18.3608C1.10921 18.3414 1.19349 18.3045 1.26812 18.2522C1.34275 18.1999 1.40626 18.1334 1.45493 18.0564C2.07918 17.0962 2.93337 16.3073 3.93993 15.7611C4.9465 15.2149 6.07356 14.9289 7.21876 14.9289C8.36396 14.9289 9.49102 15.2149 10.4976 15.7611C11.5042 16.3073 12.3584 17.0962 12.9826 18.0564C13.0834 18.2062 13.2392 18.3104 13.4162 18.3463C13.5932 18.3823 13.7773 18.3471 13.9286 18.2484C14.0799 18.1497 14.1863 17.9955 14.2247 17.819C14.2632 17.6425 14.2307 17.4579 14.1342 17.3053C13.1664 15.8156 11.7429 14.6789 10.0762 14.0646ZM3.43751 9.77455C3.43751 9.02669 3.65928 8.29563 4.07477 7.6738C4.49026 7.05198 5.08081 6.56733 5.77174 6.28113C6.46267 5.99494 7.22296 5.92006 7.95645 6.06596C8.68994 6.21186 9.36369 6.57199 9.89251 7.10081C10.4213 7.62962 10.7815 8.30338 10.9274 9.03687C11.0733 9.77036 10.9984 10.5306 10.7122 11.2216C10.426 11.9125 9.94134 12.5031 9.31951 12.9185C8.69769 13.334 7.96662 13.5558 7.21876 13.5558C6.21626 13.5547 5.25515 13.1559 4.54627 12.447C3.83739 11.7382 3.43865 10.7771 3.43751 9.77455ZM21.4964 18.2566C21.3437 18.3562 21.1577 18.391 20.9793 18.3535C20.8009 18.3159 20.6447 18.209 20.5451 18.0564C19.9216 17.0957 19.0675 16.3064 18.0607 15.7604C17.054 15.2145 15.9265 14.9293 14.7813 14.9308C14.5989 14.9308 14.4241 14.8584 14.2951 14.7294C14.1662 14.6005 14.0938 14.4256 14.0938 14.2433C14.0938 14.061 14.1662 13.8861 14.2951 13.7572C14.4241 13.6282 14.5989 13.5558 14.7813 13.5558C15.3381 13.5553 15.888 13.4318 16.3916 13.1941C16.8951 12.9564 17.34 12.6105 17.6944 12.181C18.0488 11.7514 18.3039 11.2489 18.4416 10.7094C18.5792 10.1698 18.596 9.60649 18.4908 9.05968C18.3855 8.51287 18.1607 7.99607 17.8326 7.54619C17.5044 7.09631 17.0809 6.72447 16.5924 6.45722C16.1039 6.18998 15.5623 6.03393 15.0065 6.00023C14.4507 5.96654 13.8943 6.05602 13.377 6.26229C13.2927 6.29874 13.2019 6.31793 13.1101 6.3187C13.0182 6.31948 12.9271 6.30183 12.8421 6.26681C12.7572 6.23178 12.6802 6.18009 12.6155 6.11478C12.5509 6.04947 12.5 5.97186 12.4659 5.88656C12.4318 5.80125 12.4151 5.70998 12.4169 5.61812C12.4186 5.52626 12.4388 5.43568 12.4761 5.35174C12.5135 5.2678 12.5673 5.19219 12.6343 5.12939C12.7014 5.0666 12.7804 5.01788 12.8666 4.98612C14.0503 4.51402 15.367 4.49703 16.5625 4.93843C17.7581 5.37982 18.7478 6.24833 19.3408 7.3764C19.9337 8.50446 20.0879 9.81216 19.7736 11.0472C19.4593 12.2823 18.6988 13.3572 17.6387 14.0646C19.3054 14.6789 20.7289 15.8156 21.6967 17.3053C21.7962 17.458 21.8311 17.644 21.7935 17.8224C21.756 18.0008 21.6491 18.157 21.4964 18.2566Z" fill="black"/>
</svg>
