<svg width="18" height="19" viewBox="0 0 18 19" fill="none" xmlns="http://www.w3.org/2000/svg">
<path d="M14.625 3.3125V15.6875C14.625 15.8367 14.5657 15.9798 14.4602 16.0852C14.3548 16.1907 14.2117 16.25 14.0625 16.25C13.9133 16.25 13.7702 16.1907 13.6648 16.0852C13.5593 15.9798 13.5 15.8367 13.5 15.6875V10.8198L5.09273 16.0777C4.92342 16.184 4.72878 16.2431 4.52895 16.2489C4.32913 16.2547 4.13139 16.207 3.95621 16.1107C3.78102 16.0144 3.63477 15.873 3.53258 15.7012C3.43039 15.5294 3.37599 15.3333 3.375 15.1334V3.86656C3.37599 3.66666 3.43039 3.47065 3.53258 3.29883C3.63477 3.12702 3.78102 2.98564 3.95621 2.88933C4.13139 2.79303 4.32913 2.7453 4.52895 2.75109C4.72878 2.75688 4.92342 2.81598 5.09273 2.92227L13.5 8.18023V3.3125C13.5 3.16332 13.5593 3.02024 13.6648 2.91475C13.7702 2.80926 13.9133 2.75 14.0625 2.75C14.2117 2.75 14.3548 2.80926 14.4602 2.91475C14.5657 3.02024 14.625 3.16332 14.625 3.3125Z" fill="#3A6A6B"/>
</svg>
