<svg width="18" height="19" viewBox="0 0 18 19" fill="none" xmlns="http://www.w3.org/2000/svg">
<path d="M16.875 9.50035C16.8755 9.69134 16.8265 9.8792 16.7329 10.0457C16.6392 10.2121 16.5041 10.3515 16.3406 10.4503L6.21 16.6476C6.0392 16.7522 5.84358 16.8093 5.64334 16.813C5.44309 16.8167 5.24549 16.7669 5.07094 16.6687C4.89805 16.572 4.75402 16.4311 4.65368 16.2603C4.55333 16.0895 4.50029 15.8951 4.5 15.697V3.30371C4.50029 3.10563 4.55333 2.9112 4.65368 2.74042C4.75402 2.56963 4.89805 2.42866 5.07094 2.33199C5.24549 2.2338 5.44309 2.18398 5.64334 2.18769C5.84358 2.1914 6.0392 2.2485 6.21 2.35309L16.3406 8.55043C16.5041 8.6492 16.6392 8.78859 16.7329 8.95505C16.8265 9.12151 16.8755 9.30936 16.875 9.50035Z" fill="#3A6A6B"/>
</svg>
