<svg width="18" height="19" viewBox="0 0 18 19" fill="none" xmlns="http://www.w3.org/2000/svg">
<path d="M15.1875 3.875V15.125C15.1875 15.4234 15.069 15.7095 14.858 15.9205C14.647 16.1315 14.3609 16.25 14.0625 16.25H11.25C10.9516 16.25 10.6655 16.1315 10.4545 15.9205C10.2435 15.7095 10.125 15.4234 10.125 15.125V3.875C10.125 3.57663 10.2435 3.29048 10.4545 3.0795C10.6655 2.86853 10.9516 2.75 11.25 2.75H14.0625C14.3609 2.75 14.647 2.86853 14.858 3.0795C15.069 3.29048 15.1875 3.57663 15.1875 3.875ZM6.75 2.75H3.9375C3.63913 2.75 3.35298 2.86853 3.142 3.0795C2.93103 3.29048 2.8125 3.57663 2.8125 3.875V15.125C2.8125 15.4234 2.93103 15.7095 3.142 15.9205C3.35298 16.1315 3.63913 16.25 3.9375 16.25H6.75C7.04837 16.25 7.33452 16.1315 7.5455 15.9205C7.75647 15.7095 7.875 15.4234 7.875 15.125V3.875C7.875 3.57663 7.75647 3.29048 7.5455 3.0795C7.33452 2.86853 7.04837 2.75 6.75 2.75Z" fill="#3A6A6B"/>
</svg>
