<svg width="18" height="19" viewBox="0 0 18 19" fill="none" xmlns="http://www.w3.org/2000/svg">
<path d="M14.625 3.86656V15.1334C14.6229 15.3329 14.5678 15.5282 14.4654 15.6994C14.3629 15.8705 14.2168 16.0113 14.042 16.1074C13.8672 16.2035 13.67 16.2514 13.4706 16.2462C13.2712 16.241 13.0768 16.1828 12.9073 16.0777L4.5 10.8198V15.6875C4.5 15.8367 4.44074 15.9798 4.33525 16.0852C4.22976 16.1907 4.08668 16.25 3.9375 16.25C3.78832 16.25 3.64524 16.1907 3.53975 16.0852C3.43426 15.9798 3.375 15.8367 3.375 15.6875V3.3125C3.375 3.16332 3.43426 3.02024 3.53975 2.91475C3.64524 2.80926 3.78832 2.75 3.9375 2.75C4.08668 2.75 4.22976 2.80926 4.33525 2.91475C4.44074 3.02024 4.5 3.16332 4.5 3.3125V8.18023L12.9073 2.92227C13.0766 2.81598 13.2712 2.75688 13.471 2.75109C13.6709 2.7453 13.8686 2.79303 14.0438 2.88933C14.219 2.98564 14.3652 3.12702 14.4674 3.29883C14.5696 3.47065 14.624 3.66666 14.625 3.86656Z" fill="#3A6A6B"/>
</svg>
