<svg width="40" height="41" viewBox="0 0 40 41" fill="none" xmlns="http://www.w3.org/2000/svg">
<circle cx="20" cy="20.9" r="20" fill="#00CA48" fill-opacity="0.22"/>
<path d="M29 13.5V18C29 18.1989 28.921 18.3897 28.7803 18.5303C28.6397 18.671 28.4489 18.75 28.25 18.75H23.75C23.6016 18.7501 23.4565 18.7062 23.333 18.6238C23.2096 18.5414 23.1133 18.4242 23.0565 18.2871C22.9997 18.15 22.9849 17.9991 23.0139 17.8535C23.0428 17.708 23.1144 17.5743 23.2194 17.4694L24.9359 15.75C23.5551 14.4269 21.7183 13.6855 19.8059 13.6791H19.7638C17.8041 13.6752 15.9218 14.4431 14.5241 15.8166C14.3808 15.9503 14.191 16.0226 13.9951 16.0181C13.7992 16.0136 13.6128 15.9327 13.4759 15.7925C13.3389 15.6524 13.2623 15.4642 13.2623 15.2683C13.2623 15.0723 13.339 14.8842 13.4759 14.7441C15.1479 13.1105 17.3897 12.1916 19.7271 12.1816C22.0646 12.1716 24.3142 13.0714 26 14.6906L27.7213 12.9694C27.8262 12.865 27.9598 12.7941 28.105 12.7654C28.2503 12.7368 28.4007 12.7518 28.5375 12.8086C28.6742 12.8653 28.7911 12.9612 28.8734 13.0843C28.9557 13.2073 28.9997 13.352 29 13.5ZM25.4759 26.1834C24.0867 27.5403 22.2253 28.3055 20.2834 28.3179C18.3415 28.3303 16.4705 27.589 15.0641 26.25L16.7806 24.5334C16.8866 24.4287 16.959 24.2948 16.9885 24.1487C17.0181 24.0027 17.0035 23.8511 16.9465 23.7134C16.8896 23.5757 16.7929 23.4581 16.6689 23.3756C16.5448 23.293 16.399 23.2493 16.25 23.25H11.75C11.5511 23.25 11.3603 23.329 11.2197 23.4697C11.079 23.6103 11 23.8011 11 24V28.5C10.9999 28.6484 11.0438 28.7935 11.1262 28.917C11.2086 29.0404 11.3258 29.1367 11.4629 29.1935C11.6 29.2503 11.7509 29.2651 11.8965 29.2362C12.042 29.2072 12.1757 29.1356 12.2806 29.0306L14 27.3094C15.6614 28.9128 17.8785 29.8118 20.1875 29.8181H20.2372C22.5885 29.8242 24.8476 28.9037 26.525 27.2559C26.662 27.1158 26.7387 26.9277 26.7387 26.7317C26.7387 26.5358 26.662 26.3476 26.5251 26.2075C26.3881 26.0674 26.2018 25.9864 26.0059 25.9819C25.81 25.9774 25.6201 26.0497 25.4769 26.1834H25.4759Z" fill="#00CA48"/>
</svg>
