<svg width="24" height="24" viewBox="0 0 24 24" fill="none" xmlns="http://www.w3.org/2000/svg">
<path d="M21.375 4.50004V9.00004C21.375 9.29841 21.2565 9.58455 21.0455 9.79553C20.8345 10.0065 20.5484 10.125 20.25 10.125H15.75C15.4516 10.125 15.1655 10.0065 14.9545 9.79553C14.7435 9.58455 14.625 9.29841 14.625 9.00004C14.625 8.70167 14.7435 8.41552 14.9545 8.20454C15.1655 7.99356 15.4516 7.87504 15.75 7.87504H17.5312L16.8 7.14379C15.4761 5.8133 13.6782 5.06272 11.8012 5.05691H11.7609C9.90075 5.05284 8.11375 5.78131 6.78656 7.08472C6.57323 7.29333 6.28576 7.40865 5.9874 7.40531C5.68905 7.40197 5.40423 7.28024 5.19562 7.06691C4.98702 6.85358 4.8717 6.56611 4.87504 6.26775C4.87838 5.9694 5.0001 5.68458 5.21344 5.47597C6.96114 3.75984 9.31435 2.80097 11.7638 2.80691H11.8125C14.2835 2.81365 16.6507 3.80134 18.3937 5.55285L19.125 6.28129V4.50004C19.125 4.20167 19.2435 3.91552 19.4545 3.70454C19.6655 3.49356 19.9516 3.37504 20.25 3.37504C20.5484 3.37504 20.8345 3.49356 21.0455 3.70454C21.2565 3.91552 21.375 4.20167 21.375 4.50004ZM17.2134 16.9153C15.8856 18.2194 14.0974 18.948 12.2362 18.9432H12.1959C10.319 18.9373 8.52111 18.1868 7.19719 16.8563L6.46875 16.125H8.25C8.54837 16.125 8.83452 16.0065 9.0455 15.7955C9.25647 15.5846 9.375 15.2984 9.375 15C9.375 14.7017 9.25647 14.4155 9.0455 14.2045C8.83452 13.9936 8.54837 13.875 8.25 13.875H3.75C3.45163 13.875 3.16548 13.9936 2.9545 14.2045C2.74353 14.4155 2.625 14.7017 2.625 15V19.5C2.625 19.7984 2.74353 20.0846 2.9545 20.2955C3.16548 20.5065 3.45163 20.625 3.75 20.625C4.04837 20.625 4.33452 20.5065 4.5455 20.2955C4.75647 20.0846 4.875 19.7984 4.875 19.5V17.7188L5.60625 18.45C7.34974 20.2005 9.71689 21.1872 12.1875 21.1932H12.24C14.6894 21.1991 17.0426 20.2402 18.7903 18.5241C18.8959 18.4208 18.9802 18.2977 19.0383 18.1619C19.0963 18.026 19.1271 17.8801 19.1287 17.7323C19.1304 17.5846 19.1029 17.438 19.0479 17.3009C18.9929 17.1637 18.9114 17.0388 18.8081 16.9332C18.7048 16.8275 18.5817 16.7433 18.4459 16.6852C18.31 16.6271 18.1641 16.5964 18.0163 16.5948C17.8686 16.5931 17.722 16.6206 17.5849 16.6756C17.4478 16.7306 17.3228 16.8121 17.2172 16.9153H17.2134Z" fill="black"/>
</svg>
