<svg width="40" height="41" viewBox="0 0 40 41" fill="none" xmlns="http://www.w3.org/2000/svg">
<circle cx="20" cy="20.9" r="20" fill="#5220EC" fill-opacity="0.22"/>
<path d="M29.75 14.15V26.15C29.75 26.5478 29.592 26.9294 29.3107 27.2107C29.0294 27.492 28.6478 27.65 28.25 27.65H22.5847L21.3022 29.8944C21.171 30.1239 20.9814 30.3147 20.7527 30.4473C20.5241 30.58 20.2644 30.6499 20 30.6499C19.7356 30.6499 19.4759 30.58 19.2473 30.4473C19.0186 30.3147 18.829 30.1239 18.6978 29.8944L17.4153 27.65H11.75C11.3522 27.65 10.9706 27.492 10.6893 27.2107C10.408 26.9294 10.25 26.5478 10.25 26.15V14.15C10.25 13.7522 10.408 13.3707 10.6893 13.0894C10.9706 12.8081 11.3522 12.65 11.75 12.65H28.25C28.6478 12.65 29.0294 12.8081 29.3107 13.0894C29.592 13.3707 29.75 13.7522 29.75 14.15Z" fill="#5220EC"/>
</svg>
