<svg width="57" height="56" viewBox="0 0 57 56" fill="none" xmlns="http://www.w3.org/2000/svg">
<circle cx="28.5" cy="28" r="28" fill="#0052FF"/>
<path d="M48.2043 28.0035C48.2043 38.9129 39.41 47.7072 28.5006 47.7072C17.5912 47.7072 8.79688 38.9129 8.79688 28.0035C8.79688 17.0941 17.5912 8.2998 28.5006 8.2998C39.41 8.2998 48.2043 17.0941 48.2043 28.0035Z" fill="white"/>
<path d="M22.8711 25.0113C22.8711 24.0984 22.8711 23.5912 23.0669 23.2869C23.2627 22.9826 23.4585 22.6783 23.7523 22.5769C24.1439 22.374 24.5355 22.374 25.5146 22.374H31.4869C32.4659 22.374 32.8576 22.374 33.2492 22.5769C33.5429 22.7798 33.8366 22.9826 33.9345 23.2869C34.1304 23.6927 34.1304 24.0984 34.1304 25.0113V30.996C34.1304 31.9089 34.1304 32.4161 33.9345 32.7204C33.7387 33.0247 33.5429 33.329 33.2492 33.4304C32.8576 33.6333 32.4659 33.6333 31.4869 33.6333H25.5146C24.5355 33.6333 24.1439 33.6333 23.7523 33.4304C23.4585 33.2275 23.1648 33.0247 23.0669 32.7204C22.8711 32.3146 22.8711 31.9089 22.8711 30.996V25.0113Z" fill="#0052FF"/>
</svg>
