<svg width="25" height="24" viewBox="0 0 25 24" fill="none" xmlns="http://www.w3.org/2000/svg">
<path fill-rule="evenodd" clip-rule="evenodd" d="M17.6406 13.969C17.3211 14.2886 17.3211 14.8066 17.6406 15.1261C17.9601 15.4456 18.4782 15.4456 18.7977 15.1261L21.1119 12.812C21.4314 12.4924 21.4314 11.9744 21.1119 11.6549L18.7977 9.3407C18.4782 9.02118 17.9601 9.02118 17.6406 9.3407C17.3211 9.66022 17.3211 10.1783 17.6406 10.4978L18.5581 11.4152L10.9378 11.4152L11.8552 10.4978C12.1747 10.1783 12.1747 9.66022 11.8552 9.3407C11.5357 9.02118 11.0176 9.02118 10.6981 9.3407L8.38394 11.6549C8.06442 11.9744 8.06442 12.4924 8.38394 12.812L10.6981 15.1261C11.0176 15.4456 11.5357 15.4456 11.8552 15.1261C12.1747 14.8066 12.1747 14.2886 11.8552 13.969L10.9378 13.0516H18.5581L17.6406 13.969Z" fill="black"/>
<path fill-rule="evenodd" clip-rule="evenodd" d="M4.19336 7.90909C4.19336 5.69493 5.98829 3.9 8.20245 3.9H11.4752C13.6893 3.9 15.4843 5.69493 15.4843 7.90909V8.67614C15.4843 9.08282 15.1546 9.4125 14.7479 9.4125C14.3412 9.4125 14.0115 9.08282 14.0115 8.67614V7.90909C14.0115 6.5083 12.876 5.37273 11.4752 5.37273H8.20245C6.80166 5.37273 5.66609 6.5083 5.66609 7.90909V16.0909C5.66609 17.4917 6.80166 18.6273 8.20245 18.6273H11.4752C12.876 18.6273 14.0115 17.4917 14.0115 16.0909V16.0398C14.0115 15.6331 14.3412 15.3034 14.7479 15.3034C15.1546 15.3034 15.4843 15.6331 15.4843 16.0398V16.0909C15.4843 18.3051 13.6893 20.1 11.4752 20.1H8.20245C5.98829 20.1 4.19336 18.3051 4.19336 16.0909V7.90909Z" fill="black"/>
<path d="M18.9142 3.26247C18.999 2.91251 19.4968 2.91251 19.5816 3.26247L19.8151 4.22542C19.8454 4.35037 19.943 4.44793 20.0679 4.47823L21.0309 4.71173C21.3809 4.79659 21.3809 5.29432 21.0309 5.37918L20.0679 5.61268C19.943 5.64298 19.8454 5.74054 19.8151 5.86548L19.5816 6.82844C19.4968 7.1784 18.999 7.1784 18.9142 6.82844L18.6807 5.86548C18.6504 5.74054 18.5528 5.64298 18.4279 5.61268L17.4649 5.37918C17.115 5.29432 17.115 4.79659 17.4649 4.71173L18.4279 4.47823C18.5528 4.44793 18.6504 4.35037 18.6807 4.22542L18.9142 3.26247Z" fill="black"/>
<path fill-rule="evenodd" clip-rule="evenodd" d="M19.2479 3.63484L19.0811 4.32253C19.0145 4.59742 18.7999 4.81204 18.525 4.8787L17.8373 5.04545L18.525 5.21221C18.7999 5.27887 19.0145 5.49349 19.0811 5.76838L19.2479 6.45607L19.4147 5.76838C19.4813 5.49349 19.6959 5.27887 19.9708 5.21221L20.6585 5.04545L19.9708 4.8787C19.6959 4.81204 19.4813 4.59742 19.4147 4.32253L19.2479 3.63484ZM19.5816 3.26247C19.4968 2.91251 18.999 2.91251 18.9142 3.26247L18.6807 4.22542C18.6504 4.35037 18.5528 4.44793 18.4279 4.47823L17.4649 4.71173C17.115 4.79659 17.115 5.29432 17.4649 5.37918L18.4279 5.61268C18.5528 5.64298 18.6504 5.74054 18.6807 5.86548L18.9142 6.82844C18.999 7.1784 19.4968 7.1784 19.5816 6.82844L19.8151 5.86548C19.8454 5.74054 19.943 5.64298 20.0679 5.61268L21.0309 5.37918C21.3809 5.29432 21.3809 4.79659 21.0309 4.71173L20.0679 4.47823C19.943 4.44793 19.8454 4.35037 19.8151 4.22542L19.5816 3.26247Z" fill="black"/>
<path d="M21.2934 17.7273C21.2934 18.1791 20.927 18.5455 20.4752 18.5455C20.0233 18.5455 19.657 18.1791 19.657 17.7273C19.657 17.2754 20.0233 16.9091 20.4752 16.9091C20.927 16.9091 21.2934 17.2754 21.2934 17.7273Z" fill="black"/>
<path d="M18.8388 20.1818C18.8388 20.6337 18.4725 21 18.0206 21C17.5688 21 17.2025 20.6337 17.2025 20.1818C17.2025 19.7299 17.5688 19.3636 18.0206 19.3636C18.4725 19.3636 18.8388 19.7299 18.8388 20.1818Z" fill="black"/>
</svg>
