<svg width="195" height="110" viewBox="0 0 195 110" fill="none" xmlns="http://www.w3.org/2000/svg">
<path d="M109.178 1.65904V1.10964C106.98 0.0108646 105.149 0.560255 103.318 0.0108647C102.768 3.8566 103.501 10.4493 100.754 13.1962C98.9226 12.83 98.1901 13.5625 97.0913 13.7456C92.6962 14.8444 101.486 13.7456 101.303 14.295C96.9081 15.9432 96.5419 15.5769 92.8793 17.9576C92.6962 16.1263 91.7805 17.9576 91.2311 16.3094C91.4142 18.1407 89.3998 17.5914 88.6673 18.507C88.6673 17.9576 88.4842 17.5914 88.1179 17.4082C83.9059 17.9576 81.159 20.7046 75.8482 19.6058C75.6651 21.4371 73.4675 21.254 71.6362 21.6202C73.4675 19.972 74.0169 17.4082 71.6362 17.4082C74.5663 12.4637 70.5374 9.3505 68.523 5.87103C68.523 6.23729 68.523 6.78668 67.9736 6.96981C68.1567 6.42042 67.9736 5.87103 68.523 5.87103V5.32163C65.4098 2.75781 64.311 0.926516 61.1978 1.65904C61.7472 3.67346 60.2821 4.03973 59.5496 4.77225C62.6628 8.80111 62.6628 17.9576 63.7616 22.1696C65.5929 22.1696 63.7616 23.0853 65.4098 23.8178C64.311 24.7334 63.3954 24.0009 62.2966 23.8178C61.3809 24.0009 62.2966 24.3672 62.2966 23.8178C62.1134 22.5359 63.7616 23.2684 63.7616 22.1696C62.846 22.3527 62.846 21.8033 62.6628 21.0708C61.0147 21.9865 58.634 21.9865 57.5352 23.2684C57.9015 23.2684 58.0846 23.6346 58.0846 24.3672C59.5496 24.5503 60.6484 22.9021 61.1978 24.7334C59.3665 26.0153 56.9858 26.5647 54.7882 27.4804C54.7882 27.1141 54.7882 26.3816 54.2388 26.3816C54.2388 26.7479 54.2389 27.1141 53.8726 26.931C54.2389 27.8466 52.7738 29.3117 52.7738 28.0298C52.7738 27.4804 53.3232 27.1141 53.8726 26.931C53.8726 26.5647 53.8726 26.3816 54.2388 26.3816C54.422 25.8322 54.9714 25.6491 55.3376 25.2828C55.887 24.184 57.3521 26.0153 58.0846 24.3672C57.5352 24.184 57.3521 23.8178 57.5352 23.2684C56.0702 23.6346 54.7882 24.0009 53.8726 24.7334C54.0557 24.7334 54.422 25.2828 53.8726 25.2828V24.7334C52.5907 25.0997 52.4075 24.5503 51.675 24.3672C48.9281 27.2972 44.7161 28.7623 40.1378 30.0442C38.6728 28.5792 38.8559 26.1985 38.4897 24.7334C38.4897 25.0997 38.1234 25.4659 37.9403 24.7334C35.9258 22.9021 36.109 18.507 33.1789 17.4082C33.1789 18.3239 33.5452 19.4227 32.6295 19.6058C32.6295 18.1407 32.4464 17.042 31.7139 16.3094C31.5307 17.2251 31.897 18.3239 31.1645 18.507C31.5307 16.8588 30.2488 16.8588 30.6151 15.3938C29.8826 15.2107 30.4319 13.7456 29.5163 13.7456C28.7838 14.1119 29.5163 15.7601 28.4175 15.9432C23.8393 15.9432 24.2055 20.1552 19.9935 18.507C20.1767 19.7889 19.8104 20.7046 18.5285 20.5214C17.6128 21.6202 16.6972 20.1552 15.7815 21.6202C17.9791 26.1985 18.8948 32.0586 21.6417 35.9044C22.7405 35.5381 22.3742 36.82 23.1067 37.0031C23.473 35.355 22.008 34.8056 23.6561 34.2562C23.6561 35.1718 24.2055 35.7212 24.7549 35.9044V33.7068C24.2055 33.7068 23.473 32.9743 24.2055 32.7911C24.5718 32.7911 24.938 33.1574 24.7549 33.7068C26.0368 33.5237 24.5718 36.2706 26.4031 35.355C26.5862 34.6225 25.6706 32.608 26.9525 32.7911C26.9525 34.4393 27.685 35.5381 28.4175 36.4538V34.8056C28.2344 34.8056 27.8681 34.4393 28.4175 34.2562C28.9669 33.1574 26.5862 32.0586 27.8681 31.6924C29.5163 32.4249 29.6994 34.6224 30.6151 35.9044C29.5163 35.7212 29.3332 36.4538 28.4175 36.4538C28.4175 36.82 28.4175 37.5525 27.8681 37.5525C27.3187 36.82 27.5019 35.5381 26.4031 35.355C26.22 36.4538 26.9525 36.4538 26.9525 37.5525C27.1356 38.285 27.5019 37.3694 26.9525 37.5525H26.4031C26.5862 38.8344 25.6706 39.2007 24.2055 39.0176C24.2055 39.3838 23.8393 39.7501 23.6561 39.0176C22.7405 41.2151 20.5429 42.1308 18.5285 43.2296C18.3454 43.5958 18.3454 43.9621 17.9791 43.7789C16.8803 44.6946 15.2322 46.3428 14.3165 44.3283C8.27321 49.0897 -5.09528 56.7812 2.04679 66.4871C1.86366 66.8533 1.4974 67.4027 1.4974 68.1352C3.51183 68.6846 4.42748 70.5159 4.24435 73.2629C6.25878 73.6291 4.61061 70.1497 6.80817 70.6991C5.70939 72.5304 8.09008 72.5304 8.45634 74.3617C8.45634 73.9954 8.45634 73.446 9.00573 73.2629C8.8226 73.8123 9.00573 74.3617 8.45634 74.3617V75.4604C9.00573 74.9111 9.55512 74.9111 9.55512 76.0098C13.0346 81.87 17.2466 86.8145 22.7405 90.6602C22.7405 90.294 23.2899 90.294 23.6561 90.294C26.5862 93.2241 29.6994 95.971 34.2777 97.0698C66.5086 116.848 128.406 113.185 157.158 91.2096C161.004 90.4771 163.567 85.7157 166.681 86.082C167.596 84.0676 168.878 82.2363 171.442 81.87C171.442 80.9544 171.259 80.2218 171.991 80.2218C171.991 79.8556 171.991 79.4893 172.541 79.6724C172.724 77.658 174.189 80.0387 174.555 78.0243C174.006 78.2074 174.189 77.2917 174.555 78.0243C176.203 77.2917 176.936 75.4604 177.668 73.8123C177.119 73.9954 177.485 73.0798 177.668 73.8123C178.218 73.446 178.584 72.8966 178.767 72.3472C178.401 72.1641 178.218 71.7978 178.218 71.2485H178.767C178.767 70.8822 179.133 70.6991 179.317 71.2485C178.767 69.234 184.627 63.0076 180.415 62.2751C180.965 60.81 181.514 59.5281 180.965 58.0631C179.5 58.2462 181.331 55.133 179.866 55.4993C179.5 56.4149 178.95 55.4993 178.218 55.4993C177.485 56.9643 175.288 58.7956 177.119 60.0775C175.471 59.8944 175.105 60.9932 174.006 61.1763C173.823 62.4582 175.105 61.9088 175.105 62.8245C173.09 63.0076 172.175 63.1907 171.442 65.3883C171.625 65.3883 171.991 65.9377 171.442 65.9377C171.442 66.3039 171.259 66.6702 170.893 66.4871C170.893 66.8533 170.71 67.0365 170.343 67.0365C170.343 67.4027 170.343 67.5859 169.794 67.5859C169.794 67.9521 169.794 68.1352 169.244 68.1352C169.244 68.3184 169.244 68.6846 168.695 68.6846C168.695 68.8678 168.329 69.234 168.146 68.6846C166.498 69.234 165.033 70.3328 163.934 71.7978C164.3 71.7978 164.666 72.1641 163.934 72.3472V71.7978C163.384 71.7978 163.018 72.5304 163.018 71.2485C162.469 71.2485 162.286 70.8822 161.919 70.6991C161.919 71.2485 161.004 71.4316 160.821 70.6991C160.637 70.6991 160.271 70.3328 160.821 70.1497C161.004 69.6003 160.821 69.234 160.271 69.0509C158.989 70.1497 158.806 72.5304 156.609 72.8966C156.059 72.1641 156.425 71.981 156.609 71.2485C154.411 71.2485 155.327 74.5448 152.946 74.3617V73.2629C152.58 73.2629 152.397 72.8966 151.847 72.8966C150.382 74.9111 146.353 74.7279 145.071 77.1086C144.339 77.2917 145.071 77.658 145.071 77.1086C139.028 78.5737 129.139 83.5182 120.166 85.5326V84.4338C119.433 84.0676 118.884 86.4482 118.701 84.9832C119.433 84.0676 119.616 82.7856 120.715 82.2363V83.335C123.279 82.7856 123.462 76.9255 125.476 77.4749C126.026 77.4749 126.026 77.1086 126.575 77.1086C126.392 74.7279 126.941 72.8966 128.223 71.7978C128.223 71.4316 128.223 71.0653 128.59 71.2485C128.407 69.4172 128.773 68.3184 130.787 68.6846C130.238 67.0365 130.421 66.6702 131.886 65.9377C131.703 66.6702 131.703 69.7834 132.435 68.1352V65.3883C131.886 65.3883 131.703 64.4726 132.435 64.2895V65.3883C133.168 64.6558 134.084 61.1763 132.985 60.6269C136.464 56.7812 130.97 45.7934 130.787 40.6657C130.787 41.3983 130.97 42.6802 130.238 42.6802C129.505 38.4682 128.04 34.9887 126.575 31.6924C148.185 34.0731 168.329 41.5814 182.979 53.8511H185.177C187.008 55.8655 188.107 58.6125 189.938 60.6269C190.671 58.7956 190.854 62.092 191.953 61.7257C191.769 57.88 192.502 55.3161 193.601 50.7379C192.136 47.6247 190.304 43.4127 190.854 40.1163H189.938C189.023 40.4826 189.938 40.6657 189.938 40.1163C189.938 39.567 190.854 39.7501 190.854 39.0176C190.121 38.6513 189.206 38.285 189.389 37.0031C187.191 36.2706 189.023 34.2562 187.191 33.7068C186.459 34.0731 187.191 34.4393 187.191 33.7068C187.008 33.3405 186.825 32.7911 186.092 32.7911C186.092 34.0731 184.444 32.7911 184.627 32.2418C184.261 32.2418 183.895 32.0586 184.078 31.6924C184.444 31.6924 184.627 31.6924 184.627 32.2418H185.726C185.36 30.7767 182.979 31.3261 182.979 29.4948C181.331 30.0442 182.247 28.5792 182.979 28.5792C182.979 28.2129 183.162 27.8466 183.529 28.0298C183.529 27.1141 183.895 26.5647 184.627 26.3816C184.444 25.8322 185.36 26.0153 184.627 26.3816C184.627 27.2972 184.261 27.8466 183.529 28.0298C183.529 28.396 183.529 28.5792 182.979 28.5792V29.4948C186.276 26.3816 190.671 21.4371 191.403 17.4082C191.403 17.7745 191.403 18.1407 190.854 17.9576C190.121 18.3239 191.037 18.6901 190.854 17.9576C190.854 17.5914 191.037 17.4082 191.403 17.4082V16.3094C189.938 16.4926 189.755 15.2107 188.29 15.3938C188.656 16.1263 187.191 17.5914 187.191 16.3094C187.374 15.7601 187.741 15.5769 188.29 15.3938V14.295C187.557 13.1962 186.276 12.83 186.092 11.1818C179.317 13.1962 178.584 21.4371 172.907 24.7334C172.907 26.0153 171.076 24.7334 170.893 24.3672C171.442 24.3672 171.808 24.184 171.991 23.8178C170.893 23.8178 170.893 23.0853 169.794 23.2684C170.16 23.6346 170.526 24.184 169.794 24.3672C168.695 23.4515 167.047 23.2684 166.131 22.1696C164.849 22.3527 163.934 21.9865 163.567 21.0708C161.187 20.3383 158.623 19.972 157.158 18.507C158.44 17.042 159.172 15.0275 159.722 12.6468C157.89 13.9288 158.074 17.2251 156.059 18.507C156.059 18.8733 156.059 19.6058 155.51 19.6058C155.693 19.0564 155.51 18.507 156.059 18.507V16.8588C155.693 16.8588 155.51 16.8588 155.51 16.3094C154.411 16.3094 155.693 14.4781 156.059 14.295C156.059 13.5625 156.792 13.9288 156.059 14.295C156.059 15.2107 156.059 15.9432 155.51 16.3094C155.876 16.4926 156.242 16.4926 156.059 16.8588H156.609C157.158 14.4781 158.257 12.6468 159.722 11.1818C159.722 10.4493 160.637 10.8155 159.722 11.1818V12.6468C161.37 11.3649 161.553 9.16737 160.821 6.96981H159.355C159.172 7.33607 158.623 7.33607 158.257 7.33607C158.074 8.06859 158.074 8.61798 157.158 8.43485C157.341 7.88546 157.707 7.70233 158.257 7.33607C158.623 5.50477 157.158 5.13851 158.257 4.22286C156.059 4.03973 154.045 3.8566 154.045 1.65904C151.664 2.02529 151.847 -0.172264 149.833 0.0108647C146.353 4.40599 144.522 10.6324 141.409 15.3938C139.761 15.3938 138.112 13.9288 137.563 15.9432C138.662 15.9432 140.31 15.3938 139.761 16.8588C139.028 17.2251 137.014 16.3094 137.197 17.4082C138.296 18.507 138.662 17.2251 140.31 17.4082C140.31 17.042 140.31 16.3094 140.859 16.3094C140.676 15.7601 141.592 16.1263 140.859 16.3094C140.676 16.8588 140.859 17.4082 140.31 17.4082C140.31 18.3239 139.944 18.8733 139.211 19.0564C138.479 18.1407 136.647 18.507 136.098 17.4082C136.098 17.7745 135.549 17.9576 135.549 17.4082H136.098C136.098 17.042 136.647 16.8588 136.647 16.3094H134.999C134.999 17.042 134.816 17.5914 133.9 17.4082C133.9 16.8588 134.45 16.8588 134.45 16.3094C133.9 16.3094 134.084 15.3938 133.9 14.8444C134.267 15.7601 138.662 15.5769 136.647 14.295C135.365 15.2107 132.802 13.1962 130.787 13.1962V14.295C131.153 14.295 131.337 14.295 131.337 14.8444C132.069 14.8444 133.168 14.6613 132.985 15.9432C132.069 14.6613 131.153 16.8588 131.337 14.8444C130.97 14.8444 130.604 14.6613 130.787 14.295H129.688C131.153 15.3938 128.04 15.9432 127.674 15.3938C127.857 16.4926 126.941 16.3094 126.026 16.3094C126.392 15.9432 126.575 15.5769 126.575 14.8444C125.66 14.4781 123.462 15.5769 124.011 13.7456C124.378 14.1119 127.125 15.2107 126.575 13.1962C126.026 11.7312 124.378 13.3794 123.462 13.1962C123.462 14.1119 123.096 14.6613 122.363 14.8444C122.729 13.3794 119.799 15.2107 120.166 13.7456C120.898 13.7456 121.264 13.5625 121.264 13.1962C119.983 12.0975 120.166 12.4637 118.151 12.6468C117.236 14.4781 119.983 13.0131 119.799 14.295C118.334 14.295 117.236 14.295 117.052 13.1962C116.32 12.0975 113.939 12.6468 112.84 11.5481C113.024 5.50477 114.672 3.12408 109.727 0.560255C109.727 1.10964 109.544 1.47591 109.178 1.65904C109.178 1.84217 108.812 2.20843 108.628 1.65904H109.178ZM158.257 10.083C158.074 9.3505 158.989 9.71676 158.257 10.083C156.609 10.083 158.806 12.2806 158.257 10.083ZM156.609 10.6324C156.609 9.89989 157.341 10.2662 156.609 10.6324C154.96 10.6324 157.158 12.83 156.609 10.6324ZM157.158 12.0975C156.975 11.9143 157.524 12.4637 157.158 12.0975V12.0975ZM154.96 13.1962C155.693 11.1818 155.693 15.2107 154.96 13.1962V13.1962ZM156.609 13.1962C156.425 13.0131 156.975 13.5625 156.609 13.1962V13.1962ZM115.404 13.7456C114.855 13.7456 115.221 13.0131 115.404 13.7456C115.587 15.3938 117.602 13.1962 115.404 13.7456ZM114.489 13.7456C114.489 14.295 113.756 14.1119 113.39 14.295C113.39 13.7456 113.939 13.9288 114.489 13.7456ZM117.602 14.8444C117.602 15.3938 116.869 15.2107 116.503 15.3938C116.503 14.8444 117.236 14.8444 117.602 14.8444ZM118.701 15.3938C118.517 15.0275 119.067 15.7601 118.701 15.3938V15.3938ZM121.264 15.3938C119.433 13.7456 119.616 17.2251 121.264 15.3938V15.3938ZM124.011 16.3094C123.462 15.9432 122.729 15.7601 121.814 15.9432C121.631 14.8444 124.744 14.8444 124.011 16.3094ZM124.927 15.9432C124.744 15.5769 125.293 16.1263 124.927 15.9432V15.9432ZM154.045 15.9432C153.862 15.5769 154.411 16.1263 154.045 15.9432V15.9432ZM99.1057 16.3094C98.9226 16.1263 99.472 16.6757 99.1057 16.3094V16.3094ZM133.351 16.8588C133.534 17.7745 130.055 17.9576 130.787 16.3094C132.252 15.9432 132.069 17.042 133.351 16.8588ZM152.946 17.4082C152.763 17.2251 153.312 17.7745 152.946 17.4082V17.4082ZM154.594 17.4082C154.228 17.2251 154.777 17.7745 154.594 17.4082V17.4082ZM189.389 17.4082C189.023 17.2251 189.755 17.7745 189.389 17.4082V17.4082ZM27.8681 21.0708C27.1356 20.1552 26.7693 18.8733 26.4031 17.4082C28.0513 17.5914 27.8681 19.6058 27.8681 21.0708C28.6006 21.0708 28.2344 21.9865 27.8681 21.0708ZM29.5163 17.9576C28.9669 17.9576 29.15 17.2251 29.5163 17.9576C28.9669 21.9865 31.1645 19.6058 29.5163 17.9576ZM89.5829 19.0564C90.3155 16.8588 90.3155 21.0708 89.5829 19.0564V19.0564ZM154.045 19.0564C153.862 18.8733 154.411 19.4227 154.045 19.0564V19.0564ZM84.8216 20.5214C84.8216 19.0564 86.1035 19.0564 87.5685 19.0564C87.7516 20.7046 85.7372 20.1552 84.8216 20.5214ZM189.389 19.6058C189.023 19.2395 189.755 19.972 189.389 19.6058V19.6058ZM88.6673 20.1552C89.2167 17.9576 89.2167 22.1696 88.6673 20.1552V20.1552ZM156.609 20.1552C156.425 19.7889 156.975 20.3383 156.609 20.1552V20.1552ZM33.1789 20.5214C32.9958 20.3383 33.5452 20.8877 33.1789 20.5214V20.5214ZM76.3976 20.5214C76.2144 20.3383 76.7638 20.8877 76.3976 20.5214V20.5214ZM81.159 20.5214C80.9758 20.3383 81.5252 20.8877 81.159 20.5214V20.5214ZM75.8482 21.6202C75.6651 21.4371 76.2145 21.9865 75.8482 21.6202V21.6202ZM187.741 21.6202C187.557 21.4371 188.107 21.9865 187.741 21.6202V21.6202ZM80.2433 22.1696C79.8771 21.9865 80.4264 22.5359 80.2433 22.1696V22.1696ZM62.2966 22.1696C62.2966 22.719 61.5641 22.5359 61.1978 22.719C61.1978 22.1696 61.7472 22.3527 62.2966 22.1696ZM163.567 22.719C163.201 22.5359 163.751 23.0853 163.567 22.719V22.719ZM76.947 22.719C76.947 23.2684 76.3976 23.0853 75.8482 23.2684C76.0313 22.719 76.5807 22.9021 76.947 22.719ZM155.51 23.2684C155.327 23.0853 155.876 23.6346 155.51 23.2684V23.2684ZM73.8338 23.8178C73.6506 23.6346 74.2 24.184 73.8338 23.8178V23.8178ZM157.707 23.8178C156.975 23.8178 157.341 23.0853 157.707 23.8178C157.707 25.2828 159.905 23.2684 157.707 23.8178ZM79.1445 24.3672C78.9614 24.0009 79.5108 24.5503 79.1445 24.3672V24.3672ZM166.681 24.3672C166.314 25.2828 165.765 24.3672 165.033 24.3672C165.399 23.2684 165.948 24.184 166.681 24.3672ZM160.821 25.2828C160.637 25.0997 161.187 25.6491 160.821 25.2828V25.2828ZM61.7472 25.8322C61.564 25.6491 62.1134 26.1985 61.7472 25.8322V25.8322ZM73.8338 25.8322C73.6506 25.6491 74.2 26.1985 73.8338 25.8322V25.8322ZM60.6484 26.3816C60.4653 26.1985 61.0147 26.7479 60.6484 26.3816V26.3816ZM70.1712 26.931C69.988 26.7479 70.5374 27.2972 70.1712 26.931V26.931ZM51.675 27.4804C51.4919 27.2972 52.0413 27.8466 51.675 27.4804V27.4804ZM35.9258 28.0298C35.5596 27.8466 36.109 28.396 35.9258 28.0298V28.0298ZM57.5352 27.4804C57.5352 28.0298 56.8027 27.8466 56.4364 28.0298C56.4364 27.4804 56.9858 27.6635 57.5352 27.4804ZM51.1256 28.5792C51.675 26.3816 51.675 30.5936 51.1256 28.5792V28.5792ZM64.311 28.5792C63.0291 30.2273 66.1423 27.2972 64.311 28.5792V28.5792ZM35.3765 29.1285C35.1933 28.7623 35.7427 29.3117 35.3765 29.1285V29.1285ZM48.0124 29.1285C48.0124 27.4804 50.21 29.4948 48.0124 29.1285V30.5936C45.8149 29.4948 45.0823 31.8755 42.1523 31.6924C41.4197 32.0586 42.1523 32.2418 42.1523 31.6924C43.0679 29.6779 45.998 29.8611 48.0124 29.1285ZM36.8415 29.4948C36.6584 29.3117 37.2078 29.8611 36.8415 29.4948V29.4948ZM180.415 29.4948C180.965 27.4804 180.965 31.6924 180.415 29.4948V29.4948ZM48.5618 30.0442C48.3787 29.8611 48.9281 30.4105 48.5618 30.0442V30.0442ZM34.2777 32.7911C32.8126 32.9743 33.7283 30.7767 32.6295 30.5936C33.362 29.1285 34.6439 31.5092 34.2777 32.7911C34.8271 32.608 34.6439 33.5237 34.2777 32.7911ZM25.3043 31.143C25.8537 29.1285 25.8537 33.1574 25.3043 31.143V31.143ZM27.5019 31.143C27.1356 30.9598 27.685 31.5092 27.5019 31.143V31.143ZM32.0801 30.5936C32.0801 31.143 31.5307 30.9598 31.1645 31.143C31.1645 30.5936 31.7139 30.7767 32.0801 30.5936ZM37.9403 31.6924C37.7571 31.5092 38.3065 32.0586 37.9403 31.6924V31.6924ZM34.8271 32.2418C34.6439 32.0586 35.1933 32.608 34.8271 32.2418V32.2418ZM22.7405 32.7911C22.3742 32.4249 22.9236 33.1574 22.7405 32.7911V32.7911ZM181.331 33.3405C181.148 32.9743 181.697 33.5237 181.331 33.3405V33.3405ZM22.7405 33.7068C22.5574 33.1574 23.473 33.5237 22.7405 33.7068C21.8248 34.0731 22.7405 34.4393 22.7405 33.7068ZM37.9403 33.7068C37.7571 33.5237 38.3065 34.0731 37.9403 33.7068V33.7068ZM32.6295 34.2562C32.6295 33.7068 33.5452 34.0731 32.6295 34.2562C31.897 34.6224 32.8126 34.9887 32.6295 34.2562ZM35.3765 34.8056C35.3765 34.0731 36.8415 34.6225 36.8415 33.7068C38.1234 33.8899 37.2078 36.0875 36.8415 36.4538C35.9258 36.4538 36.4752 34.6224 35.3765 34.8056ZM184.078 34.8056C184.627 32.7911 184.627 37.0031 184.078 34.8056V34.8056ZM34.2777 35.9044C33.5452 35.9044 33.9114 35.1718 34.2777 35.9044C34.0945 38.285 36.2921 36.0875 34.2777 35.9044ZM81.159 35.9044C81.159 35.1718 81.8915 35.5381 81.159 35.9044C80.4264 36.2706 81.3421 36.4538 81.159 35.9044ZM32.6295 36.4538C32.4464 36.2706 32.9958 36.82 32.6295 36.4538V36.4538ZM79.1445 36.4538C78.9614 36.2706 79.5108 36.82 79.1445 36.4538V36.4538ZM35.3765 82.2363C28.0513 78.7568 19.0779 76.7424 15.7815 69.0509C31.5307 53.3017 52.9569 43.4127 77.4964 36.4538C75.4819 38.1019 74.3831 40.6657 72.735 42.6802C74.0169 42.8633 72.9181 44.5115 72.1856 44.3283C72.1856 45.244 71.8193 45.6103 71.2699 45.9765C71.8193 47.0753 67.7905 47.0753 67.4242 50.1885H67.058C67.058 50.921 66.3254 51.4704 65.9592 50.7379C65.5929 50.7379 65.2266 51.1041 65.4098 51.6535C66.5086 52.3861 64.1279 56.0487 62.6628 54.4005C63.2122 55.8655 63.2122 56.598 62.6628 58.0631C63.3953 58.0631 63.3954 57.3306 64.311 57.5137C64.1279 58.2462 63.3954 58.4294 63.2122 59.1619C62.846 58.9787 62.6628 58.6125 62.6628 58.0631C61.7472 58.9787 62.1134 58.0631 60.6484 58.0631C57.7183 67.0365 57.3521 76.5592 60.099 86.4482C58.2677 86.9976 58.0846 85.7157 56.4364 86.082C56.6195 86.4482 56.8027 86.6314 57.5352 86.4482C49.6606 85.8989 43.0679 81.87 35.9258 82.2363C35.9258 82.6025 35.3765 82.9688 35.3765 82.2363ZM186.642 37.0031C186.092 37.0031 186.459 36.2706 186.642 37.0031C187.008 37.7357 187.374 36.82 186.642 37.0031ZM30.6151 37.5525C30.6151 35.9044 32.8126 37.9188 30.6151 37.5525C30.4319 37.9188 30.0657 38.1019 29.5163 37.9188C27.1356 37.3694 30.0657 40.4826 29.5163 37.9188C29.6994 37.5525 29.8826 37.3694 30.6151 37.5525ZM78.5951 37.5525C78.412 37.1863 78.9614 37.7357 78.5951 37.5525V37.5525ZM76.3976 40.1163C76.3976 38.8344 77.3132 38.4682 77.4964 37.5525C78.9614 37.9188 76.947 39.3838 76.947 40.1163H76.3976C76.3976 40.4826 76.3976 40.6657 75.8482 40.6657C75.8482 41.032 75.8482 41.2151 75.4819 41.2151C73.2844 41.3983 75.4819 43.4127 75.4819 41.2151C75.4819 40.8489 75.4819 40.4826 75.8482 40.6657C76.0313 40.2995 76.0313 39.9332 76.3976 40.1163ZM26.9525 39.567C26.9525 38.8344 28.2344 37.9188 27.8681 39.567C28.2344 39.567 28.6006 39.7501 28.4175 40.1163C28.7838 40.8489 29.15 40.1163 28.4175 40.1163C28.2344 40.1163 27.8681 40.1163 27.8681 39.567H26.9525V40.6657C27.1356 40.6657 27.5019 41.032 26.9525 41.2151C26.7693 41.5814 26.4031 41.7645 25.8537 41.7645C25.6706 42.3139 25.3043 42.497 24.7549 42.6802C24.5718 43.2296 24.3887 43.4127 23.6561 43.2296C23.6561 43.7789 23.2899 43.9621 22.7405 43.7789C22.5574 44.1452 22.5574 44.5115 22.1911 44.3283C22.1911 44.6946 22.008 44.8777 21.6417 44.8777C20.9092 45.244 21.6417 45.4271 21.6417 44.8777C21.6417 44.5115 21.6417 44.3283 22.1911 44.3283C22.1911 43.9621 22.1911 43.7789 22.7405 43.7789V43.2296C21.6417 43.2296 21.4586 43.9621 20.5429 43.7789C20.9092 42.497 22.9236 42.6802 23.1067 41.2151C24.7549 41.7645 22.5574 42.497 22.7405 43.2296H23.6561C23.8393 42.8633 24.2055 42.6802 24.7549 42.6802V41.7645C24.5718 41.7645 24.2055 41.2151 24.7549 41.2151C24.7549 40.8489 24.938 40.4826 25.3043 40.6657C25.4874 39.9332 26.4031 40.1163 26.9525 39.567ZM19.4441 45.4271C19.261 45.244 19.8104 45.7934 19.4441 45.4271V45.4271ZM73.2844 45.4271C73.1012 45.244 73.6506 45.7934 73.2844 45.4271V45.4271ZM17.4297 45.9765C18.1622 47.6247 18.7116 43.7789 17.4297 45.9765V45.9765ZM111.742 52.7523C112.657 51.1042 113.024 54.7668 111.742 52.7523V52.7523ZM111.742 54.4005C111.559 54.2174 112.108 54.7668 111.742 54.4005V54.4005ZM84.4553 76.0098C87.2022 65.5714 93.9781 59.1619 102.768 54.9499C102.951 58.4294 101.12 60.2607 100.754 63.3739C94.1612 66.4871 94.3443 76.3761 84.4553 76.0098ZM64.8604 55.8655C64.6773 55.6824 65.2267 56.2318 64.8604 55.8655V55.8655ZM177.668 57.5137C178.401 55.4993 178.401 59.5281 177.668 57.5137V57.5137ZM88.6673 59.1619C88.301 58.7956 88.8504 59.5281 88.6673 59.1619V59.1619ZM132.985 59.1619C133.534 56.9643 133.534 61.1763 132.985 59.1619V59.1619ZM90.6817 59.7113C90.4986 59.345 91.048 59.8944 90.6817 59.7113V59.7113ZM62.2966 60.0775C62.846 58.0631 62.846 62.2751 62.2966 60.0775V60.0775ZM87.5685 60.0775C87.3854 59.8944 87.9348 60.4438 87.5685 60.0775V60.0775ZM61.7472 61.7257C60.4653 63.557 63.3953 60.4438 61.7472 61.7257V61.7257ZM86.4697 61.7257C86.2866 61.5426 86.836 62.092 86.4697 61.7257V61.7257ZM87.5685 62.8245C87.3854 62.6413 87.9348 63.1907 87.5685 62.8245V62.8245ZM61.1978 63.9233V62.8245H62.2966V63.9233H61.1978ZM84.8216 63.3739C84.8216 62.6413 85.7372 63.0076 84.8216 63.3739C84.089 63.557 85.0047 63.9233 84.8216 63.3739ZM86.4697 63.9233C86.4697 63.1907 87.2023 63.557 86.4697 63.9233C85.7372 64.1064 86.4697 64.4726 86.4697 63.9233ZM172.541 64.8389C172.175 64.6558 172.724 65.2052 172.541 64.8389V64.8389ZM59.0002 68.1352C58.8171 67.769 59.3665 68.5015 59.0002 68.1352V68.1352ZM128.223 68.1352C127.857 67.769 128.407 68.5015 128.223 68.1352V68.1352ZM165.033 71.7978C164.849 71.6147 165.399 72.1641 165.033 71.7978V71.7978ZM167.23 71.7978C167.047 71.6147 167.596 72.1641 167.23 71.7978V71.7978ZM159.355 73.2629C157.89 73.0798 159.172 71.2485 160.271 71.7978C160.088 72.5304 159.355 72.5304 159.355 73.2629ZM161.919 72.8966C161.736 72.5304 162.286 73.0798 161.919 72.8966V72.8966ZM156.609 73.8123C157.341 75.6436 157.89 71.7978 156.609 73.8123V73.8123ZM161.37 73.8123C159.172 74.3617 161.187 72.3472 161.37 73.8123C161.736 74.7279 162.102 73.8123 161.37 73.8123ZM151.847 74.3617C151.298 74.3617 151.481 73.6292 151.847 74.3617C152.213 75.0942 152.58 74.3617 151.847 74.3617ZM157.707 75.4604C157.524 75.2773 158.074 75.8267 157.707 75.4604V75.4604ZM148.185 76.0098C148.001 75.8267 148.551 76.3761 148.185 76.0098V76.0098ZM153.495 76.0098C153.495 75.2773 154.228 75.6436 153.495 76.0098C152.763 76.3761 153.495 76.5592 153.495 76.0098ZM156.059 77.1086C154.411 76.5592 156.609 76.0098 156.609 75.4604C158.44 76.0098 156.059 76.5592 156.059 77.1086ZM175.654 76.0098C175.471 75.2773 176.387 75.6436 175.654 76.0098C174.922 76.3761 175.654 76.5592 175.654 76.0098ZM146.536 78.0243C146.353 77.8411 146.903 78.3905 146.536 78.0243V78.0243ZM152.946 78.0243C152.763 77.8411 153.312 78.3905 152.946 78.0243V78.0243ZM144.522 78.5737C144.339 78.3905 144.888 78.9399 144.522 78.5737V78.5737ZM148.734 78.5737C148.734 78.0243 149.466 78.2074 148.734 78.5737C148.001 78.9399 148.734 79.3062 148.734 78.5737ZM121.814 79.123C122.546 80.9544 123.096 77.1086 121.814 79.123V79.123ZM149.283 80.2218C149.1 80.0387 149.65 80.5881 149.283 80.2218V80.2218ZM120.715 81.3206C121.448 82.9688 121.997 79.123 120.715 81.3206V81.3206ZM142.324 81.87C142.141 81.5037 142.691 82.0531 142.324 81.87V81.87ZM133.9 82.2363C133.717 82.0531 134.267 82.6025 133.9 82.2363V82.2363ZM136.098 82.2363C135.915 82.0531 136.464 82.6025 136.098 82.2363V82.2363ZM37.3909 82.7857C37.3909 83.335 36.8415 83.335 36.2921 83.335C36.4752 82.7856 37.0246 82.9688 37.3909 82.7857ZM45.2655 84.9832C45.6317 84.8001 43.8004 84.4338 43.8004 84.4338C43.6173 83.5182 46.5474 83.7013 45.2655 84.9832ZM131.337 84.4338C131.153 84.2507 131.703 84.8001 131.337 84.4338V84.4338ZM60.6484 86.4482C60.4653 86.2651 61.0147 86.8145 60.6484 86.4482V86.4482ZM59.0002 86.9976C59.0002 87.547 58.4508 87.547 58.0846 87.547C58.0846 86.9976 58.634 87.1808 59.0002 86.9976ZM126.575 90.294C126.392 89.9277 126.941 90.4771 126.575 90.294V90.294ZM128.223 90.294C127.857 89.9277 128.407 90.4771 128.223 90.294V90.294ZM152.397 91.2096C152.58 90.6602 153.129 90.1108 154.045 90.294C153.678 90.8434 153.312 91.3928 152.397 91.2096ZM150.748 91.759C150.748 91.2096 151.664 91.3928 150.748 91.759C150.016 92.1253 150.932 92.4915 150.748 91.759ZM145.071 94.506C144.888 94.1397 145.438 94.8722 145.071 94.506V94.506ZM132.435 99.6336C132.252 99.0842 133.168 99.4505 132.435 99.6336C132.069 100.366 131.153 100.732 130.238 100.732C130.421 99.8167 131.153 99.6336 132.435 99.6336ZM126.026 101.831C125.843 101.648 126.392 102.197 126.026 101.831V101.831ZM124.011 103.479C123.828 103.846 123.279 103.846 122.913 103.846C122.913 103.479 123.462 103.479 124.011 103.479ZM67.058 105.494C66.6917 105.311 67.2411 105.86 67.058 105.494V105.494ZM100.204 106.593C100.021 106.409 100.571 106.959 100.204 106.593V106.593ZM101.853 106.593C101.486 106.409 102.036 106.959 101.853 106.593V106.593ZM84.4553 107.142C84.089 106.959 84.6384 107.508 84.4553 107.142V107.142ZM88.6673 107.142C88.301 106.959 88.8504 107.508 88.6673 107.142V107.142ZM95.4431 106.593C95.4431 107.691 93.2455 106.776 92.3299 107.142C92.3299 105.86 94.5275 106.959 95.4431 106.593ZM98.0069 107.142C97.8238 106.959 98.3732 107.508 98.0069 107.142V107.142ZM89.5829 108.241C89.3998 107.874 89.9492 108.424 89.5829 108.241V108.241ZM95.9925 108.241C95.8094 107.874 96.3588 108.424 95.9925 108.241V108.241ZM97.6407 108.241C97.2744 107.874 97.8238 108.424 97.6407 108.241V108.241ZM154.045 1.65904C153.862 0.926516 154.777 1.29278 154.045 1.65904V1.65904ZM68.523 5.32163C67.9736 3.12408 70.1712 5.13851 68.523 5.32163V5.32163ZM159.355 6.96981C158.623 6.96981 158.989 6.05416 159.355 6.96981V6.96981ZM187.191 10.6324C187.008 10.4493 187.557 10.9987 187.191 10.6324V10.6324ZM113.939 11.5481C113.756 11.3649 114.305 11.9143 113.939 11.5481V11.5481ZM74.3831 14.8444C74.3831 13.3794 74.5663 11.7312 73.2844 11.5481C73.2844 13.0131 73.6506 14.1119 74.3831 14.8444ZM31.7139 13.1962C31.3476 13.0131 31.897 13.5625 31.7139 13.1962V13.1962ZM117.052 13.1962C117.052 12.6468 117.785 12.83 117.052 13.1962V13.1962ZM123.462 13.1962V12.6468C122.363 12.4637 121.814 12.83 121.814 13.7456C122.729 13.9288 122.729 13.1962 123.462 13.1962ZM128.59 13.7456C126.575 14.295 128.59 12.0975 128.59 13.7456V13.7456ZM188.839 13.7456C188.656 13.5625 189.206 14.1119 188.839 13.7456V13.7456ZM32.0801 14.295C31.7139 17.4082 32.4464 12.0975 32.0801 14.295V14.295ZM128.59 13.7456C128.773 14.295 129.322 14.1119 129.688 14.295C129.688 13.7456 129.139 13.9288 128.59 13.7456ZM31.1645 15.3938C31.1645 14.1119 30.4319 14.4781 30.6151 15.3938H31.1645ZM92.3299 14.8444C92.6962 14.6613 93.2455 14.8444 93.4287 14.295C92.8793 14.4781 92.3299 14.295 92.3299 14.8444ZM93.7949 14.8444C94.3443 14.6613 94.8937 14.8444 94.8937 14.295C94.5275 14.4781 93.7949 14.295 93.7949 14.8444ZM74.3831 14.8444C74.7494 15.5769 74.9325 14.6613 74.3831 14.8444V14.8444ZM84.8216 15.3938C84.6384 15.0275 85.1878 15.7601 84.8216 15.3938V15.3938ZM89.0335 15.3938V14.8444C88.1179 15.0275 87.0191 15.0275 86.4697 15.9432C88.1179 16.4926 87.9348 16.1263 89.0335 15.3938ZM127.674 15.3938C126.941 15.3938 127.308 14.4781 127.674 15.3938V15.3938ZM31.1645 15.3938C30.9813 15.9432 31.1645 16.3094 31.7139 16.3094C31.7139 15.7601 31.5307 15.3938 31.1645 15.3938ZM33.1789 15.9432C33.1789 15.2107 33.9114 15.5769 33.1789 15.9432V15.9432ZM83.3565 15.9432C83.9059 13.7456 83.9059 17.9576 83.3565 15.9432V15.9432ZM89.0335 15.3938C89.3998 16.1263 89.7661 15.2107 89.0335 15.3938V15.3938ZM33.1789 15.9432C31.7139 15.9432 33.7283 17.9576 33.1789 15.9432V15.9432ZM84.4553 16.3094C84.8216 16.3094 85.3709 16.3094 85.3709 15.9432C85.0047 15.9432 84.4553 15.9432 84.4553 16.3094ZM86.4697 15.9432C85.7372 16.1263 86.4697 16.4926 86.4697 15.9432V15.9432ZM92.3299 16.3094C92.1468 16.1263 92.6962 16.6757 92.3299 16.3094V16.3094ZM134.45 16.3094H134.999C134.816 15.7601 134.45 16.1263 134.45 16.3094ZM89.0335 16.8588C89.5829 16.8588 90.1323 16.8588 90.1323 16.3094C89.7661 16.4926 89.2167 16.3094 89.0335 16.8588ZM79.6939 17.9576C78.0458 16.3094 83.1734 16.8588 79.6939 17.9576V17.9576ZM88.1179 17.4082C87.3854 17.4082 87.7516 16.6757 88.1179 17.4082V17.4082ZM36.2921 18.507C34.8271 18.3239 36.8415 16.3094 36.2921 18.507V18.507ZM78.5951 17.4082C77.3132 17.2251 76.5807 17.5914 76.3976 18.507C77.4964 18.507 78.2289 18.1407 78.5951 17.4082ZM73.8338 17.9576C73.2844 19.0564 74.2 21.254 74.9325 19.6058C74.3832 19.4227 74.2 19.0564 74.3831 18.507C74.7494 18.3239 75.4819 18.507 75.4819 17.9576H73.8338ZM158.257 18.507C158.074 18.3239 158.623 18.8733 158.257 18.507V18.507ZM36.2921 18.507C36.6584 19.2395 37.0246 18.507 36.2921 18.507V18.507ZM159.355 19.0564C159.539 19.2395 161.37 20.3383 161.37 19.0564C160.454 19.6058 159.539 17.4082 159.355 19.0564ZM78.0457 19.6058C77.8626 19.2395 78.412 19.972 78.0457 19.6058V19.6058ZM36.2921 20.1552C37.0246 17.9576 37.0246 22.1696 36.2921 20.1552V20.1552ZM18.5285 20.5214C17.796 20.7046 18.1622 19.7889 18.5285 20.5214V20.5214ZM165.033 21.0708V20.5214C163.934 20.8877 163.384 19.0564 163.567 21.0708H165.033ZM58.4508 21.0708C58.4508 20.5214 59.3665 20.8877 58.4508 21.0708V21.0708ZM36.8415 21.0708C37.0246 22.1696 37.2078 22.9021 37.9403 23.2684C38.1234 21.9865 37.7571 21.254 36.8415 21.0708ZM58.4508 21.0708C57.7183 21.4371 58.634 21.8033 58.4508 21.0708V21.0708ZM165.033 21.0708C165.033 21.6202 165.765 21.6202 166.131 21.6202C166.131 21.0708 165.399 21.254 165.033 21.0708ZM194.15 21.0708C193.235 21.0708 192.685 21.6202 192.502 22.1696C193.418 22.1696 193.784 21.8033 194.15 21.0708ZM166.131 22.1696C167.963 22.5359 167.963 21.254 166.131 21.6202V22.1696ZM190.304 22.1696C190.304 21.6202 191.22 21.8033 190.304 22.1696V22.1696ZM168.695 22.719C168.146 22.719 168.512 21.9865 168.695 22.719V22.719ZM189.938 22.719C190.304 22.719 190.304 22.5359 190.304 22.1696C189.938 22.1696 189.938 22.3527 189.938 22.719ZM55.3376 23.2684C55.1545 23.0853 55.7039 23.6346 55.3376 23.2684V23.2684ZM168.695 22.719C168.695 23.2684 169.428 23.0853 169.794 23.2684C169.794 22.719 169.244 22.9021 168.695 22.719ZM189.938 22.719C188.29 22.9021 190.304 24.9166 189.938 22.719V22.719ZM191.403 22.719C191.586 23.2684 191.403 24.184 191.953 24.3672C191.953 24.0009 191.953 23.6346 192.502 23.8178C192.502 23.0853 192.319 22.5359 191.403 22.719ZM38.4897 24.7334C38.4897 23.4515 37.7571 24.0009 37.9403 24.7334H38.4897ZM172.907 24.7334C172.358 24.9166 172.724 24.0009 172.907 24.7334V24.7334ZM55.3376 25.2828V26.3816C56.0701 26.1985 55.887 25.2828 55.3376 25.2828ZM188.839 26.3816C189.389 24.3672 189.389 28.396 188.839 26.3816V26.3816ZM46.3643 26.931C46.1811 26.7479 46.7305 27.2972 46.3643 26.931V26.931ZM39.5884 27.4804C39.4053 27.2972 39.9547 27.8466 39.5884 27.4804V27.4804ZM40.6872 29.1285C39.0391 28.9454 41.0535 26.931 40.6872 29.1285V29.1285ZM43.251 28.5792C43.0679 28.2129 43.6173 28.9454 43.251 28.5792V28.5792ZM40.6872 29.1285C40.6872 30.5936 42.7017 28.5792 40.6872 29.1285V29.1285ZM185.726 32.2418C185.543 32.608 185.909 32.7911 186.092 32.7911C186.276 32.2418 185.909 32.2418 185.726 32.2418ZM28.4175 34.8056C29.15 34.8056 28.7838 34.2562 28.4175 34.2562V34.8056ZM189.389 35.9044C188.656 35.9044 189.023 35.1718 189.389 35.9044V35.9044ZM21.6417 35.9044C20.9092 36.2706 21.6417 36.4538 21.6417 35.9044V35.9044ZM189.389 35.9044V37.0031H189.938C189.938 36.2706 189.755 36.0875 189.389 35.9044ZM23.1067 37.0031C23.1067 37.9188 23.8393 38.1019 23.6561 39.0176H24.2055V37.5525C23.8393 37.3694 23.6561 37.0031 23.1067 37.0031ZM24.2055 37.5525H24.7549C24.7549 36.82 24.2055 37.1863 24.2055 37.5525ZM26.4031 37.5525C25.6706 37.5525 26.0368 36.6369 26.4031 37.5525V37.5525ZM189.938 37.0031C189.755 37.3694 190.121 37.3694 190.304 37.5525C190.488 37.0031 190.121 37.0031 189.938 37.0031ZM74.9325 37.9188C74.7494 37.7357 75.2988 38.285 74.9325 37.9188V37.9188ZM190.304 37.5525C190.671 38.285 191.037 37.3694 190.304 37.5525V37.5525ZM22.1911 38.4682C22.008 38.285 22.5574 38.8344 22.1911 38.4682V38.4682ZM24.7549 38.4682C24.5718 38.285 25.1212 38.8344 24.7549 38.4682V38.4682ZM190.854 39.0176C190.854 38.4682 191.769 38.6513 190.854 39.0176V39.0176ZM130.787 40.6657C129.139 39.9332 131.337 37.9188 130.787 40.6657V40.6657ZM25.3043 40.6657H26.9525V41.2151C26.22 41.032 26.0368 41.2151 25.8537 41.7645H24.7549V41.2151C25.1212 41.2151 25.4874 41.032 25.3043 40.6657ZM191.953 41.7645C191.769 41.3983 192.319 42.1308 191.953 41.7645V41.7645ZM71.2699 42.6802C70.9037 42.497 71.4531 43.0464 71.2699 42.6802V42.6802ZM17.9791 43.2296H18.5285C18.3454 42.6802 17.9791 43.0464 17.9791 43.2296ZM72.735 42.6802C72.0025 43.0464 72.735 43.4127 72.735 42.6802V42.6802ZM17.9791 43.2296C16.6972 43.2296 17.0635 43.9621 17.9791 43.7789V43.2296ZM14.3165 44.3283C14.3165 42.6802 16.3309 44.8777 14.3165 44.3283V44.3283ZM72.1856 44.3283C71.6362 44.3283 72.0025 43.5958 72.1856 44.3283V44.3283ZM71.2699 45.9765C70.5374 45.9765 70.9037 45.0609 71.2699 45.9765V45.9765ZM67.058 50.1885C67.058 48.9066 66.3254 49.2729 66.5086 50.1885H67.058ZM65.9592 50.7379C66.3254 50.5548 66.5086 50.5548 66.5086 50.1885C65.9592 50.0054 65.9592 50.3716 65.9592 50.7379ZM65.4098 51.6535C65.4098 52.0198 65.0435 52.3861 64.8604 51.6535H65.4098ZM63.7616 53.3017C63.5785 53.1186 64.1279 53.668 63.7616 53.3017V53.3017ZM182.979 54.9499C182.796 54.5836 183.346 55.3161 182.979 54.9499V54.9499ZM61.7472 56.9643C62.2966 54.9499 62.2966 59.1619 61.7472 56.9643V56.9643ZM193.051 57.5137C192.868 57.3306 193.418 57.88 193.051 57.5137V57.5137ZM180.965 58.0631C180.782 57.3306 181.697 57.6968 180.965 58.0631V58.0631ZM173.456 59.7113C173.273 59.345 173.823 59.8944 173.456 59.7113V59.7113ZM170.343 61.7257C171.076 63.0076 168.878 63.9233 170.343 64.2895C170.71 64.1064 171.625 61.9088 170.343 61.7257ZM171.991 62.2751C171.808 61.5426 172.724 61.9088 171.991 62.2751V62.2751ZM171.991 62.2751C171.076 62.6413 171.991 62.8245 171.991 62.2751V62.2751ZM99.1057 63.3739C98.9226 63.1907 99.472 63.7401 99.1057 63.3739V63.3739ZM167.779 66.4871C167.963 66.1208 170.71 65.3883 168.695 64.2895C167.779 64.6558 165.399 66.1208 164.483 68.1352C165.948 67.769 166.131 66.4871 167.779 66.4871ZM171.442 65.3883C169.611 65.3883 169.611 67.2196 168.146 67.5859V68.6846H168.695C168.878 68.3184 168.878 67.9521 169.244 68.1352C169.244 67.769 169.428 67.4027 169.794 67.5859C169.794 67.2196 169.977 66.8533 170.343 67.0365C170.343 66.6702 170.343 66.3039 170.893 66.4871C170.893 66.1208 170.893 65.9377 171.442 65.9377V65.3883ZM167.779 66.4871C167.596 67.0365 167.779 67.4027 168.146 67.5859C168.329 66.8533 168.146 66.6702 167.779 66.4871ZM161.919 68.6846C161.736 68.3184 162.286 68.8678 161.919 68.6846V68.6846ZM163.934 68.6846C164.483 68.6846 164.483 68.3184 164.483 68.1352C164.117 67.9521 164.117 68.3184 163.934 68.6846ZM165.582 68.6846C165.582 67.9521 166.314 68.3184 165.582 68.6846V68.6846ZM163.934 68.6846C163.201 68.5015 162.652 69.0509 162.469 69.6003H163.567C163.567 69.4172 163.567 69.0509 163.934 69.0509V68.6846ZM165.033 69.0509C165.582 69.234 165.582 68.8678 165.582 68.6846C165.216 68.5015 165.033 68.8678 165.033 69.0509ZM129.688 69.6003C129.505 69.4172 130.055 69.9665 129.688 69.6003V69.6003ZM163.934 69.0509C164.117 69.6003 163.751 69.6003 163.567 69.6003C163.384 70.3328 162.835 70.3328 163.018 71.2485C163.934 70.6991 164.666 69.9665 165.033 69.0509H163.934ZM162.469 69.6003C161.553 69.4172 161.553 70.1497 160.821 70.1497V70.6991H161.919C161.919 70.1497 162.286 70.1497 162.469 69.6003ZM157.707 70.6991C157.707 70.1497 158.44 70.3328 157.707 70.6991V70.6991ZM157.707 70.6991C156.975 71.0653 157.707 71.4316 157.707 70.6991V70.6991ZM128.59 71.2485C128.773 71.6147 128.407 71.7978 128.223 71.7978C128.04 73.446 130.421 71.2485 128.59 71.2485ZM178.767 71.2485V72.3472C179.317 72.3472 179.133 71.6147 179.317 71.2485H178.767ZM152.946 73.2629C153.862 73.446 154.228 72.8966 154.594 72.3472C153.678 72.3472 153.129 72.7135 152.946 73.2629ZM19.4441 73.8123C19.9935 73.8123 20.5429 73.8123 20.5429 73.2629C20.1767 73.446 19.4441 73.446 19.4441 73.8123ZM4.79374 74.3617C4.42748 74.1785 5.16 74.7279 4.79374 74.3617V74.3617ZM21.0923 74.9111C20.9092 74.7279 21.4586 75.2773 21.0923 74.9111V74.9111ZM5.70939 75.4604C5.52626 75.2773 6.07565 75.8267 5.70939 75.4604V75.4604ZM8.45634 75.4604C6.25878 74.9111 8.27321 77.1086 8.45634 75.4604V75.4604ZM6.25878 76.5592C6.07565 76.3761 6.62504 76.9255 6.25878 76.5592V76.5592ZM9.55512 76.0098C8.8226 76.0098 9.00573 76.9255 9.00573 77.4749C9.55512 77.4749 9.37199 76.5592 9.55512 76.0098ZM9.00573 77.4749C8.27321 77.8411 9.00573 78.2074 9.00573 77.4749V77.4749ZM125.476 77.4749C124.744 77.8411 125.476 78.2074 125.476 77.4749V77.4749ZM10.4708 79.6724C10.2876 79.4893 10.837 80.0387 10.4708 79.6724V79.6724ZM33.1789 79.6724C30.9813 80.2218 33.1789 78.0243 33.1789 79.6724V79.6724ZM33.1789 79.6724C33.5452 80.405 33.9114 79.6724 33.1789 79.6724V79.6724ZM35.9258 80.2218C35.5596 80.0387 36.109 80.5881 35.9258 80.2218V80.2218ZM172.541 79.6724C172.541 80.0387 172.175 80.2218 171.991 80.2218C171.808 80.7712 171.991 81.1375 172.541 81.3206C172.907 80.7712 173.273 79.8556 172.541 79.6724ZM11.0202 80.7712C10.837 80.5881 11.3864 81.1375 11.0202 80.7712V80.7712ZM35.9258 82.2363C35.7427 81.5037 36.2921 81.3206 36.2921 80.7712C35.1933 80.405 35.3765 81.5037 35.3765 82.2363H35.9258ZM37.9403 81.3206C37.7571 80.9543 38.3065 81.6869 37.9403 81.3206V81.3206ZM39.5884 81.87C39.9547 81.6869 40.5041 81.6869 40.6872 81.3206C40.1378 81.3206 39.5884 81.3206 39.5884 81.87ZM123.462 81.87C123.096 81.5037 123.828 82.0531 123.462 81.87V81.87ZM41.0535 82.2363C40.8704 82.0531 41.4198 82.6025 41.0535 82.2363V82.2363ZM120.715 83.335C120.166 83.335 120.349 84.0676 120.166 84.4338C120.715 84.4338 120.715 83.7013 120.715 83.335ZM55.3376 86.082C55.1545 85.7157 55.7039 86.2651 55.3376 86.082V86.082Z" fill="white"/>
</svg>
