<svg width="46" height="26" viewBox="0 0 46 26" fill="none" xmlns="http://www.w3.org/2000/svg">
<path d="M25.7269 0.390939V0.261478C25.2091 0.00256014 24.7776 0.13202 24.346 0.00256018C24.2166 0.908779 24.3892 2.46229 23.7419 3.10959C23.3103 3.02328 23.1377 3.1959 22.8788 3.23905C21.8431 3.49797 23.9145 3.23905 23.8713 3.36851C22.8357 3.75689 22.7494 3.67058 21.8863 4.23157C21.8431 3.80004 21.6274 4.23157 21.4979 3.8432C21.5411 4.27473 21.0664 4.14527 20.8938 4.36103C20.8938 4.23157 20.8506 4.14527 20.7643 4.10211C19.7718 4.23157 19.1245 4.87887 17.873 4.61995C17.8299 5.05148 17.3121 5.00833 16.8805 5.09464C17.3121 4.70626 17.4415 4.10211 16.8805 4.10211C17.571 2.93698 16.6216 2.20337 16.1469 1.38346C16.1469 1.46977 16.1469 1.59923 16.0175 1.64238C16.0606 1.51292 16.0175 1.38346 16.1469 1.38346V1.254C15.4133 0.649857 15.1544 0.218326 14.4208 0.390939C14.5502 0.865623 14.205 0.95193 14.0324 1.12454C14.766 2.07391 14.766 4.23157 15.0249 5.2241C15.4565 5.2241 15.0249 5.43986 15.4133 5.61248C15.1544 5.82824 14.9386 5.65563 14.6797 5.61248C14.4639 5.65563 14.6797 5.74194 14.6797 5.61248C14.6366 5.3104 15.0249 5.48302 15.0249 5.2241C14.8092 5.26725 14.8092 5.13779 14.766 4.96518C14.3776 5.18094 13.8166 5.18094 13.5577 5.48302C13.644 5.48302 13.6872 5.56932 13.6872 5.74194C14.0324 5.78509 14.2913 5.39671 14.4208 5.82824C13.9893 6.13031 13.4283 6.25977 12.9104 6.47554C12.9104 6.38923 12.9104 6.21662 12.781 6.21662C12.781 6.30293 12.781 6.38923 12.6947 6.34608C12.781 6.56185 12.4357 6.90707 12.4357 6.605C12.4357 6.47554 12.5652 6.38923 12.6947 6.34608C12.6947 6.25977 12.6947 6.21662 12.781 6.21662C12.8241 6.08716 12.9536 6.04401 13.0399 5.9577C13.1693 5.69878 13.5146 6.13031 13.6872 5.74194C13.5577 5.69878 13.5146 5.61248 13.5577 5.48302C13.2125 5.56932 12.9104 5.65563 12.6947 5.82824C12.7378 5.82824 12.8241 5.9577 12.6947 5.9577V5.82824C12.3926 5.91455 12.3494 5.78509 12.1768 5.74194C11.5295 6.43239 10.537 6.77761 9.45817 7.07968C9.11295 6.73446 9.1561 6.17347 9.06979 5.82824C9.06979 5.91455 8.98349 6.00085 8.94033 5.82824C8.46565 5.39671 8.5088 4.36103 7.81835 4.10211C7.81835 4.31788 7.90466 4.5768 7.68889 4.61995C7.68889 4.27473 7.64574 4.01581 7.47313 3.8432C7.42997 4.05896 7.51628 4.31788 7.34367 4.36103C7.42997 3.97265 7.1279 3.97265 7.21421 3.62743C7.04159 3.58428 7.17105 3.23905 6.95529 3.23905C6.78268 3.32536 6.95529 3.71374 6.69637 3.75689C5.61754 3.75689 5.70385 4.74941 4.71132 4.36103C4.75448 4.66311 4.66817 4.87887 4.3661 4.83572C4.15033 5.09464 3.93457 4.74941 3.7188 5.09464C4.23664 6.17347 4.4524 7.55437 5.0997 8.46059C5.35862 8.37428 5.27231 8.67635 5.44493 8.71951C5.53123 8.33113 5.18601 8.20167 5.57439 8.07221C5.57439 8.28797 5.70385 8.41743 5.83331 8.46059V7.94275C5.70385 7.94275 5.53123 7.77014 5.70385 7.72698C5.79015 7.72698 5.87646 7.81329 5.83331 7.94275C6.13538 7.89959 5.79015 8.54689 6.22168 8.33113C6.26484 8.15851 6.04907 7.68383 6.35114 7.72698C6.35114 8.11536 6.52376 8.37428 6.69637 8.59004V8.20167C6.65322 8.20167 6.56691 8.11536 6.69637 8.07221C6.82583 7.81329 6.26484 7.55437 6.56691 7.46806C6.95529 7.64068 6.99844 8.15851 7.21421 8.46059C6.95529 8.41743 6.91214 8.59004 6.69637 8.59004C6.69637 8.67635 6.69637 8.84896 6.56691 8.84896C6.43745 8.67635 6.4806 8.37428 6.22168 8.33113C6.17853 8.59005 6.35114 8.59005 6.35114 8.84896C6.3943 9.02158 6.4806 8.80581 6.35114 8.84896H6.22168C6.26484 9.15104 6.04907 9.23734 5.70385 9.19419C5.70385 9.2805 5.61754 9.3668 5.57439 9.19419C5.35862 9.71203 4.84078 9.92779 4.3661 10.1867C4.32294 10.273 4.32294 10.3593 4.23664 10.3162C3.97772 10.5319 3.58934 10.9203 3.37357 10.4456C1.94952 11.5676 -1.20066 13.38 0.482311 15.6672C0.439158 15.7535 0.352852 15.8829 0.352852 16.0555C0.827537 16.185 1.0433 16.6165 1.00015 17.2638C1.47483 17.3501 1.08646 16.5302 1.60429 16.6597C1.34537 17.0912 1.90637 17.0912 1.99267 17.5228C1.99267 17.4364 1.99267 17.307 2.12213 17.2638C2.07898 17.3933 2.12213 17.5228 1.99267 17.5228V17.7817C2.12213 17.6522 2.25159 17.6522 2.25159 17.9111C3.0715 19.292 4.06402 20.4572 5.35862 21.3634C5.35862 21.2771 5.48808 21.2771 5.57439 21.2771C6.26484 21.9675 6.99844 22.6148 8.07727 22.8737C15.6722 27.5343 30.258 26.6712 37.0331 21.4928C37.9393 21.3202 38.5434 20.1983 39.277 20.2846C39.4928 19.8099 39.7949 19.3783 40.399 19.292C40.399 19.0763 40.3558 18.9037 40.5285 18.9037C40.5285 18.8173 40.5285 18.731 40.6579 18.7742C40.7011 18.2995 41.0463 18.8605 41.1326 18.3858C41.0031 18.429 41.0463 18.2132 41.1326 18.3858C41.521 18.2132 41.6936 17.7817 41.8662 17.3933C41.7368 17.4364 41.8231 17.2207 41.8662 17.3933C41.9957 17.307 42.082 17.1775 42.1251 17.0481C42.0388 17.0049 41.9957 16.9186 41.9957 16.7891H42.1251C42.1251 16.7028 42.2114 16.6597 42.2546 16.7891C42.1251 16.3145 43.506 14.8473 42.5135 14.6746C42.643 14.3294 42.7724 14.0273 42.643 13.6821C42.2977 13.7253 42.7293 12.9917 42.384 13.078C42.2977 13.2937 42.1683 13.078 41.9957 13.078C41.8231 13.4232 41.3052 13.8547 41.7368 14.1568C41.3484 14.1137 41.2621 14.3726 41.0031 14.4157C40.96 14.7178 41.2621 14.5883 41.2621 14.8041C40.7874 14.8473 40.5716 14.8904 40.399 15.4082C40.4422 15.4082 40.5285 15.5377 40.399 15.5377C40.399 15.624 40.3559 15.7103 40.2695 15.6672C40.2695 15.7535 40.2264 15.7966 40.1401 15.7966C40.1401 15.8829 40.1401 15.9261 40.0106 15.9261C40.0106 16.0124 40.0106 16.0555 39.8812 16.0555C39.8812 16.0987 39.8812 16.185 39.7517 16.185C39.7517 16.2282 39.6654 16.3145 39.6222 16.185C39.2339 16.3145 38.8886 16.5734 38.6297 16.9186C38.716 16.9186 38.8023 17.0049 38.6297 17.0481V16.9186C38.5003 16.9186 38.414 17.0912 38.414 16.7891C38.2845 16.7891 38.2413 16.7028 38.155 16.6597C38.155 16.7892 37.9393 16.8323 37.8961 16.6597C37.853 16.6597 37.7667 16.5734 37.8961 16.5302C37.9393 16.4008 37.8961 16.3145 37.7667 16.2713C37.4646 16.5302 37.4214 17.0912 36.9036 17.1775C36.7741 17.0049 36.8604 16.9618 36.9036 16.7891C36.3858 16.7891 36.6015 17.5659 36.0405 17.5228V17.2638C35.9542 17.2638 35.9111 17.1775 35.7816 17.1775C35.4364 17.6522 34.487 17.6091 34.1849 18.1701C34.0123 18.2132 34.1849 18.2995 34.1849 18.1701C32.7609 18.5153 30.4306 19.6804 28.3161 20.1551V19.8962C28.1435 19.8099 28.014 20.3709 27.9709 20.0256C28.1435 19.8099 28.1867 19.5078 28.4456 19.3783V19.6373C29.0497 19.5078 29.0929 18.1269 29.5676 18.2564C29.697 18.2564 29.697 18.1701 29.8265 18.1701C29.7833 17.6091 29.9128 17.1775 30.2149 16.9186C30.2149 16.8323 30.2149 16.746 30.3012 16.7891C30.258 16.3576 30.3443 16.0987 30.819 16.185C30.6895 15.7966 30.7327 15.7103 31.0779 15.5377C31.0348 15.7103 31.0348 16.4439 31.2074 16.0555V15.4082C31.0779 15.4082 31.0348 15.1925 31.2074 15.1493V15.4082C31.38 15.2356 31.5958 14.4157 31.3368 14.2863C32.1567 13.38 30.8622 10.7909 30.819 9.58257C30.819 9.75518 30.8622 10.0573 30.6895 10.0573C30.5169 9.06473 30.1717 8.24482 29.8265 7.46806C34.9186 8.02905 39.6654 9.79833 43.1177 12.6896H43.6355C44.067 13.1643 44.3259 13.8116 44.7575 14.2863C44.9301 13.8547 44.9732 14.6315 45.2322 14.5452C45.189 13.639 45.3616 13.0348 45.6205 11.956C45.2753 11.2224 44.8438 10.2299 44.9732 9.45311H44.7575C44.5417 9.53941 44.7575 9.58257 44.7575 9.45311C44.7575 9.32365 44.9732 9.3668 44.9732 9.19419C44.8006 9.10788 44.5849 9.02158 44.628 8.71951C44.1102 8.54689 44.5417 8.07221 44.1102 7.94275C43.9376 8.02905 44.1102 8.11536 44.1102 7.94275C44.067 7.85644 44.0239 7.72698 43.8513 7.72698C43.8513 8.02905 43.4629 7.72698 43.506 7.59752C43.4197 7.59752 43.3334 7.55437 43.3766 7.46806C43.4629 7.46806 43.506 7.46806 43.506 7.59752H43.765C43.6786 7.2523 43.1177 7.38176 43.1177 6.95022C42.7293 7.07968 42.945 6.73446 43.1177 6.73446C43.1177 6.64815 43.1608 6.56185 43.2471 6.605C43.2471 6.38923 43.3334 6.25977 43.506 6.21662C43.4629 6.08716 43.6786 6.13031 43.506 6.21662C43.506 6.43239 43.4197 6.56185 43.2471 6.605C43.2471 6.69131 43.2471 6.73446 43.1177 6.73446V6.95022C43.8944 6.21662 44.9301 5.05148 45.1027 4.10211C45.1027 4.18842 45.1027 4.27473 44.9732 4.23157C44.8006 4.31788 45.0164 4.40419 44.9732 4.23157C44.9732 4.14527 45.0164 4.10211 45.1027 4.10211V3.8432C44.7575 3.88635 44.7143 3.58428 44.3691 3.62743C44.4554 3.80004 44.1102 4.14527 44.1102 3.8432C44.1533 3.71374 44.2396 3.67058 44.3691 3.62743V3.36851C44.1965 3.10959 43.8944 3.02328 43.8513 2.63491C42.2546 3.10959 42.082 5.05148 40.7442 5.82824C40.7442 6.13031 40.3127 5.82824 40.2695 5.74194C40.399 5.74194 40.4853 5.69878 40.5285 5.61248C40.2695 5.61248 40.2695 5.43986 40.0106 5.48302C40.0969 5.56932 40.1832 5.69878 40.0106 5.74194C39.7517 5.52617 39.3633 5.48302 39.1476 5.2241C38.8455 5.26725 38.6297 5.18094 38.5434 4.96518C37.9824 4.79257 37.3783 4.70626 37.0331 4.36103C37.3351 4.01581 37.5077 3.54112 37.6372 2.98013C37.2057 3.2822 37.2488 4.05896 36.7741 4.36103C36.7741 4.44734 36.7741 4.61995 36.6447 4.61995C36.6878 4.49049 36.6447 4.36103 36.7741 4.36103V3.97265C36.6878 3.97265 36.6447 3.97265 36.6447 3.8432C36.3858 3.8432 36.6878 3.41166 36.7741 3.36851C36.7741 3.1959 36.9468 3.2822 36.7741 3.36851C36.7741 3.58428 36.7741 3.75689 36.6447 3.8432C36.731 3.88635 36.8173 3.88635 36.7741 3.97265H36.9036C37.0331 3.41166 37.292 2.98013 37.6372 2.63491C37.6372 2.46229 37.853 2.5486 37.6372 2.63491V2.98013C38.0256 2.67806 38.0687 2.16022 37.8961 1.64238H37.5509C37.5077 1.72869 37.3783 1.72869 37.292 1.72869C37.2488 1.9013 37.2488 2.03076 37.0331 1.98761C37.0762 1.85815 37.1625 1.815 37.292 1.72869C37.3783 1.29716 37.0331 1.21085 37.292 0.995084C36.7741 0.95193 36.2995 0.908779 36.2995 0.390939C35.7385 0.477244 35.7816 -0.0405926 35.3069 0.00256018C34.487 1.03824 34.0555 2.50545 33.3219 3.62743C32.9335 3.62743 32.5451 3.2822 32.4157 3.75689C32.6746 3.75689 33.063 3.62743 32.9335 3.97265C32.7609 4.05896 32.2862 3.84319 32.3294 4.10211C32.5883 4.36103 32.6746 4.05896 33.063 4.10211C33.063 4.01581 33.063 3.8432 33.1924 3.8432C33.1493 3.71374 33.365 3.80004 33.1924 3.8432C33.1493 3.97265 33.1924 4.10211 33.063 4.10211C33.063 4.31788 32.9767 4.44734 32.804 4.49049C32.6314 4.27473 32.1999 4.36103 32.0704 4.10211C32.0704 4.18842 31.941 4.23157 31.941 4.10211H32.0704C32.0704 4.01581 32.1999 3.97265 32.1999 3.8432H31.8115C31.8115 4.01581 31.7684 4.14527 31.5526 4.10211C31.5526 3.97265 31.6821 3.97265 31.6821 3.8432C31.5526 3.8432 31.5958 3.62743 31.5526 3.49797C31.6389 3.71374 32.6746 3.67058 32.1999 3.36851C31.8978 3.58428 31.2937 3.10959 30.819 3.10959V3.36851C30.9053 3.36851 30.9485 3.36851 30.9485 3.49797C31.1211 3.49797 31.38 3.45482 31.3368 3.75689C31.1211 3.45482 30.9053 3.97265 30.9485 3.49797C30.8622 3.49797 30.7758 3.45482 30.819 3.36851H30.5601C30.9053 3.62743 30.1717 3.75689 30.0854 3.62743C30.1285 3.88635 29.9128 3.8432 29.697 3.8432C29.7833 3.75689 29.8265 3.67058 29.8265 3.49797C29.6107 3.41166 29.0929 3.67058 29.2223 3.23905C29.3086 3.32536 29.9559 3.58428 29.8265 3.10959C29.697 2.76437 29.3086 3.15274 29.0929 3.10959C29.0929 3.32536 29.0066 3.45482 28.834 3.49797C28.9203 3.15274 28.2298 3.58428 28.3161 3.23905C28.4887 3.23905 28.575 3.1959 28.575 3.10959C28.273 2.85067 28.3161 2.93698 27.8414 2.98013C27.6257 3.41166 28.273 3.06644 28.2298 3.36851C27.8846 3.36851 27.6257 3.36851 27.5825 3.10959C27.4099 2.85067 26.8489 2.98013 26.59 2.72121C26.6331 1.29716 27.0215 0.736164 25.8564 0.13202C25.8564 0.261478 25.8132 0.347786 25.7269 0.390939C25.7269 0.434092 25.6406 0.5204 25.5975 0.390939H25.7269ZM37.292 2.37599C37.2488 2.20337 37.4646 2.28968 37.292 2.37599C36.9036 2.37599 37.4214 2.89383 37.292 2.37599ZM36.9036 2.50545C36.9036 2.33283 37.0762 2.41914 36.9036 2.50545C36.5152 2.50545 37.0331 3.02328 36.9036 2.50545ZM37.0331 2.85067C36.9899 2.80752 37.1194 2.93698 37.0331 2.85067V2.85067ZM36.5152 3.10959C36.6878 2.63491 36.6878 3.58428 36.5152 3.10959V3.10959ZM36.9036 3.10959C36.8604 3.06644 36.9899 3.1959 36.9036 3.10959V3.10959ZM27.1941 3.23905C27.0647 3.23905 27.151 3.06644 27.1941 3.23905C27.2373 3.62743 27.712 3.10959 27.1941 3.23905ZM26.9784 3.23905C26.9784 3.36851 26.8058 3.32536 26.7194 3.36851C26.7194 3.23905 26.8489 3.2822 26.9784 3.23905ZM27.712 3.49797C27.712 3.62743 27.5394 3.58428 27.453 3.62743C27.453 3.49797 27.6257 3.49797 27.712 3.49797ZM27.9709 3.62743C27.9277 3.54112 28.0572 3.71374 27.9709 3.62743V3.62743ZM28.575 3.62743C28.1435 3.23905 28.1867 4.05896 28.575 3.62743V3.62743ZM29.2223 3.8432C29.0929 3.75689 28.9203 3.71374 28.7045 3.75689C28.6613 3.49797 29.3949 3.49797 29.2223 3.8432ZM29.4381 3.75689C29.3949 3.67058 29.5244 3.80004 29.4381 3.75689V3.75689ZM36.2995 3.75689C36.2563 3.67058 36.3858 3.80004 36.2995 3.75689V3.75689ZM23.3535 3.8432C23.3103 3.80004 23.4398 3.9295 23.3535 3.8432V3.8432ZM31.4231 3.97265C31.4663 4.18842 30.6464 4.23157 30.819 3.8432C31.1642 3.75689 31.1211 4.01581 31.4231 3.97265ZM36.0405 4.10211C35.9974 4.05896 36.1268 4.18842 36.0405 4.10211V4.10211ZM36.4289 4.10211C36.3426 4.05896 36.4721 4.18842 36.4289 4.10211V4.10211ZM44.628 4.10211C44.5417 4.05896 44.7143 4.18842 44.628 4.10211V4.10211ZM6.56691 4.96518C6.3943 4.74941 6.30799 4.44734 6.22168 4.10211C6.61006 4.14527 6.56691 4.61995 6.56691 4.96518C6.73952 4.96518 6.65322 5.18094 6.56691 4.96518ZM6.95529 4.23157C6.82583 4.23157 6.86898 4.05896 6.95529 4.23157C6.82583 5.18094 7.34367 4.61995 6.95529 4.23157ZM21.1095 4.49049C21.2821 3.97265 21.2821 4.96518 21.1095 4.49049V4.49049ZM36.2995 4.49049C36.2563 4.44734 36.3858 4.5768 36.2995 4.49049V4.49049ZM19.9876 4.83572C19.9876 4.49049 20.2896 4.49049 20.6348 4.49049C20.678 4.87887 20.2033 4.74941 19.9876 4.83572ZM44.628 4.61995C44.5417 4.53365 44.7143 4.70626 44.628 4.61995V4.61995ZM20.8938 4.74941C21.0232 4.23157 21.0232 5.2241 20.8938 4.74941V4.74941ZM36.9036 4.74941C36.8604 4.66311 36.9899 4.79257 36.9036 4.74941V4.74941ZM7.81835 4.83572C7.7752 4.79257 7.90466 4.92202 7.81835 4.83572V4.83572ZM18.0025 4.83572C17.9594 4.79257 18.0888 4.92202 18.0025 4.83572V4.83572ZM19.1245 4.83572C19.0813 4.79257 19.2108 4.92202 19.1245 4.83572V4.83572ZM17.873 5.09464C17.8299 5.05148 17.9594 5.18094 17.873 5.09464V5.09464ZM44.2396 5.09464C44.1965 5.05148 44.3259 5.18094 44.2396 5.09464V5.09464ZM18.9087 5.2241C18.8224 5.18094 18.9519 5.3104 18.9087 5.2241V5.2241ZM14.6797 5.2241C14.6797 5.35356 14.5071 5.3104 14.4208 5.35356C14.4208 5.2241 14.5502 5.26725 14.6797 5.2241ZM38.5434 5.35356C38.4571 5.3104 38.5866 5.43986 38.5434 5.35356V5.35356ZM18.132 5.35356C18.132 5.48302 18.0025 5.43986 17.873 5.48302C17.9162 5.35356 18.0457 5.39671 18.132 5.35356ZM36.6447 5.48302C36.6015 5.43986 36.731 5.56932 36.6447 5.48302V5.48302ZM17.3984 5.61248C17.3552 5.56932 17.4847 5.69878 17.3984 5.61248V5.61248ZM37.1625 5.61248C36.9899 5.61248 37.0762 5.43986 37.1625 5.61248C37.1625 5.9577 37.6804 5.48302 37.1625 5.61248ZM18.6498 5.74194C18.6066 5.65563 18.7361 5.78509 18.6498 5.74194V5.74194ZM39.277 5.74194C39.1907 5.9577 39.0613 5.74194 38.8886 5.74194C38.9749 5.48302 39.1044 5.69878 39.277 5.74194ZM37.8961 5.9577C37.853 5.91455 37.9824 6.04401 37.8961 5.9577V5.9577ZM14.5502 6.08716C14.5071 6.04401 14.6366 6.17347 14.5502 6.08716V6.08716ZM17.3984 6.08716C17.3552 6.04401 17.4847 6.17347 17.3984 6.08716V6.08716ZM14.2913 6.21662C14.2482 6.17347 14.3776 6.30293 14.2913 6.21662V6.21662ZM16.5353 6.34608C16.4921 6.30293 16.6216 6.43239 16.5353 6.34608V6.34608ZM12.1768 6.47554C12.1337 6.43239 12.2631 6.56185 12.1768 6.47554V6.47554ZM8.46565 6.605C8.37934 6.56185 8.5088 6.69131 8.46565 6.605V6.605ZM13.5577 6.47554C13.5577 6.605 13.3851 6.56185 13.2988 6.605C13.2988 6.47554 13.4283 6.51869 13.5577 6.47554ZM12.0474 6.73446C12.1768 6.21662 12.1768 7.20914 12.0474 6.73446V6.73446ZM15.1544 6.73446C14.8523 7.12284 15.5859 6.43239 15.1544 6.73446V6.73446ZM8.33619 6.86392C8.29304 6.77761 8.4225 6.90707 8.33619 6.86392V6.86392ZM11.3138 6.86392C11.3138 6.47554 11.8316 6.95022 11.3138 6.86392V7.20914C10.7959 6.95022 10.6233 7.51122 9.93286 7.46806C9.76025 7.55437 9.93286 7.59752 9.93286 7.46806C10.1486 6.99338 10.8391 7.03653 11.3138 6.86392ZM8.68142 6.95022C8.63826 6.90707 8.76772 7.03653 8.68142 6.95022V6.95022ZM42.5135 6.95022C42.643 6.47554 42.643 7.46806 42.5135 6.95022V6.95022ZM11.4432 7.07968C11.4001 7.03653 11.5295 7.16599 11.4432 7.07968V7.07968ZM8.07727 7.72698C7.73205 7.77014 7.94781 7.2523 7.68889 7.20914C7.86151 6.86392 8.16358 7.42491 8.07727 7.72698C8.20673 7.68383 8.16358 7.89959 8.07727 7.72698ZM5.96276 7.3386C6.09222 6.86392 6.09222 7.81329 5.96276 7.3386V7.3386ZM6.4806 7.3386C6.3943 7.29545 6.52376 7.42491 6.4806 7.3386V7.3386ZM7.55943 7.20914C7.55943 7.3386 7.42997 7.29545 7.34367 7.3386C7.34367 7.20914 7.47313 7.2523 7.55943 7.20914ZM8.94033 7.46806C8.89718 7.42491 9.02664 7.55437 8.94033 7.46806V7.46806ZM8.20673 7.59752C8.16358 7.55437 8.29304 7.68383 8.20673 7.59752V7.59752ZM5.35862 7.72698C5.27231 7.64068 5.40177 7.81329 5.35862 7.72698V7.72698ZM42.7293 7.85644C42.6861 7.77013 42.8156 7.89959 42.7293 7.85644V7.85644ZM5.35862 7.94275C5.31547 7.81329 5.53123 7.89959 5.35862 7.94275C5.14285 8.02905 5.35862 8.11536 5.35862 7.94275ZM8.94033 7.94275C8.89718 7.89959 9.02664 8.02905 8.94033 7.94275V7.94275ZM7.68889 8.07221C7.68889 7.94275 7.90466 8.02905 7.68889 8.07221C7.51628 8.15851 7.73205 8.24482 7.68889 8.07221ZM8.33619 8.20167C8.33619 8.02905 8.68142 8.15851 8.68142 7.94275C8.98349 7.9859 8.76772 8.50374 8.68142 8.59004C8.46565 8.59004 8.59511 8.15851 8.33619 8.20167ZM43.3766 8.20167C43.506 7.72698 43.506 8.71951 43.3766 8.20167V8.20167ZM8.07727 8.46059C7.90466 8.46059 7.99096 8.28797 8.07727 8.46059C8.03412 9.02158 8.55196 8.50374 8.07727 8.46059ZM19.1245 8.46059C19.1245 8.28797 19.2971 8.37428 19.1245 8.46059C18.9519 8.54689 19.1676 8.59004 19.1245 8.46059ZM7.68889 8.59004C7.64574 8.54689 7.7752 8.67635 7.68889 8.59004V8.59004ZM18.6498 8.59004C18.6066 8.54689 18.7361 8.67635 18.6498 8.59004V8.59004ZM8.33619 19.3783C6.61006 18.5584 4.49556 18.0837 3.7188 16.2713C7.42997 12.5601 12.4789 10.2299 18.2614 8.59004C17.7867 8.97842 17.5278 9.58257 17.1394 10.0573C17.4415 10.1004 17.1826 10.4888 17.01 10.4456C17.01 10.6614 16.9237 10.7477 16.7942 10.834C16.9237 11.0929 15.9743 11.0929 15.888 11.8265H15.8017C15.8017 11.9991 15.6291 12.1286 15.5428 11.956C15.4565 11.956 15.3702 12.0423 15.4133 12.1718C15.6722 12.3444 15.1112 13.2074 14.766 12.8191C14.8955 13.1643 14.8955 13.3369 14.766 13.6821C14.9386 13.6821 14.9386 13.5095 15.1544 13.5527C15.1112 13.7253 14.9386 13.7684 14.8955 13.941C14.8092 13.8979 14.766 13.8116 14.766 13.6821C14.5502 13.8979 14.6366 13.6821 14.2913 13.6821C13.6009 15.7966 13.5146 18.0406 14.1619 20.3709C13.7303 20.5003 13.6872 20.1983 13.2988 20.2846C13.342 20.3709 13.3851 20.414 13.5577 20.3709C11.7021 20.2414 10.1486 19.292 8.46565 19.3783C8.46565 19.4646 8.33619 19.551 8.33619 19.3783ZM43.9807 8.71951C43.8513 8.71951 43.9376 8.54689 43.9807 8.71951C44.067 8.89212 44.1533 8.67635 43.9807 8.71951ZM7.21421 8.84896C7.21421 8.46059 7.73205 8.93527 7.21421 8.84896C7.17105 8.93527 7.08475 8.97842 6.95529 8.93527C6.3943 8.80581 7.08475 9.53942 6.95529 8.93527C6.99844 8.84896 7.04159 8.80581 7.21421 8.84896ZM18.5203 8.84896C18.4772 8.76266 18.6066 8.89212 18.5203 8.84896V8.84896ZM18.0025 9.45311C18.0025 9.15104 18.2183 9.06473 18.2614 8.84896C18.6066 8.93527 18.132 9.28049 18.132 9.45311H18.0025C18.0025 9.53941 18.0025 9.58257 17.873 9.58257C17.873 9.66887 17.873 9.71203 17.7867 9.71203C17.2689 9.75518 17.7867 10.2299 17.7867 9.71203C17.7867 9.62572 17.7867 9.53941 17.873 9.58257C17.9162 9.49626 17.9162 9.40996 18.0025 9.45311ZM6.35114 9.32365C6.35114 9.15104 6.65322 8.93527 6.56691 9.32365C6.65322 9.32365 6.73952 9.3668 6.69637 9.45311C6.78268 9.62572 6.86898 9.45311 6.69637 9.45311C6.65322 9.45311 6.56691 9.45311 6.56691 9.32365H6.35114V9.58257C6.3943 9.58257 6.4806 9.66887 6.35114 9.71203C6.30799 9.79833 6.22168 9.84149 6.09222 9.84149C6.04907 9.97095 5.96276 10.0141 5.83331 10.0573C5.79015 10.1867 5.747 10.2299 5.57439 10.1867C5.57439 10.3162 5.48808 10.3593 5.35862 10.3162C5.31547 10.4025 5.31547 10.4888 5.22916 10.4456C5.22916 10.5319 5.18601 10.5751 5.0997 10.5751C4.92709 10.6614 5.0997 10.7046 5.0997 10.5751C5.0997 10.4888 5.0997 10.4456 5.22916 10.4456C5.22916 10.3593 5.22916 10.3162 5.35862 10.3162V10.1867C5.0997 10.1867 5.05655 10.3593 4.84078 10.3162C4.92709 10.0141 5.40177 10.0573 5.44493 9.71203C5.83331 9.84149 5.31547 10.0141 5.35862 10.1867H5.57439C5.61754 10.1004 5.70385 10.0573 5.83331 10.0573V9.84149C5.79015 9.84149 5.70385 9.71203 5.83331 9.71203C5.83331 9.62572 5.87646 9.53941 5.96276 9.58257C6.00592 9.40996 6.22168 9.45311 6.35114 9.32365ZM4.58186 10.7046C4.53871 10.6614 4.66817 10.7909 4.58186 10.7046V10.7046ZM17.2689 10.7046C17.2257 10.6614 17.3552 10.7909 17.2689 10.7046V10.7046ZM4.10718 10.834C4.27979 11.2224 4.40925 10.3162 4.10718 10.834V10.834ZM26.3311 12.4307C26.5468 12.0423 26.6331 12.9054 26.3311 12.4307V12.4307ZM26.3311 12.8191C26.2879 12.7759 26.4174 12.9054 26.3311 12.8191V12.8191ZM19.9012 17.9111C20.5485 15.4514 22.1452 13.941 24.2166 12.9485C24.2597 13.7684 23.8282 14.2 23.7419 14.9336C22.1884 15.6672 22.2315 17.9974 19.9012 17.9111ZM15.2839 13.1643C15.2407 13.1211 15.3702 13.2506 15.2839 13.1643V13.1643ZM41.8662 13.5527C42.0388 13.078 42.0388 14.0273 41.8662 13.5527V13.5527ZM20.8938 13.941C20.8075 13.8547 20.9369 14.0273 20.8938 13.941V13.941ZM31.3368 13.941C31.4663 13.4232 31.4663 14.4157 31.3368 13.941V13.941ZM21.3685 14.0705C21.3253 13.9842 21.4548 14.1137 21.3685 14.0705V14.0705ZM14.6797 14.1568C14.8092 13.6821 14.8092 14.6746 14.6797 14.1568V14.1568ZM20.6348 14.1568C20.5917 14.1137 20.7212 14.2431 20.6348 14.1568V14.1568ZM14.5502 14.5452C14.2482 14.9767 14.9386 14.2431 14.5502 14.5452V14.5452ZM20.3759 14.5452C20.3328 14.502 20.4622 14.6315 20.3759 14.5452V14.5452ZM20.6348 14.8041C20.5917 14.761 20.7212 14.8904 20.6348 14.8041V14.8041ZM14.4208 15.063V14.8041H14.6797V15.063H14.4208ZM19.9876 14.9336C19.9876 14.761 20.2033 14.8473 19.9876 14.9336C19.8149 14.9767 20.0307 15.063 19.9876 14.9336ZM20.3759 15.063C20.3759 14.8904 20.5485 14.9767 20.3759 15.063C20.2033 15.1062 20.3759 15.1925 20.3759 15.063ZM40.6579 15.2788C40.5716 15.2356 40.7011 15.3651 40.6579 15.2788V15.2788ZM13.903 16.0555C13.8598 15.9692 13.9893 16.1419 13.903 16.0555V16.0555ZM30.2149 16.0555C30.1285 15.9692 30.258 16.1419 30.2149 16.0555V16.0555ZM38.8886 16.9186C38.8455 16.8755 38.9749 17.0049 38.8886 16.9186V16.9186ZM39.4065 16.9186C39.3633 16.8755 39.4928 17.0049 39.4065 16.9186V16.9186ZM37.5509 17.2638C37.2057 17.2207 37.5077 16.7891 37.7667 16.9186C37.7235 17.0912 37.5509 17.0912 37.5509 17.2638ZM38.155 17.1775C38.1119 17.0912 38.2413 17.2207 38.155 17.1775V17.1775ZM36.9036 17.3933C37.0762 17.8248 37.2057 16.9186 36.9036 17.3933V17.3933ZM38.0256 17.3933C37.5077 17.5228 37.9824 17.0481 38.0256 17.3933C38.1119 17.6091 38.1982 17.3933 38.0256 17.3933ZM35.7816 17.5228C35.6522 17.5228 35.6953 17.3501 35.7816 17.5228C35.8679 17.6954 35.9542 17.5228 35.7816 17.5228ZM37.1625 17.7817C37.1194 17.7385 37.2488 17.868 37.1625 17.7817V17.7817ZM34.9186 17.9111C34.8754 17.868 35.0049 17.9974 34.9186 17.9111V17.9111ZM36.17 17.9111C36.17 17.7385 36.3426 17.8248 36.17 17.9111C35.9974 17.9974 36.17 18.0406 36.17 17.9111ZM36.7741 18.1701C36.3858 18.0406 36.9036 17.9111 36.9036 17.7817C37.3351 17.9111 36.7741 18.0406 36.7741 18.1701ZM41.3915 17.9111C41.3484 17.7385 41.5641 17.8248 41.3915 17.9111C41.2189 17.9974 41.3915 18.0406 41.3915 17.9111ZM34.5302 18.3858C34.487 18.3427 34.6165 18.4721 34.5302 18.3858V18.3858ZM36.0405 18.3858C35.9974 18.3427 36.1268 18.4721 36.0405 18.3858V18.3858ZM34.0555 18.5153C34.0123 18.4721 34.1418 18.6016 34.0555 18.5153V18.5153ZM35.048 18.5153C35.048 18.3858 35.2206 18.429 35.048 18.5153C34.8754 18.6016 35.048 18.6879 35.048 18.5153ZM28.7045 18.6447C28.8771 19.0763 29.0066 18.1701 28.7045 18.6447V18.6447ZM35.1775 18.9037C35.1343 18.8605 35.2638 18.99 35.1775 18.9037V18.9037ZM28.4456 19.1626C28.6182 19.551 28.7476 18.6447 28.4456 19.1626V19.1626ZM33.5376 19.292C33.4945 19.2057 33.624 19.3352 33.5376 19.292V19.292ZM31.5526 19.3783C31.5095 19.3352 31.6389 19.4646 31.5526 19.3783V19.3783ZM32.0704 19.3783C32.0273 19.3352 32.1567 19.4646 32.0704 19.3783V19.3783ZM8.81088 19.5078C8.81088 19.6373 8.68142 19.6373 8.55196 19.6373C8.59511 19.5078 8.72457 19.551 8.81088 19.5078ZM10.6665 20.0256C10.7528 19.9825 10.3212 19.8962 10.3212 19.8962C10.2781 19.6804 10.9685 19.7236 10.6665 20.0256ZM30.9485 19.8962C30.9053 19.853 31.0348 19.9825 30.9485 19.8962V19.8962ZM14.2913 20.3709C14.2482 20.3277 14.3776 20.4572 14.2913 20.3709V20.3709ZM13.903 20.5003C13.903 20.6298 13.7735 20.6298 13.6872 20.6298C13.6872 20.5003 13.8166 20.5435 13.903 20.5003ZM29.8265 21.2771C29.7833 21.1908 29.9128 21.3202 29.8265 21.2771V21.2771ZM30.2149 21.2771C30.1285 21.1908 30.258 21.3202 30.2149 21.2771V21.2771ZM35.9111 21.4928C35.9542 21.3634 36.0837 21.2339 36.2995 21.2771C36.2131 21.4065 36.1268 21.536 35.9111 21.4928ZM35.5227 21.6223C35.5227 21.4928 35.7385 21.536 35.5227 21.6223C35.3501 21.7086 35.5658 21.7949 35.5227 21.6223ZM34.1849 22.2696C34.1418 22.1833 34.2713 22.3559 34.1849 22.2696V22.2696ZM31.2074 23.4779C31.1642 23.3484 31.38 23.4347 31.2074 23.4779C31.1211 23.6505 30.9053 23.7368 30.6895 23.7368C30.7327 23.521 30.9053 23.4779 31.2074 23.4779ZM29.697 23.9957C29.6539 23.9526 29.7833 24.082 29.697 23.9957V23.9957ZM29.2223 24.3841C29.1792 24.4704 29.0497 24.4704 28.9634 24.4704C28.9634 24.3841 29.0929 24.3841 29.2223 24.3841ZM15.8017 24.8588C15.7154 24.8156 15.8448 24.9451 15.8017 24.8588V24.8588ZM23.6124 25.1177C23.5693 25.0746 23.6987 25.204 23.6124 25.1177V25.1177ZM24.0008 25.1177C23.9145 25.0746 24.0439 25.204 24.0008 25.1177V25.1177ZM19.9012 25.2472C19.8149 25.204 19.9444 25.3335 19.9012 25.2472V25.2472ZM20.8938 25.2472C20.8075 25.204 20.9369 25.3335 20.8938 25.2472V25.2472ZM22.4904 25.1177C22.4904 25.3766 21.9726 25.1609 21.7568 25.2472C21.7568 24.9451 22.2747 25.204 22.4904 25.1177ZM23.0946 25.2472C23.0514 25.204 23.1809 25.3335 23.0946 25.2472V25.2472ZM21.1095 25.5061C21.0664 25.4198 21.1958 25.5492 21.1095 25.5061V25.5061ZM22.6199 25.5061C22.5767 25.4198 22.7062 25.5492 22.6199 25.5061V25.5061ZM23.0083 25.5061C22.922 25.4198 23.0514 25.5492 23.0083 25.5061V25.5061ZM36.2995 0.390939C36.2563 0.218326 36.4721 0.304634 36.2995 0.390939V0.390939ZM16.1469 1.254C16.0175 0.736164 16.5353 1.21085 16.1469 1.254V1.254ZM37.5509 1.64238C37.3783 1.64238 37.4646 1.42662 37.5509 1.64238V1.64238ZM44.1102 2.50545C44.067 2.46229 44.1965 2.59175 44.1102 2.50545V2.50545ZM26.8489 2.72121C26.8058 2.67806 26.9352 2.80752 26.8489 2.72121V2.72121ZM17.5278 3.49797C17.5278 3.15274 17.571 2.76437 17.2689 2.72121C17.2689 3.06644 17.3552 3.32536 17.5278 3.49797ZM7.47313 3.10959C7.38682 3.06644 7.51628 3.1959 7.47313 3.10959V3.10959ZM27.5825 3.10959C27.5825 2.98013 27.7551 3.02328 27.5825 3.10959V3.10959ZM29.0929 3.10959V2.98013C28.834 2.93698 28.7045 3.02328 28.7045 3.23905C28.9203 3.2822 28.9203 3.10959 29.0929 3.10959ZM30.3012 3.23905C29.8265 3.36851 30.3012 2.85067 30.3012 3.23905V3.23905ZM44.4986 3.23905C44.4554 3.1959 44.5849 3.32536 44.4986 3.23905V3.23905ZM7.55943 3.36851C7.47313 4.10211 7.64574 2.85067 7.55943 3.36851V3.36851ZM30.3012 3.23905C30.3443 3.36851 30.4738 3.32536 30.5601 3.36851C30.5601 3.23905 30.4306 3.2822 30.3012 3.23905ZM7.34367 3.62743C7.34367 3.32536 7.17105 3.41166 7.21421 3.62743H7.34367ZM21.7568 3.49797C21.8431 3.45482 21.9726 3.49797 22.0158 3.36851C21.8863 3.41166 21.7568 3.36851 21.7568 3.49797ZM22.1021 3.49797C22.2315 3.45482 22.361 3.49797 22.361 3.36851C22.2747 3.41166 22.1021 3.36851 22.1021 3.49797ZM17.5278 3.49797C17.6141 3.67058 17.6573 3.45482 17.5278 3.49797V3.49797ZM19.9876 3.62743C19.9444 3.54112 20.0739 3.71374 19.9876 3.62743V3.62743ZM20.9801 3.62743V3.49797C20.7643 3.54112 20.5054 3.54112 20.3759 3.75689C20.7643 3.88635 20.7212 3.80004 20.9801 3.62743ZM30.0854 3.62743C29.9128 3.62743 29.9991 3.41166 30.0854 3.62743V3.62743ZM7.34367 3.62743C7.30051 3.75689 7.34367 3.8432 7.47313 3.8432C7.47313 3.71374 7.42997 3.62743 7.34367 3.62743ZM7.81835 3.75689C7.81835 3.58428 7.99096 3.67058 7.81835 3.75689V3.75689ZM19.6423 3.75689C19.7718 3.23905 19.7718 4.23157 19.6423 3.75689V3.75689ZM20.9801 3.62743C21.0664 3.80004 21.1527 3.58428 20.9801 3.62743V3.62743ZM7.81835 3.75689C7.47313 3.75689 7.94781 4.23157 7.81835 3.75689V3.75689ZM19.9012 3.8432C19.9875 3.8432 20.117 3.8432 20.117 3.75689C20.0307 3.75689 19.9012 3.75689 19.9012 3.8432ZM20.3759 3.75689C20.2033 3.80004 20.3759 3.88635 20.3759 3.75689V3.75689ZM21.7568 3.8432C21.7137 3.80004 21.8431 3.9295 21.7568 3.8432V3.8432ZM31.6821 3.8432H31.8115C31.7684 3.71374 31.6821 3.80004 31.6821 3.8432ZM20.9801 3.97265C21.1095 3.97265 21.239 3.97265 21.239 3.8432C21.1527 3.88635 21.0232 3.84319 20.9801 3.97265ZM18.7793 4.23157C18.3909 3.84319 19.5992 3.97265 18.7793 4.23157V4.23157ZM20.7643 4.10211C20.5917 4.10211 20.678 3.9295 20.7643 4.10211V4.10211ZM8.55196 4.36103C8.20673 4.31788 8.68142 3.84319 8.55196 4.36103V4.36103ZM18.5203 4.10211C18.2183 4.05896 18.0457 4.14527 18.0025 4.36103C18.2614 4.36103 18.434 4.27473 18.5203 4.10211ZM17.3984 4.23157C17.2689 4.49049 17.4847 5.00833 17.6573 4.61995C17.5278 4.5768 17.4847 4.49049 17.5278 4.36103C17.6141 4.31788 17.7867 4.36103 17.7867 4.23157H17.3984ZM37.292 4.36103C37.2488 4.31788 37.3783 4.44734 37.292 4.36103V4.36103ZM8.55196 4.36103C8.63826 4.53365 8.72457 4.36103 8.55196 4.36103V4.36103ZM37.5509 4.49049C37.594 4.53365 38.0256 4.79257 38.0256 4.49049C37.8098 4.61995 37.594 4.10211 37.5509 4.49049ZM18.3909 4.61995C18.3477 4.53365 18.4772 4.70626 18.3909 4.61995V4.61995ZM8.55196 4.74941C8.72457 4.23157 8.72457 5.2241 8.55196 4.74941V4.74941ZM4.3661 4.83572C4.19348 4.87887 4.27979 4.66311 4.3661 4.83572V4.83572ZM38.8886 4.96518V4.83572C38.6297 4.92202 38.5003 4.49049 38.5434 4.96518H38.8886ZM13.7735 4.96518C13.7735 4.83572 13.9893 4.92202 13.7735 4.96518V4.96518ZM8.68142 4.96518C8.72457 5.2241 8.76772 5.39671 8.94033 5.48302C8.98349 5.18094 8.89718 5.00833 8.68142 4.96518ZM13.7735 4.96518C13.6009 5.05148 13.8166 5.13779 13.7735 4.96518V4.96518ZM38.8886 4.96518C38.8886 5.09464 39.0613 5.09464 39.1476 5.09464C39.1476 4.96518 38.9749 5.00833 38.8886 4.96518ZM45.75 4.96518C45.5342 4.96518 45.4048 5.09464 45.3616 5.2241C45.5774 5.2241 45.6637 5.13779 45.75 4.96518ZM39.1476 5.2241C39.5791 5.3104 39.5791 5.00833 39.1476 5.09464V5.2241ZM44.8438 5.2241C44.8438 5.09464 45.0595 5.13779 44.8438 5.2241V5.2241ZM39.7517 5.35356C39.6222 5.35356 39.7086 5.18094 39.7517 5.35356V5.35356ZM44.7575 5.35356C44.8438 5.35356 44.8438 5.3104 44.8438 5.2241C44.7575 5.2241 44.7575 5.26725 44.7575 5.35356ZM13.0399 5.48302C12.9967 5.43986 13.1262 5.56932 13.0399 5.48302V5.48302ZM39.7517 5.35356C39.7517 5.48302 39.9243 5.43986 40.0106 5.48302C40.0106 5.35356 39.8812 5.39671 39.7517 5.35356ZM44.7575 5.35356C44.3691 5.39671 44.8438 5.87139 44.7575 5.35356V5.35356ZM45.1027 5.35356C45.1459 5.48302 45.1027 5.69878 45.2322 5.74194C45.2322 5.65563 45.2322 5.56932 45.3616 5.61248C45.3616 5.43986 45.3185 5.3104 45.1027 5.35356ZM9.06979 5.82824C9.06979 5.52617 8.89718 5.65563 8.94033 5.82824H9.06979ZM40.7442 5.82824C40.6148 5.8714 40.7011 5.65563 40.7442 5.82824V5.82824ZM13.0399 5.9577V6.21662C13.2125 6.17347 13.1693 5.9577 13.0399 5.9577ZM44.4986 6.21662C44.628 5.74194 44.628 6.69131 44.4986 6.21662V6.21662ZM10.9254 6.34608C10.8822 6.30293 11.0117 6.43239 10.9254 6.34608V6.34608ZM9.32871 6.47554C9.28556 6.43239 9.41502 6.56185 9.32871 6.47554V6.47554ZM9.58763 6.86392C9.19925 6.82077 9.67394 6.34608 9.58763 6.86392V6.86392ZM10.1918 6.73446C10.1486 6.64815 10.2781 6.82077 10.1918 6.73446V6.73446ZM9.58763 6.86392C9.58763 7.20914 10.0623 6.73446 9.58763 6.86392V6.86392ZM43.765 7.59752C43.7218 7.68383 43.8081 7.72698 43.8513 7.72698C43.8944 7.59752 43.8081 7.59752 43.765 7.59752ZM6.69637 8.20167C6.86898 8.20167 6.78268 8.07221 6.69637 8.07221V8.20167ZM44.628 8.46059C44.4554 8.46059 44.5417 8.28797 44.628 8.46059V8.46059ZM5.0997 8.46059C4.92709 8.54689 5.0997 8.59004 5.0997 8.46059V8.46059ZM44.628 8.46059V8.71951H44.7575C44.7575 8.54689 44.7143 8.50374 44.628 8.46059ZM5.44493 8.71951C5.44493 8.93527 5.61754 8.97842 5.57439 9.19419H5.70385V8.84896C5.61754 8.80581 5.57439 8.71951 5.44493 8.71951ZM5.70385 8.84896H5.83331C5.83331 8.67635 5.70385 8.76266 5.70385 8.84896ZM6.22168 8.84896C6.04907 8.84896 6.13538 8.6332 6.22168 8.84896V8.84896ZM44.7575 8.71951C44.7143 8.80581 44.8006 8.80581 44.8438 8.84896C44.8869 8.71951 44.8006 8.71951 44.7575 8.71951ZM17.6573 8.93527C17.6141 8.89212 17.7436 9.02158 17.6573 8.93527V8.93527ZM44.8438 8.84896C44.9301 9.02158 45.0164 8.80581 44.8438 8.84896V8.84896ZM5.22916 9.06473C5.18601 9.02158 5.31547 9.15104 5.22916 9.06473V9.06473ZM5.83331 9.06473C5.79015 9.02158 5.91961 9.15104 5.83331 9.06473V9.06473ZM44.9732 9.19419C44.9732 9.06473 45.189 9.10788 44.9732 9.19419V9.19419ZM30.819 9.58257C30.4306 9.40996 30.9485 8.93527 30.819 9.58257V9.58257ZM5.96276 9.58257H6.35114V9.71203C6.17853 9.66887 6.13538 9.71203 6.09222 9.84149H5.83331V9.71203C5.91961 9.71203 6.00592 9.66887 5.96276 9.58257ZM45.2322 9.84149C45.189 9.75518 45.3185 9.92779 45.2322 9.84149V9.84149ZM16.7942 10.0573C16.7079 10.0141 16.8374 10.1436 16.7942 10.0573V10.0573ZM4.23664 10.1867H4.3661C4.32294 10.0573 4.23664 10.1436 4.23664 10.1867ZM17.1394 10.0573C16.9668 10.1436 17.1394 10.2299 17.1394 10.0573V10.0573ZM4.23664 10.1867C3.93457 10.1867 4.02087 10.3593 4.23664 10.3162V10.1867ZM3.37357 10.4456C3.37357 10.0573 3.84826 10.5751 3.37357 10.4456V10.4456ZM17.01 10.4456C16.8805 10.4456 16.9668 10.273 17.01 10.4456V10.4456ZM16.7942 10.834C16.6216 10.834 16.7079 10.6182 16.7942 10.834V10.834ZM15.8017 11.8265C15.8017 11.5245 15.6291 11.6108 15.6722 11.8265H15.8017ZM15.5428 11.956C15.6291 11.9128 15.6722 11.9128 15.6722 11.8265C15.5428 11.7834 15.5428 11.8697 15.5428 11.956ZM15.4133 12.1718C15.4133 12.2581 15.327 12.3444 15.2839 12.1718H15.4133ZM15.0249 12.5601C14.9818 12.517 15.1112 12.6464 15.0249 12.5601V12.5601ZM43.1177 12.9485C43.0745 12.8622 43.204 13.0348 43.1177 12.9485V12.9485ZM14.5502 13.4232C14.6797 12.9485 14.6797 13.941 14.5502 13.4232V13.4232ZM45.4911 13.5527C45.4479 13.5095 45.5774 13.639 45.4911 13.5527V13.5527ZM42.643 13.6821C42.5998 13.5095 42.8156 13.5958 42.643 13.6821V13.6821ZM40.8737 14.0705C40.8305 13.9842 40.96 14.1137 40.8737 14.0705V14.0705ZM40.1401 14.5452C40.3127 14.8473 39.7949 15.063 40.1401 15.1493C40.2264 15.1062 40.4422 14.5883 40.1401 14.5452ZM40.5285 14.6746C40.4853 14.502 40.7011 14.5883 40.5285 14.6746V14.6746ZM40.5285 14.6746C40.3127 14.761 40.5285 14.8041 40.5285 14.6746V14.6746ZM23.3535 14.9336C23.3103 14.8904 23.4398 15.0199 23.3535 14.9336V14.9336ZM39.5359 15.6672C39.5791 15.5809 40.2264 15.4082 39.7517 15.1493C39.5359 15.2356 38.9749 15.5809 38.7592 16.0555C39.1044 15.9692 39.1476 15.6672 39.5359 15.6672ZM40.399 15.4082C39.9675 15.4082 39.9675 15.8398 39.6222 15.9261V16.185H39.7517C39.7949 16.0987 39.7949 16.0124 39.8812 16.0555C39.8812 15.9692 39.9243 15.8829 40.0106 15.9261C40.0106 15.8398 40.0538 15.7535 40.1401 15.7966C40.1401 15.7103 40.1401 15.624 40.2695 15.6672C40.2695 15.5809 40.2695 15.5377 40.399 15.5377V15.4082ZM39.5359 15.6672C39.4928 15.7966 39.5359 15.8829 39.6222 15.9261C39.6654 15.7535 39.6222 15.7103 39.5359 15.6672ZM38.155 16.185C38.1119 16.0987 38.2413 16.2282 38.155 16.185V16.185ZM38.6297 16.185C38.7592 16.185 38.7592 16.0987 38.7592 16.0555C38.6729 16.0124 38.6729 16.0987 38.6297 16.185ZM39.0181 16.185C39.0181 16.0124 39.1907 16.0987 39.0181 16.185V16.185ZM38.6297 16.185C38.4571 16.1419 38.3277 16.2713 38.2845 16.4008H38.5434C38.5434 16.3576 38.5434 16.2713 38.6297 16.2713V16.185ZM38.8886 16.2713C39.0181 16.3145 39.0181 16.2282 39.0181 16.185C38.9318 16.1419 38.8886 16.2282 38.8886 16.2713ZM30.5601 16.4008C30.5169 16.3576 30.6464 16.4871 30.5601 16.4008V16.4008ZM38.6297 16.2713C38.6729 16.4008 38.5866 16.4008 38.5434 16.4008C38.5003 16.5734 38.3708 16.5734 38.414 16.7891C38.6297 16.6597 38.8023 16.4871 38.8886 16.2713H38.6297ZM38.2845 16.4008C38.0687 16.3576 38.0687 16.5302 37.8961 16.5302V16.6597H38.155C38.155 16.5302 38.2413 16.5302 38.2845 16.4008ZM37.1625 16.6597C37.1625 16.5302 37.3351 16.5734 37.1625 16.6597V16.6597ZM37.1625 16.6597C36.9899 16.746 37.1625 16.8323 37.1625 16.6597V16.6597ZM30.3012 16.7891C30.3443 16.8755 30.258 16.9186 30.2149 16.9186C30.1717 17.307 30.7327 16.7891 30.3012 16.7891ZM42.1251 16.7891V17.0481C42.2546 17.0481 42.2114 16.8755 42.2546 16.7891H42.1251ZM36.0405 17.2638C36.2563 17.307 36.3426 17.1775 36.4289 17.0481C36.2131 17.0481 36.0837 17.1344 36.0405 17.2638ZM4.58186 17.3933C4.71132 17.3933 4.84078 17.3933 4.84078 17.2638C4.75448 17.307 4.58186 17.307 4.58186 17.3933ZM1.12961 17.5228C1.0433 17.4796 1.21592 17.6091 1.12961 17.5228V17.5228ZM4.97024 17.6522C4.92709 17.6091 5.05655 17.7385 4.97024 17.6522V17.6522ZM1.34537 17.7817C1.30222 17.7385 1.43168 17.868 1.34537 17.7817V17.7817ZM1.99267 17.7817C1.47483 17.6522 1.94952 18.1701 1.99267 17.7817V17.7817ZM1.47483 18.0406C1.43168 17.9974 1.56114 18.1269 1.47483 18.0406V18.0406ZM2.25159 17.9111C2.07898 17.9111 2.12213 18.1269 2.12213 18.2564C2.25159 18.2564 2.20844 18.0406 2.25159 17.9111ZM2.12213 18.2564C1.94952 18.3427 2.12213 18.429 2.12213 18.2564V18.2564ZM29.5676 18.2564C29.3949 18.3427 29.5676 18.429 29.5676 18.2564V18.2564ZM2.46736 18.7742C2.4242 18.731 2.55366 18.8605 2.46736 18.7742V18.7742ZM7.81835 18.7742C7.30051 18.9037 7.81835 18.3858 7.81835 18.7742V18.7742ZM7.81835 18.7742C7.90466 18.9468 7.99096 18.7742 7.81835 18.7742V18.7742ZM8.46565 18.9037C8.37934 18.8605 8.5088 18.99 8.46565 18.9037V18.9037ZM40.6579 18.7742C40.6579 18.8605 40.5716 18.9037 40.5285 18.9037C40.4853 19.0331 40.5285 19.1194 40.6579 19.1626C40.7442 19.0331 40.8305 18.8173 40.6579 18.7742ZM2.59682 19.0331C2.55366 18.99 2.68312 19.1194 2.59682 19.0331V19.0331ZM8.46565 19.3783C8.4225 19.2057 8.55196 19.1626 8.55196 19.0331C8.29304 18.9468 8.33619 19.2057 8.33619 19.3783H8.46565ZM8.94033 19.1626C8.89718 19.0763 9.02664 19.2489 8.94033 19.1626V19.1626ZM9.32871 19.292C9.41502 19.2489 9.54448 19.2489 9.58763 19.1626C9.45817 19.1626 9.32871 19.1626 9.32871 19.292ZM29.0929 19.292C29.0066 19.2057 29.1792 19.3352 29.0929 19.292V19.292ZM9.67394 19.3783C9.63079 19.3352 9.76025 19.4646 9.67394 19.3783V19.3783ZM28.4456 19.6373C28.3161 19.6373 28.3593 19.8099 28.3161 19.8962C28.4456 19.8962 28.4456 19.7236 28.4456 19.6373ZM13.0399 20.2846C12.9967 20.1983 13.1262 20.3277 13.0399 20.2846V20.2846Z" fill="white"/>
</svg>
