<svg width="22" height="23" viewBox="0 0 22 23" fill="none" xmlns="http://www.w3.org/2000/svg">
<path d="M2.3375 10.9764C2.40973 11.0306 2.49192 11.07 2.57938 11.0924C2.66683 11.1148 2.75785 11.1198 2.84723 11.107C2.9366 11.0942 3.02259 11.064 3.10028 11.018C3.17796 10.972 3.24583 10.9111 3.3 10.8389C3.71625 10.2839 4.256 9.83345 4.87651 9.52319C5.49702 9.21294 6.18125 9.05142 6.875 9.05142C7.56875 9.05142 8.25297 9.21294 8.87349 9.52319C9.494 9.83345 10.0337 10.2839 10.45 10.8389C10.5595 10.9847 10.7225 11.0809 10.903 11.1065C11.0835 11.1322 11.2667 11.0851 11.4125 10.9756C11.4645 10.9369 11.5105 10.8909 11.5491 10.8389C11.9654 10.2839 12.5051 9.83345 13.1257 9.52319C13.7462 9.21294 14.4304 9.05142 15.1241 9.05142C15.8179 9.05142 16.5021 9.21294 17.1226 9.52319C17.7431 9.83345 18.2829 10.2839 18.6991 10.8389C18.8087 10.9848 18.9716 11.0812 19.1522 11.1069C19.3328 11.1326 19.5162 11.0855 19.6621 10.976C19.8079 10.8665 19.9043 10.7035 19.93 10.5229C19.9557 10.3423 19.9087 10.1589 19.7991 10.0131C19.1906 9.19722 18.3791 8.55489 17.4453 8.14993C17.9572 7.68255 18.3159 7.07132 18.4742 6.39646C18.6325 5.7216 18.5831 5.01464 18.3325 4.36836C18.0818 3.72208 17.6417 3.16667 17.0697 2.77503C16.4978 2.3834 15.8208 2.17383 15.1276 2.17383C14.4344 2.17383 13.7574 2.3834 13.1855 2.77503C12.6135 3.16667 12.1733 3.72208 11.9227 4.36836C11.672 5.01464 11.6226 5.7216 11.7809 6.39646C11.9393 7.07132 12.2979 7.68255 12.8098 8.14993C12.1356 8.44148 11.5231 8.85884 11.0052 9.3797C10.4872 8.85884 9.8747 8.44148 9.20047 8.14993C9.71239 7.68255 10.071 7.07132 10.2294 6.39646C10.3877 5.7216 10.3383 5.01464 10.0876 4.36836C9.83699 3.72208 9.39681 3.16667 8.82486 2.77503C8.25291 2.3834 7.57592 2.17383 6.88273 2.17383C6.18955 2.17383 5.51256 2.3834 4.94061 2.77503C4.36866 3.16667 3.92848 3.72208 3.67783 4.36836C3.42718 5.01464 3.37777 5.7216 3.5361 6.39646C3.69442 7.07132 4.05308 7.68255 4.565 8.14993C3.62712 8.55358 2.81162 9.19632 2.2 10.0139C2.14583 10.0861 2.10642 10.1683 2.08401 10.2558C2.0616 10.3433 2.05664 10.4343 2.06941 10.5236C2.08218 10.613 2.11242 10.699 2.15842 10.7767C2.20442 10.8544 2.26527 10.9222 2.3375 10.9764ZM15.125 3.55142C15.5329 3.55142 15.9317 3.67238 16.2709 3.89901C16.61 4.12564 16.8744 4.44776 17.0305 4.82463C17.1866 5.2015 17.2275 5.6162 17.1479 6.01629C17.0683 6.41638 16.8719 6.78388 16.5834 7.07232C16.295 7.36077 15.9275 7.5572 15.5274 7.63679C15.1273 7.71637 14.7126 7.67552 14.3357 7.51942C13.9588 7.36331 13.6367 7.09896 13.4101 6.75978C13.1835 6.4206 13.0625 6.02184 13.0625 5.61392C13.0625 5.06691 13.2798 4.5423 13.6666 4.15551C14.0534 3.76872 14.578 3.55142 15.125 3.55142ZM6.875 3.55142C7.28292 3.55142 7.68169 3.67238 8.02086 3.89901C8.36004 4.12564 8.6244 4.44776 8.7805 4.82463C8.93661 5.2015 8.97745 5.6162 8.89787 6.01629C8.81829 6.41638 8.62185 6.78388 8.33341 7.07232C8.04496 7.36077 7.67746 7.5572 7.27737 7.63679C6.87729 7.71637 6.46259 7.67552 6.08572 7.51942C5.70884 7.36331 5.38672 7.09896 5.16009 6.75978C4.93346 6.4206 4.8125 6.02184 4.8125 5.61392C4.8125 5.06691 5.0298 4.5423 5.41659 4.15551C5.80339 3.76872 6.32799 3.55142 6.875 3.55142ZM17.4453 17.0874C17.9572 16.6201 18.3159 16.0088 18.4742 15.334C18.6325 14.6591 18.5831 13.9521 18.3325 13.3059C18.0818 12.6596 17.6417 12.1042 17.0697 11.7125C16.4978 11.3209 15.8208 11.1113 15.1276 11.1113C14.4344 11.1113 13.7574 11.3209 13.1855 11.7125C12.6135 12.1042 12.1733 12.6596 11.9227 13.3059C11.672 13.9521 11.6226 14.6591 11.7809 15.334C11.9393 16.0088 12.2979 16.6201 12.8098 17.0874C12.1356 17.379 11.5231 17.7963 11.0052 18.3172C10.4872 17.7963 9.8747 17.379 9.20047 17.0874C9.71239 16.6201 10.071 16.0088 10.2294 15.334C10.3877 14.6591 10.3383 13.9521 10.0876 13.3059C9.83699 12.6596 9.39681 12.1042 8.82486 11.7125C8.25291 11.3209 7.57592 11.1113 6.88273 11.1113C6.18955 11.1113 5.51256 11.3209 4.94061 11.7125C4.36866 12.1042 3.92848 12.6596 3.67783 13.3059C3.42718 13.9521 3.37777 14.6591 3.5361 15.334C3.69442 16.0088 4.05308 16.6201 4.565 17.0874C3.62712 17.4911 2.81162 18.1338 2.2 18.9514C2.14583 19.0236 2.10642 19.1058 2.08401 19.1933C2.0616 19.2808 2.05664 19.3718 2.06941 19.4611C2.08218 19.5505 2.11242 19.6365 2.15842 19.7142C2.20442 19.7919 2.26527 19.8597 2.3375 19.9139C2.40973 19.9681 2.49192 20.0075 2.57938 20.0299C2.66683 20.0523 2.75785 20.0573 2.84723 20.0445C2.9366 20.0317 3.02259 20.0015 3.10028 19.9555C3.17796 19.9095 3.24583 19.8486 3.3 19.7764C3.71625 19.2214 4.256 18.7709 4.87651 18.4607C5.49702 18.1504 6.18125 17.9889 6.875 17.9889C7.56875 17.9889 8.25297 18.1504 8.87349 18.4607C9.494 18.7709 10.0337 19.2214 10.45 19.7764C10.5595 19.9222 10.7225 20.0184 10.903 20.044C11.0835 20.0697 11.2667 20.0225 11.4125 19.9131C11.4645 19.8744 11.5105 19.8284 11.5491 19.7764C11.9654 19.2214 12.5051 18.7709 13.1257 18.4607C13.7462 18.1504 14.4304 17.9889 15.1241 17.9889C15.8179 17.9889 16.5021 18.1504 17.1226 18.4607C17.7431 18.7709 18.2829 19.2214 18.6991 19.7764C18.8087 19.9223 18.9716 20.0187 19.1522 20.0444C19.3328 20.0701 19.5162 20.023 19.6621 19.9135C19.8079 19.804 19.9043 19.641 19.93 19.4604C19.9557 19.2798 19.9087 19.0964 19.7991 18.9506C19.1906 18.1347 18.3791 17.4924 17.4453 17.0874ZM6.875 12.4889C7.28292 12.4889 7.68169 12.6099 8.02086 12.8365C8.36004 13.0631 8.6244 13.3853 8.7805 13.7621C8.93661 14.139 8.97745 14.5537 8.89787 14.9538C8.81829 15.3539 8.62185 15.7214 8.33341 16.0098C8.04496 16.2983 7.67746 16.4947 7.27737 16.5743C6.87729 16.6539 6.46259 16.613 6.08572 16.4569C5.70884 16.3008 5.38672 16.0365 5.16009 15.6973C4.93346 15.3581 4.8125 14.9593 4.8125 14.5514C4.8125 14.0044 5.0298 13.4798 5.41659 13.093C5.80339 12.7062 6.32799 12.4889 6.875 12.4889ZM15.125 12.4889C15.5329 12.4889 15.9317 12.6099 16.2709 12.8365C16.61 13.0631 16.8744 13.3853 17.0305 13.7621C17.1866 14.139 17.2275 14.5537 17.1479 14.9538C17.0683 15.3539 16.8719 15.7214 16.5834 16.0098C16.295 16.2983 15.9275 16.4947 15.5274 16.5743C15.1273 16.6539 14.7126 16.613 14.3357 16.4569C13.9588 16.3008 13.6367 16.0365 13.4101 15.6973C13.1835 15.3581 13.0625 14.9593 13.0625 14.5514C13.0625 14.0044 13.2798 13.4798 13.6666 13.093C14.0534 12.7062 14.578 12.4889 15.125 12.4889Z" fill="black"/>
</svg>
