<svg width="27" height="25" viewBox="0 0 27 25" fill="none" xmlns="http://www.w3.org/2000/svg">
<path d="M23.6252 16.1002V11.1502C23.6252 9.26004 23.6252 8.31495 23.2574 7.593C22.9338 6.95795 22.4175 6.44164 21.7825 6.11807C21.0605 5.75021 20.1154 5.75021 18.2252 5.75021H13.2752C11.3851 5.75021 10.44 5.75021 9.71803 6.11807C9.08298 6.44164 8.56667 6.95795 8.2431 7.593C7.87524 8.31495 7.87524 9.26004 7.87524 11.1502V16.1002C7.87524 17.9904 7.87524 18.9355 8.2431 19.6574C8.56667 20.2925 9.08298 20.8088 9.71803 21.1324C10.44 21.5002 11.3851 21.5002 13.2752 21.5002H18.2252C20.1154 21.5002 21.0605 21.5002 21.7825 21.1324C22.4175 20.8088 22.9338 20.2925 23.2574 19.6574C23.6252 18.9355 23.6252 17.9904 23.6252 16.1002Z" stroke="#5A5A5A" stroke-width="2" stroke-linecap="round" stroke-linejoin="round"/>
<path d="M7.87476 15.3127L3.66587 18.2589C3.20757 18.5797 2.97841 18.7401 2.78767 18.7317C2.62156 18.7245 2.46719 18.6441 2.36598 18.5122C2.24976 18.3607 2.24976 18.081 2.24976 17.5216V9.72874C2.24976 9.16931 2.24976 8.88959 2.36598 8.73811C2.46719 8.6062 2.62156 8.52583 2.78767 8.51856C2.97841 8.51021 3.20757 8.67062 3.66587 8.99143L7.87476 11.9377" stroke="#5A5A5A" stroke-width="2" stroke-linecap="round" stroke-linejoin="round"/>
</svg>
