<svg width="22" height="23" viewBox="0 0 22 23" fill="none" xmlns="http://www.w3.org/2000/svg">
<path d="M11.0077 5.83109C11.0463 5.29755 11.2225 4.78312 11.5191 4.33801C11.8158 3.8929 12.2228 3.53232 12.7005 3.29147C13.1781 3.05062 13.71 2.93772 14.2443 2.96381C14.7786 2.9899 15.297 3.15407 15.7489 3.44031C15.8006 3.47411 15.8422 3.52121 15.8694 3.57665C15.8965 3.63209 15.9083 3.69382 15.9034 3.75537C15.8984 3.81692 15.877 3.876 15.8414 3.92641C15.8057 3.97683 15.7572 4.01671 15.7008 4.04187C14.9152 4.3953 14.2484 4.96801 13.7804 5.69121C13.3124 6.4144 13.0631 7.25733 13.0625 8.11875C13.0625 8.21929 13.0625 8.31984 13.0728 8.41867C13.0776 8.48113 13.0651 8.54371 13.0369 8.59962C13.0087 8.65554 12.9657 8.70268 12.9126 8.73595C12.8595 8.76921 12.7983 8.78734 12.7357 8.78837C12.6731 8.7894 12.6113 8.77329 12.5572 8.74179C12.0507 8.4521 11.6365 8.0251 11.3624 7.51007C11.0882 6.99505 10.9653 6.41299 11.0077 5.83109ZM20.625 14.7024C20.6262 15.0953 20.5174 15.4806 20.3108 15.8148C20.1043 16.1489 19.8082 16.4185 19.4563 16.593L19.4184 16.6102L16.0815 18.0316C16.0485 18.0462 16.0143 18.0577 15.9792 18.066L10.4792 19.441C10.4247 19.455 10.3687 19.4622 10.3125 19.4625H1.375C1.01033 19.4625 0.660591 19.3176 0.402728 19.0598C0.144866 18.8019 0 18.4522 0 18.0875V14.65C0 14.2853 0.144866 13.9356 0.402728 13.6777C0.660591 13.4199 1.01033 13.275 1.375 13.275H3.84055L5.78445 11.3302C6.03935 11.0742 6.34245 10.8712 6.67626 10.733C7.01006 10.5948 7.36794 10.5241 7.72922 10.525H12.0313C12.3944 10.525 12.7528 10.6071 13.0797 10.7653C13.4066 10.9235 13.6934 11.1536 13.9187 11.4384C14.144 11.7233 14.3019 12.0554 14.3806 12.4099C14.4593 12.7644 14.4567 13.1322 14.373 13.4855L17.9687 12.6588C18.2817 12.5759 18.6096 12.566 18.927 12.6299C19.2445 12.6937 19.543 12.8296 19.7997 13.027C20.0563 13.2245 20.2642 13.4782 20.4073 13.7687C20.5504 14.0592 20.6249 14.3786 20.625 14.7024ZM19.25 14.7024C19.2499 14.5887 19.2236 14.4766 19.1732 14.3748C19.1227 14.2729 19.0495 14.184 18.9591 14.115C18.8688 14.046 18.7638 13.9988 18.6522 13.977C18.5406 13.9551 18.4255 13.9593 18.3159 13.9891L18.2892 13.996L12.5314 15.3203C12.4809 15.3316 12.4293 15.3373 12.3776 15.3375H9.625C9.44266 15.3375 9.2678 15.2651 9.13887 15.1361C9.00993 15.0072 8.9375 14.8323 8.9375 14.65C8.9375 14.4677 9.00993 14.2928 9.13887 14.1639C9.2678 14.0349 9.44266 13.9625 9.625 13.9625H12.0313C12.3048 13.9625 12.5671 13.8538 12.7605 13.6604C12.9539 13.4671 13.0625 13.2048 13.0625 12.9312C13.0625 12.6577 12.9539 12.3954 12.7605 12.202C12.5671 12.0086 12.3048 11.9 12.0313 11.9H7.72922C7.54859 11.8994 7.36964 11.9348 7.20278 12.0039C7.03592 12.0731 6.88448 12.1748 6.75727 12.303L4.8125 14.2469V18.0875H10.2266L15.5916 16.746L18.8573 15.3555C18.9761 15.2929 19.0756 15.1989 19.1448 15.0838C19.214 14.9687 19.2504 14.8368 19.25 14.7024ZM14.4375 8.11875C14.4375 8.73063 14.6189 9.32878 14.9589 9.83754C15.2988 10.3463 15.782 10.7428 16.3473 10.977C16.9126 11.2112 17.5347 11.2724 18.1348 11.153C18.7349 11.0337 19.2862 10.739 19.7189 10.3064C20.1515 9.87369 20.4462 9.32243 20.5656 8.72231C20.6849 8.12218 20.6237 7.50013 20.3895 6.93482C20.1553 6.36951 19.7588 5.88633 19.25 5.54639C18.7413 5.20644 18.1431 5.02499 17.5313 5.02499C16.7107 5.02499 15.9238 5.35094 15.3436 5.93113C14.7634 6.51132 14.4375 7.29823 14.4375 8.11875Z" fill="white"/>
</svg>
