<svg width="18" height="18" viewBox="0 0 18 18" fill="none" xmlns="http://www.w3.org/2000/svg">
<mask id="mask0_87_28" style="mask-type:alpha" maskUnits="userSpaceOnUse" x="0" y="0" width="18" height="18">
<circle cx="9" cy="9" r="9" fill="black"/>
</mask>
<g mask="url(#mask0_87_28)">
<rect x="-1" y="-1" width="20" height="20" fill="#472B92"/>
<path d="M9.87272 5.11963V5.08002C9.71426 5.00078 9.5822 5.0404 9.45015 5.00078C9.41053 5.2781 9.46335 5.75349 9.26527 5.95157C9.13322 5.92516 9.0804 5.97798 9.00117 5.99118C8.68424 6.07042 9.3181 5.99118 9.30489 6.0308C8.98796 6.14965 8.96155 6.12324 8.69744 6.29491C8.68424 6.16285 8.61821 6.29491 8.5786 6.17606C8.5918 6.30811 8.44654 6.2685 8.39372 6.33452C8.39372 6.29491 8.38052 6.2685 8.3541 6.25529C8.05038 6.29491 7.8523 6.49299 7.46935 6.41376C7.45614 6.54581 7.29768 6.5326 7.16562 6.55901C7.29768 6.44017 7.33729 6.25529 7.16562 6.25529C7.37691 5.89875 7.08639 5.67426 6.94113 5.42335C6.94113 5.44977 6.94113 5.48938 6.90152 5.50259C6.91472 5.46297 6.90152 5.42335 6.94113 5.42335V5.38374C6.71664 5.19886 6.63741 5.06681 6.41292 5.11963C6.45254 5.26489 6.34689 5.2913 6.29407 5.34412C6.51856 5.63464 6.51856 6.29491 6.59779 6.59863C6.72985 6.59863 6.59779 6.66466 6.71664 6.71748C6.63741 6.78351 6.57138 6.73068 6.49215 6.71748C6.42612 6.73068 6.49215 6.7571 6.49215 6.71748C6.47895 6.62504 6.59779 6.67786 6.59779 6.59863C6.53177 6.61184 6.53177 6.57222 6.51856 6.5194C6.39971 6.58543 6.22804 6.58543 6.14881 6.67786C6.17522 6.67786 6.18843 6.70427 6.18843 6.7571C6.29407 6.7703 6.3733 6.65145 6.41292 6.78351C6.28087 6.87594 6.1092 6.91556 5.95073 6.98159C5.95073 6.95518 5.95073 6.90235 5.91112 6.90235C5.91112 6.92876 5.91112 6.95518 5.88471 6.94197C5.91112 7.008 5.80547 7.11364 5.80547 7.0212C5.80547 6.98159 5.84509 6.95518 5.88471 6.94197C5.88471 6.91556 5.88471 6.90235 5.91112 6.90235C5.92432 6.86274 5.96394 6.84953 5.99035 6.82312C6.02996 6.74389 6.13561 6.87594 6.18843 6.7571C6.14881 6.74389 6.13561 6.71748 6.14881 6.67786C6.04317 6.70427 5.95073 6.73068 5.88471 6.78351C5.89791 6.78351 5.92432 6.82312 5.88471 6.82312V6.78351C5.79227 6.80992 5.77906 6.7703 5.72624 6.7571C5.52816 6.96838 5.22444 7.07402 4.8943 7.16646C4.78866 7.06082 4.80187 6.88915 4.77546 6.78351C4.77546 6.80992 4.74905 6.83633 4.73584 6.78351C4.59058 6.65145 4.60379 6.33452 4.3925 6.25529C4.3925 6.32132 4.41891 6.40055 4.35289 6.41376C4.35289 6.30811 4.33968 6.22888 4.28686 6.17606C4.27365 6.24209 4.30006 6.32132 4.24724 6.33452C4.27365 6.21568 4.18122 6.21568 4.20763 6.11003C4.1548 6.09683 4.19442 5.99118 4.12839 5.99118C4.07557 6.0176 4.12839 6.13644 4.04916 6.14965C3.71903 6.14965 3.74544 6.45337 3.44172 6.33452C3.45492 6.42696 3.42851 6.49299 3.33607 6.47978C3.27005 6.55901 3.20402 6.45337 3.13799 6.55901C3.29646 6.88915 3.36248 7.31172 3.56056 7.58903C3.6398 7.56262 3.61339 7.65506 3.66621 7.66826C3.69262 7.54942 3.58698 7.5098 3.70582 7.47018C3.70582 7.53621 3.74544 7.57583 3.78506 7.58903V7.43057C3.74544 7.43057 3.69262 7.37775 3.74544 7.36454C3.77185 7.36454 3.79826 7.39095 3.78506 7.43057C3.87749 7.41736 3.77185 7.61544 3.9039 7.54942C3.91711 7.49659 3.85108 7.35134 3.94352 7.36454C3.94352 7.48339 3.99634 7.56262 4.04916 7.62865V7.5098C4.03596 7.5098 4.00955 7.48339 4.04916 7.47018C4.08878 7.39095 3.91711 7.31172 4.00955 7.28531C4.12839 7.33813 4.1416 7.49659 4.20763 7.58903C4.12839 7.57583 4.11519 7.62865 4.04916 7.62865C4.04916 7.65506 4.04916 7.70788 4.00955 7.70788C3.96993 7.65506 3.98314 7.56262 3.9039 7.54942C3.8907 7.62865 3.94352 7.62865 3.94352 7.70788C3.95672 7.7607 3.98314 7.69467 3.94352 7.70788H3.9039C3.91711 7.80032 3.85108 7.82673 3.74544 7.81352C3.74544 7.83993 3.71903 7.86634 3.70582 7.81352C3.6398 7.97199 3.48133 8.03801 3.33607 8.11725C3.32287 8.14366 3.32287 8.17007 3.29646 8.15686C3.21723 8.22289 3.09838 8.34174 3.03235 8.19648C2.59657 8.53982 1.63258 9.09444 2.14759 9.79432C2.13439 9.82074 2.10798 9.86035 2.10798 9.91317C2.25324 9.95279 2.31926 10.0848 2.30606 10.2829C2.45132 10.3093 2.33247 10.0584 2.49093 10.098C2.4117 10.2301 2.58337 10.2301 2.60978 10.3622C2.60978 10.3357 2.60978 10.2961 2.6494 10.2829C2.63619 10.3225 2.6494 10.3622 2.60978 10.3622V10.4414C2.6494 10.4018 2.68901 10.4018 2.68901 10.481C2.93991 10.9036 3.24364 11.2601 3.6398 11.5374C3.6398 11.511 3.67941 11.511 3.70582 11.511C3.91711 11.7223 4.1416 11.9204 4.47173 11.9996C6.79587 13.4258 11.2593 13.1617 13.3325 11.577C13.6098 11.5242 13.7947 11.1809 14.0192 11.2073C14.0852 11.062 14.1777 10.93 14.3625 10.9036C14.3625 10.8375 14.3493 10.7847 14.4022 10.7847C14.4022 10.7583 14.4022 10.7319 14.4418 10.7451C14.455 10.5999 14.5606 10.7715 14.587 10.6263C14.5474 10.6395 14.5606 10.5734 14.587 10.6263C14.7059 10.5734 14.7587 10.4414 14.8115 10.3225C14.7719 10.3357 14.7983 10.2697 14.8115 10.3225C14.8511 10.2961 14.8775 10.2565 14.8908 10.2169C14.8643 10.2037 14.8511 10.1773 14.8511 10.1377H14.8908C14.8908 10.1113 14.9172 10.098 14.9304 10.1377C14.8908 9.9924 15.3133 9.54342 15.0096 9.4906C15.0492 9.38496 15.0888 9.29252 15.0492 9.18688C14.9436 9.20008 15.0756 8.97559 14.97 9.002C14.9436 9.06803 14.904 9.002 14.8511 9.002C14.7983 9.10765 14.6398 9.2397 14.7719 9.33214C14.6531 9.31893 14.6266 9.39816 14.5474 9.41137C14.5342 9.50381 14.6266 9.46419 14.6266 9.53022C14.4814 9.54342 14.4154 9.55663 14.3625 9.71509C14.3757 9.71509 14.4022 9.75471 14.3625 9.75471C14.3625 9.78112 14.3493 9.80753 14.3229 9.79432C14.3229 9.82074 14.3097 9.83394 14.2833 9.83394C14.2833 9.86035 14.2833 9.87356 14.2437 9.87356C14.2437 9.89997 14.2437 9.91317 14.2041 9.91317C14.2041 9.92638 14.2041 9.95279 14.1645 9.95279C14.1645 9.96599 14.138 9.9924 14.1248 9.95279C14.006 9.9924 13.9003 10.0716 13.8211 10.1773C13.8475 10.1773 13.8739 10.2037 13.8211 10.2169V10.1773C13.7815 10.1773 13.7551 10.2301 13.7551 10.1377C13.7155 10.1377 13.7023 10.1113 13.6759 10.098C13.6759 10.1377 13.6098 10.1509 13.5966 10.098C13.5834 10.098 13.557 10.0716 13.5966 10.0584C13.6098 10.0188 13.5966 9.9924 13.557 9.9792C13.4646 10.0584 13.4514 10.2301 13.2929 10.2565C13.2533 10.2037 13.2797 10.1905 13.2929 10.1377C13.1344 10.1377 13.2005 10.3754 13.0288 10.3622V10.2829C13.0024 10.2829 12.9892 10.2565 12.9496 10.2565C12.8439 10.4018 12.5534 10.3886 12.461 10.5602C12.4081 10.5734 12.461 10.5999 12.461 10.5602C12.0252 10.6659 11.3121 11.0224 10.665 11.1677V11.0884C10.6122 11.062 10.5726 11.2337 10.5594 11.1281C10.6122 11.062 10.6254 10.9696 10.7047 10.93V11.0092C10.8895 10.9696 10.9027 10.547 11.048 10.5866C11.0876 10.5866 11.0876 10.5602 11.1272 10.5602C11.114 10.3886 11.1536 10.2565 11.2461 10.1773C11.2461 10.1509 11.2461 10.1245 11.2725 10.1377C11.2593 10.0056 11.2857 9.92638 11.431 9.95279C11.3913 9.83394 11.4045 9.80753 11.5102 9.75471C11.497 9.80753 11.497 10.032 11.5498 9.91317V9.71509C11.5102 9.71509 11.497 9.64907 11.5498 9.63586V9.71509C11.6026 9.66227 11.6686 9.41137 11.5894 9.37175C11.8403 9.09444 11.4442 8.30212 11.431 7.93237C11.431 7.98519 11.4442 8.07763 11.3913 8.07763C11.3385 7.77391 11.2329 7.52301 11.1272 7.28531C12.6855 7.45698 14.138 7.9984 15.1945 8.88316H15.3529C15.485 9.02841 15.5642 9.22649 15.6963 9.37175C15.7491 9.2397 15.7623 9.4774 15.8415 9.45099C15.8283 9.17367 15.8812 8.9888 15.9604 8.65866C15.8547 8.43417 15.7227 8.13045 15.7623 7.89275H15.6963C15.6302 7.91917 15.6963 7.93237 15.6963 7.89275C15.6963 7.85314 15.7623 7.86634 15.7623 7.81352C15.7095 7.78711 15.6435 7.7607 15.6567 7.66826C15.4982 7.61544 15.6303 7.47018 15.4982 7.43057C15.4454 7.45698 15.4982 7.48339 15.4982 7.43057C15.485 7.40416 15.4718 7.36454 15.419 7.36454C15.419 7.45698 15.3001 7.36454 15.3133 7.32492C15.2869 7.32492 15.2605 7.31172 15.2737 7.28531C15.3001 7.28531 15.3133 7.28531 15.3133 7.32492H15.3926C15.3661 7.21928 15.1945 7.2589 15.1945 7.12684C15.0756 7.16646 15.1417 7.06082 15.1945 7.06082C15.1945 7.03441 15.2077 7.008 15.2341 7.0212C15.2341 6.95518 15.2605 6.91556 15.3133 6.90235C15.3001 6.86274 15.3661 6.87594 15.3133 6.90235C15.3133 6.96838 15.2869 7.008 15.2341 7.0212C15.2341 7.04761 15.2341 7.06082 15.1945 7.06082V7.12684C15.4322 6.90235 15.7491 6.54581 15.8019 6.25529C15.8019 6.2817 15.8019 6.30811 15.7623 6.29491C15.7095 6.32132 15.7755 6.34773 15.7623 6.29491C15.7623 6.2685 15.7755 6.25529 15.8019 6.25529V6.17606C15.6963 6.18927 15.6831 6.09683 15.5774 6.11003C15.6038 6.16285 15.4982 6.2685 15.4982 6.17606C15.5114 6.13644 15.5378 6.12324 15.5774 6.11003V6.0308C15.5246 5.95157 15.4322 5.92516 15.419 5.80631C14.9304 5.95157 14.8775 6.54581 14.4682 6.78351C14.4682 6.87594 14.3361 6.78351 14.3229 6.7571C14.3625 6.7571 14.3889 6.74389 14.4022 6.71748C14.3229 6.71748 14.3229 6.66466 14.2437 6.67786C14.2701 6.70427 14.2965 6.74389 14.2437 6.7571C14.1645 6.69107 14.0456 6.67786 13.9796 6.59863C13.8871 6.61184 13.8211 6.58543 13.7947 6.5194C13.623 6.46658 13.4382 6.44017 13.3325 6.33452C13.425 6.22888 13.4778 6.08362 13.5174 5.91195C13.3853 6.00439 13.3985 6.24209 13.2533 6.33452C13.2533 6.36093 13.2533 6.41376 13.2137 6.41376C13.2269 6.37414 13.2137 6.33452 13.2533 6.33452V6.21568C13.2269 6.21568 13.2137 6.21568 13.2137 6.17606C13.1344 6.17606 13.2269 6.04401 13.2533 6.0308C13.2533 5.97798 13.3061 6.00439 13.2533 6.0308C13.2533 6.09683 13.2533 6.14965 13.2137 6.17606C13.2401 6.18927 13.2665 6.18927 13.2533 6.21568H13.2929C13.3325 6.04401 13.4118 5.91195 13.5174 5.80631C13.5174 5.75349 13.5834 5.7799 13.5174 5.80631V5.91195C13.6362 5.81952 13.6494 5.66105 13.5966 5.50259H13.491C13.4778 5.529 13.4382 5.529 13.4118 5.529C13.3985 5.58182 13.3985 5.62144 13.3325 5.60823C13.3457 5.56861 13.3721 5.55541 13.4118 5.529C13.4382 5.39694 13.3325 5.37053 13.4118 5.30451C13.2533 5.2913 13.108 5.2781 13.108 5.11963C12.9364 5.14604 12.9496 4.98758 12.8043 5.00078C12.5534 5.31771 12.4214 5.76669 12.1969 6.11003C12.078 6.11003 11.9592 6.00439 11.9195 6.14965C11.9988 6.14965 12.1176 6.11003 12.078 6.21568C12.0252 6.24209 11.8799 6.17606 11.8931 6.25529C11.9724 6.33452 11.9988 6.24209 12.1176 6.25529C12.1176 6.22888 12.1176 6.17606 12.1572 6.17606C12.144 6.13644 12.2101 6.16285 12.1572 6.17606C12.144 6.21568 12.1572 6.25529 12.1176 6.25529C12.1176 6.32132 12.0912 6.36093 12.0384 6.37414C11.9856 6.30811 11.8535 6.33452 11.8139 6.25529C11.8139 6.2817 11.7743 6.29491 11.7743 6.25529H11.8139C11.8139 6.22888 11.8535 6.21568 11.8535 6.17606H11.7347C11.7347 6.22888 11.7215 6.2685 11.6554 6.25529C11.6554 6.21568 11.6951 6.21568 11.6951 6.17606C11.6554 6.17606 11.6686 6.11003 11.6554 6.07042C11.6819 6.13644 11.9988 6.12324 11.8535 6.0308C11.7611 6.09683 11.5762 5.95157 11.431 5.95157V6.0308C11.4574 6.0308 11.4706 6.0308 11.4706 6.07042C11.5234 6.07042 11.6026 6.05721 11.5894 6.14965C11.5234 6.05721 11.4574 6.21568 11.4706 6.07042C11.4442 6.07042 11.4177 6.05721 11.431 6.0308H11.3517C11.4574 6.11003 11.2329 6.14965 11.2065 6.11003C11.2197 6.18927 11.1536 6.17606 11.0876 6.17606C11.114 6.14965 11.1272 6.12324 11.1272 6.07042C11.0612 6.04401 10.9027 6.12324 10.9424 5.99118C10.9688 6.0176 11.1668 6.09683 11.1272 5.95157C11.0876 5.84593 10.9688 5.96477 10.9027 5.95157C10.9027 6.0176 10.8763 6.05721 10.8235 6.07042C10.8499 5.96477 10.6386 6.09683 10.665 5.99118C10.7179 5.99118 10.7443 5.97798 10.7443 5.95157C10.6518 5.87234 10.665 5.89875 10.5198 5.91195C10.4538 6.04401 10.6518 5.93836 10.6386 6.0308C10.533 6.0308 10.4538 6.0308 10.4405 5.95157C10.3877 5.87234 10.2161 5.91195 10.1368 5.83272C10.15 5.39694 10.2689 5.22527 9.91234 5.0404C9.91234 5.08002 9.89913 5.10643 9.87272 5.11963C9.87272 5.13284 9.84631 5.15925 9.8331 5.11963H9.87272ZM13.4118 5.72708C13.3985 5.67426 13.4646 5.70067 13.4118 5.72708C13.2929 5.72708 13.4514 5.88554 13.4118 5.72708ZM13.2929 5.76669C13.2929 5.71387 13.3457 5.74028 13.2929 5.76669C13.1741 5.76669 13.3325 5.92516 13.2929 5.76669ZM13.3325 5.87234C13.3193 5.85913 13.3589 5.89875 13.3325 5.87234V5.87234ZM13.1741 5.95157C13.2269 5.80631 13.2269 6.09683 13.1741 5.95157V5.95157ZM13.2929 5.95157C13.2797 5.93836 13.3193 5.97798 13.2929 5.95157V5.95157ZM10.3217 5.99118C10.2821 5.99118 10.3085 5.93836 10.3217 5.99118C10.3349 6.11003 10.4802 5.95157 10.3217 5.99118ZM10.2557 5.99118C10.2557 6.0308 10.2029 6.0176 10.1764 6.0308C10.1764 5.99118 10.2161 6.00439 10.2557 5.99118ZM10.4802 6.07042C10.4802 6.11003 10.4273 6.09683 10.4009 6.11003C10.4009 6.07042 10.4538 6.07042 10.4802 6.07042ZM10.5594 6.11003C10.5462 6.08362 10.5858 6.13644 10.5594 6.11003V6.11003ZM10.7443 6.11003C10.6122 5.99118 10.6254 6.24209 10.7443 6.11003V6.11003ZM10.9424 6.17606C10.9027 6.14965 10.8499 6.13644 10.7839 6.14965C10.7707 6.07042 10.9952 6.07042 10.9424 6.17606ZM11.0084 6.14965C10.9952 6.12324 11.0348 6.16285 11.0084 6.14965V6.14965ZM13.108 6.14965C13.0948 6.12324 13.1344 6.16285 13.108 6.14965V6.14965ZM9.14643 6.17606C9.13322 6.16285 9.17284 6.20247 9.14643 6.17606V6.17606ZM11.6158 6.21568C11.629 6.2817 11.3781 6.29491 11.431 6.17606C11.5366 6.14965 11.5234 6.22888 11.6158 6.21568ZM13.0288 6.25529C13.0156 6.24209 13.0552 6.2817 13.0288 6.25529V6.25529ZM13.1476 6.25529C13.1212 6.24209 13.1609 6.2817 13.1476 6.25529V6.25529ZM15.6567 6.25529C15.6302 6.24209 15.6831 6.2817 15.6567 6.25529V6.25529ZM4.00955 6.5194C3.95672 6.45337 3.93031 6.36093 3.9039 6.25529C4.02275 6.2685 4.00955 6.41376 4.00955 6.5194C4.06237 6.5194 4.03596 6.58543 4.00955 6.5194ZM4.12839 6.29491C4.08878 6.29491 4.10198 6.24209 4.12839 6.29491C4.08878 6.58543 4.24724 6.41376 4.12839 6.29491ZM8.45975 6.37414C8.51257 6.21568 8.51257 6.5194 8.45975 6.37414V6.37414ZM13.108 6.37414C13.0948 6.36093 13.1344 6.40055 13.108 6.37414V6.37414ZM8.11641 6.47978C8.11641 6.37414 8.20885 6.37414 8.31449 6.37414C8.32769 6.49299 8.18244 6.45337 8.11641 6.47978ZM15.6567 6.41376C15.6302 6.38735 15.6831 6.44017 15.6567 6.41376V6.41376ZM8.39372 6.45337C8.43334 6.29491 8.43334 6.59863 8.39372 6.45337V6.45337ZM13.2929 6.45337C13.2797 6.42696 13.3193 6.46658 13.2929 6.45337V6.45337ZM4.3925 6.47978C4.3793 6.46658 4.41891 6.50619 4.3925 6.47978V6.47978ZM7.50896 6.47978C7.49576 6.46658 7.53537 6.50619 7.50896 6.47978V6.47978ZM7.8523 6.47978C7.8391 6.46658 7.87871 6.50619 7.8523 6.47978V6.47978ZM7.46935 6.55901C7.45614 6.54581 7.49576 6.58543 7.46935 6.55901V6.55901ZM15.5378 6.55901C15.5246 6.54581 15.5642 6.58543 15.5378 6.55901V6.55901ZM7.78628 6.59863C7.75986 6.58543 7.79948 6.62504 7.78628 6.59863V6.59863ZM6.49215 6.59863C6.49215 6.63825 6.43933 6.62504 6.41292 6.63825C6.41292 6.59863 6.45254 6.61184 6.49215 6.59863ZM13.7947 6.63825C13.7683 6.62504 13.8079 6.66466 13.7947 6.63825V6.63825ZM7.54858 6.63825C7.54858 6.67786 7.50896 6.66466 7.46935 6.67786C7.48255 6.63825 7.52217 6.65145 7.54858 6.63825ZM13.2137 6.67786C13.2005 6.66466 13.2401 6.70427 13.2137 6.67786V6.67786ZM7.32409 6.71748C7.31088 6.70427 7.3505 6.74389 7.32409 6.71748V6.71748ZM13.3721 6.71748C13.3193 6.71748 13.3457 6.66466 13.3721 6.71748C13.3721 6.82312 13.5306 6.67786 13.3721 6.71748ZM7.70704 6.7571C7.69384 6.73068 7.73345 6.7703 7.70704 6.7571V6.7571ZM14.0192 6.7571C13.9928 6.82312 13.9532 6.7571 13.9003 6.7571C13.9268 6.67786 13.9664 6.74389 14.0192 6.7571ZM13.5966 6.82312C13.5834 6.80992 13.623 6.84953 13.5966 6.82312V6.82312ZM6.45254 6.86274C6.43933 6.84953 6.47895 6.88915 6.45254 6.86274V6.86274ZM7.32409 6.86274C7.31088 6.84953 7.3505 6.88915 7.32409 6.86274V6.86274ZM6.3733 6.90235C6.3601 6.88915 6.39971 6.92876 6.3733 6.90235V6.90235ZM7.05998 6.94197C7.04678 6.92876 7.08639 6.96838 7.05998 6.94197V6.94197ZM5.72624 6.98159C5.71304 6.96838 5.75265 7.008 5.72624 6.98159V6.98159ZM4.59058 7.0212C4.56417 7.008 4.60379 7.04761 4.59058 7.0212V7.0212ZM6.14881 6.98159C6.14881 7.0212 6.09599 7.008 6.06958 7.0212C6.06958 6.98159 6.1092 6.99479 6.14881 6.98159ZM5.68663 7.06082C5.72624 6.90235 5.72624 7.20608 5.68663 7.06082V7.06082ZM6.63741 7.06082C6.54497 7.17967 6.76946 6.96838 6.63741 7.06082V7.06082ZM4.55097 7.10043C4.53776 7.07402 4.57738 7.11364 4.55097 7.10043V7.10043ZM5.46213 7.10043C5.46213 6.98159 5.6206 7.12684 5.46213 7.10043V7.20608C5.30367 7.12684 5.25085 7.29851 5.03956 7.28531C4.98674 7.31172 5.03956 7.32492 5.03956 7.28531C5.10559 7.14005 5.31688 7.15326 5.46213 7.10043ZM4.65661 7.12684C4.6434 7.11364 4.68302 7.15326 4.65661 7.12684V7.12684ZM15.0096 7.12684C15.0492 6.98159 15.0492 7.28531 15.0096 7.12684V7.12684ZM5.50175 7.16646C5.48855 7.15326 5.52816 7.19287 5.50175 7.16646V7.16646ZM4.47173 7.36454C4.36609 7.37775 4.43212 7.21928 4.35289 7.20608C4.40571 7.10043 4.49814 7.2721 4.47173 7.36454C4.51135 7.35134 4.49814 7.41736 4.47173 7.36454ZM3.82467 7.24569C3.86429 7.10043 3.86429 7.39095 3.82467 7.24569V7.24569ZM3.98314 7.24569C3.95672 7.23249 3.99634 7.2721 3.98314 7.24569V7.24569ZM4.31327 7.20608C4.31327 7.24569 4.27365 7.23249 4.24724 7.24569C4.24724 7.20608 4.28686 7.21928 4.31327 7.20608ZM4.73584 7.28531C4.72263 7.2721 4.76225 7.31172 4.73584 7.28531V7.28531ZM4.51135 7.32492C4.49814 7.31172 4.53776 7.35134 4.51135 7.32492V7.32492ZM3.6398 7.36454C3.61339 7.33813 3.653 7.39095 3.6398 7.36454V7.36454ZM15.0756 7.40416C15.0624 7.37775 15.102 7.41736 15.0756 7.40416V7.40416ZM3.6398 7.43057C3.62659 7.39095 3.69262 7.41736 3.6398 7.43057C3.57377 7.45698 3.6398 7.48339 3.6398 7.43057ZM4.73584 7.43057C4.72263 7.41736 4.76225 7.45698 4.73584 7.43057V7.43057ZM4.35289 7.47018C4.35289 7.43057 4.41891 7.45698 4.35289 7.47018C4.30006 7.49659 4.36609 7.52301 4.35289 7.47018ZM4.55097 7.5098C4.55097 7.45698 4.65661 7.49659 4.65661 7.43057C4.74905 7.44377 4.68302 7.60224 4.65661 7.62865C4.59058 7.62865 4.6302 7.49659 4.55097 7.5098ZM15.2737 7.5098C15.3133 7.36454 15.3133 7.66826 15.2737 7.5098V7.5098ZM4.47173 7.58903C4.41891 7.58903 4.44532 7.53621 4.47173 7.58903C4.45853 7.7607 4.61699 7.60224 4.47173 7.58903ZM7.8523 7.58903C7.8523 7.53621 7.90512 7.56262 7.8523 7.58903C7.79948 7.61544 7.86551 7.62865 7.8523 7.58903ZM4.35289 7.62865C4.33968 7.61544 4.3793 7.65506 4.35289 7.62865V7.62865ZM7.70704 7.62865C7.69384 7.61544 7.73345 7.65506 7.70704 7.62865V7.62865ZM4.55097 10.93C4.02275 10.6791 3.37569 10.5338 3.13799 9.9792C4.27365 8.84354 5.81868 8.13045 7.5882 7.62865C7.44294 7.7475 7.3637 7.93237 7.24486 8.07763C7.33729 8.09083 7.25806 8.20968 7.20524 8.19648C7.20524 8.2625 7.17883 8.28891 7.13921 8.31533C7.17883 8.39456 6.88831 8.39456 6.8619 8.61905H6.83549C6.83549 8.67187 6.78267 8.71149 6.75626 8.65866C6.72985 8.65866 6.70344 8.68508 6.71664 8.72469C6.79587 8.77751 6.6242 9.04162 6.51856 8.92277C6.55818 9.02841 6.55818 9.08124 6.51856 9.18688C6.57138 9.18688 6.57138 9.13406 6.63741 9.14726C6.6242 9.20008 6.57138 9.21329 6.55818 9.26611C6.53177 9.25291 6.51856 9.22649 6.51856 9.18688C6.45254 9.25291 6.47895 9.18688 6.3733 9.18688C6.16202 9.83394 6.13561 10.5206 6.33369 11.2337C6.20163 11.2733 6.18843 11.1809 6.06958 11.2073C6.08279 11.2337 6.09599 11.2469 6.14881 11.2337C5.58098 11.1941 5.10559 10.9036 4.59058 10.93C4.59058 10.9564 4.55097 10.9828 4.55097 10.93ZM15.4586 7.66826C15.419 7.66826 15.4454 7.61544 15.4586 7.66826C15.485 7.72109 15.5114 7.65506 15.4586 7.66826ZM4.20763 7.70788C4.20763 7.58903 4.36609 7.73429 4.20763 7.70788C4.19442 7.73429 4.16801 7.7475 4.12839 7.73429C3.95672 7.69467 4.16801 7.91917 4.12839 7.73429C4.1416 7.70788 4.1548 7.69467 4.20763 7.70788ZM7.66743 7.70788C7.65422 7.68147 7.69384 7.72109 7.66743 7.70788V7.70788ZM7.50896 7.89275C7.50896 7.80032 7.57499 7.77391 7.5882 7.70788C7.69384 7.73429 7.54858 7.83993 7.54858 7.89275H7.50896C7.50896 7.91917 7.50896 7.93237 7.46935 7.93237C7.46935 7.95878 7.46935 7.97199 7.44294 7.97199C7.28447 7.98519 7.44294 8.13045 7.44294 7.97199C7.44294 7.94558 7.44294 7.91917 7.46935 7.93237C7.48255 7.90596 7.48255 7.87955 7.50896 7.89275ZM3.94352 7.85314C3.94352 7.80032 4.03596 7.73429 4.00955 7.85314C4.03596 7.85314 4.06237 7.86634 4.04916 7.89275C4.07557 7.94558 4.10198 7.89275 4.04916 7.89275C4.03596 7.89275 4.00955 7.89275 4.00955 7.85314H3.94352V7.93237C3.95672 7.93237 3.98314 7.95878 3.94352 7.97199C3.93031 7.9984 3.9039 8.0116 3.86429 8.0116C3.85108 8.05122 3.82467 8.06442 3.78506 8.07763C3.77185 8.11725 3.75864 8.13045 3.70582 8.11725C3.70582 8.15686 3.67941 8.17007 3.6398 8.15686C3.62659 8.18327 3.62659 8.20968 3.60018 8.19648C3.60018 8.22289 3.58697 8.23609 3.56056 8.23609C3.50774 8.2625 3.56056 8.27571 3.56056 8.23609C3.56056 8.20968 3.56056 8.19648 3.60018 8.19648C3.60018 8.17007 3.60018 8.15686 3.6398 8.15686V8.11725C3.56056 8.11725 3.54736 8.17007 3.48133 8.15686C3.50774 8.06442 3.653 8.07763 3.66621 7.97199C3.78506 8.0116 3.62659 8.06442 3.6398 8.11725H3.70582C3.71903 8.09083 3.74544 8.07763 3.78506 8.07763V8.0116C3.77185 8.0116 3.74544 7.97199 3.78506 7.97199C3.78506 7.94558 3.79826 7.91917 3.82467 7.93237C3.83788 7.87955 3.9039 7.89275 3.94352 7.85314ZM3.4021 8.27571C3.3889 8.2625 3.42851 8.30212 3.4021 8.27571V8.27571ZM7.28447 8.27571C7.27127 8.2625 7.31088 8.30212 7.28447 8.27571V8.27571ZM3.25684 8.31533C3.30966 8.43417 3.34928 8.15686 3.25684 8.31533V8.31533ZM10.0576 8.80392C10.1236 8.68508 10.15 8.94918 10.0576 8.80392V8.80392ZM10.0576 8.92277C10.0444 8.90957 10.084 8.94918 10.0576 8.92277V8.92277ZM8.09 10.481C8.28808 9.7283 8.77668 9.26611 9.41053 8.96239C9.42374 9.21329 9.29168 9.34534 9.26527 9.56983C8.78988 9.79432 8.80309 10.5074 8.09 10.481ZM6.67703 9.02841C6.66382 9.01521 6.70344 9.05482 6.67703 9.02841V9.02841ZM14.8115 9.14726C14.8643 9.002 14.8643 9.29252 14.8115 9.14726V9.14726ZM8.39372 9.26611C8.36731 9.2397 8.40693 9.29252 8.39372 9.26611V9.26611ZM11.5894 9.26611C11.629 9.10765 11.629 9.41137 11.5894 9.26611V9.26611ZM8.53898 9.30573C8.52577 9.27932 8.56539 9.31893 8.53898 9.30573V9.30573ZM6.49215 9.33214C6.53177 9.18688 6.53177 9.4906 6.49215 9.33214V9.33214ZM8.31449 9.33214C8.30128 9.31893 8.3409 9.35855 8.31449 9.33214V9.33214ZM6.45254 9.45099C6.3601 9.58304 6.57138 9.35855 6.45254 9.45099V9.45099ZM8.23526 9.45099C8.22205 9.43778 8.26167 9.4774 8.23526 9.45099V9.45099ZM8.31449 9.53022C8.30128 9.51701 8.3409 9.55663 8.31449 9.53022V9.53022ZM6.41292 9.60945V9.53022H6.49215V9.60945H6.41292ZM8.11641 9.56983C8.11641 9.51701 8.18244 9.54342 8.11641 9.56983C8.06359 9.58304 8.12961 9.60945 8.11641 9.56983ZM8.23526 9.60945C8.23526 9.55663 8.28808 9.58304 8.23526 9.60945C8.18244 9.62265 8.23526 9.64907 8.23526 9.60945ZM14.4418 9.67548C14.4154 9.66227 14.455 9.70189 14.4418 9.67548V9.67548ZM6.25446 9.91317C6.24125 9.88676 6.28087 9.93958 6.25446 9.91317V9.91317ZM11.2461 9.91317C11.2197 9.88676 11.2593 9.93958 11.2461 9.91317V9.91317ZM13.9003 10.1773C13.8871 10.1641 13.9268 10.2037 13.9003 10.1773V10.1773ZM14.0588 10.1773C14.0456 10.1641 14.0852 10.2037 14.0588 10.1773V10.1773ZM13.491 10.2829C13.3853 10.2697 13.4778 10.1377 13.557 10.1773C13.5438 10.2301 13.491 10.2301 13.491 10.2829ZM13.6759 10.2565C13.6627 10.2301 13.7023 10.2697 13.6759 10.2565V10.2565ZM13.2929 10.3225C13.3457 10.4546 13.3853 10.1773 13.2929 10.3225V10.3225ZM13.6362 10.3225C13.4778 10.3622 13.623 10.2169 13.6362 10.3225C13.6627 10.3886 13.6891 10.3225 13.6362 10.3225ZM12.9496 10.3622C12.9099 10.3622 12.9232 10.3093 12.9496 10.3622C12.976 10.415 13.0024 10.3622 12.9496 10.3622ZM13.3721 10.4414C13.3589 10.4282 13.3985 10.4678 13.3721 10.4414V10.4414ZM12.6855 10.481C12.6723 10.4678 12.7119 10.5074 12.6855 10.481V10.481ZM13.0684 10.481C13.0684 10.4282 13.1212 10.4546 13.0684 10.481C13.0156 10.5074 13.0684 10.5206 13.0684 10.481ZM13.2533 10.5602C13.1344 10.5206 13.2929 10.481 13.2929 10.4414C13.425 10.481 13.2533 10.5206 13.2533 10.5602ZM14.6663 10.481C14.6531 10.4282 14.7191 10.4546 14.6663 10.481C14.6134 10.5074 14.6663 10.5206 14.6663 10.481ZM12.5666 10.6263C12.5534 10.6131 12.593 10.6527 12.5666 10.6263V10.6263ZM13.0288 10.6263C13.0156 10.6131 13.0552 10.6527 13.0288 10.6263V10.6263ZM12.4214 10.6659C12.4081 10.6527 12.4478 10.6923 12.4214 10.6659V10.6659ZM12.7251 10.6659C12.7251 10.6263 12.7779 10.6395 12.7251 10.6659C12.6723 10.6923 12.7251 10.7187 12.7251 10.6659ZM10.7839 10.7055C10.8367 10.8375 10.8763 10.5602 10.7839 10.7055V10.7055ZM12.7647 10.7847C12.7515 10.7715 12.7911 10.8111 12.7647 10.7847V10.7847ZM10.7047 10.864C10.7575 10.9828 10.7971 10.7055 10.7047 10.864V10.864ZM12.2629 10.9036C12.2497 10.8772 12.2893 10.9168 12.2629 10.9036V10.9036ZM11.6554 10.93C11.6422 10.9168 11.6819 10.9564 11.6554 10.93V10.93ZM11.8139 10.93C11.8007 10.9168 11.8403 10.9564 11.8139 10.93V10.93ZM4.69622 10.9696C4.69622 11.0092 4.65661 11.0092 4.61699 11.0092C4.6302 10.9696 4.66981 10.9828 4.69622 10.9696ZM5.26405 11.1281C5.29046 11.1149 5.15841 11.0884 5.15841 11.0884C5.14521 11.0224 5.35649 11.0356 5.26405 11.1281ZM11.4706 11.0884C11.4574 11.0752 11.497 11.1149 11.4706 11.0884V11.0884ZM6.3733 11.2337C6.3601 11.2205 6.39971 11.2601 6.3733 11.2337V11.2337ZM6.25446 11.2733C6.25446 11.3129 6.21484 11.3129 6.18843 11.3129C6.18843 11.2733 6.22804 11.2865 6.25446 11.2733ZM11.1272 11.511C11.114 11.4846 11.1536 11.5242 11.1272 11.511V11.511ZM11.2461 11.511C11.2197 11.4846 11.2593 11.5242 11.2461 11.511V11.511ZM12.9892 11.577C13.0024 11.5374 13.042 11.4978 13.108 11.511C13.0816 11.5506 13.0552 11.5903 12.9892 11.577ZM12.8703 11.6167C12.8703 11.577 12.9364 11.5903 12.8703 11.6167C12.8175 11.6431 12.8835 11.6695 12.8703 11.6167ZM12.461 11.8147C12.4478 11.7883 12.4874 11.8412 12.461 11.8147V11.8147ZM11.5498 12.1845C11.5366 12.1449 11.6026 12.1713 11.5498 12.1845C11.5234 12.2373 11.4574 12.2637 11.3913 12.2637C11.4045 12.1977 11.4574 12.1845 11.5498 12.1845ZM11.0876 12.343C11.0744 12.3298 11.114 12.3694 11.0876 12.343V12.343ZM10.9424 12.4618C10.9291 12.4882 10.8895 12.4882 10.8631 12.4882C10.8631 12.4618 10.9027 12.4618 10.9424 12.4618ZM6.83549 12.6071C6.80908 12.5939 6.8487 12.6335 6.83549 12.6071V12.6071ZM9.22566 12.6863C9.21245 12.6731 9.25207 12.7127 9.22566 12.6863V12.6863ZM9.34451 12.6863C9.31809 12.6731 9.35771 12.7127 9.34451 12.6863V12.6863ZM8.09 12.7259C8.06359 12.7127 8.1032 12.7523 8.09 12.7259V12.7259ZM8.39372 12.7259C8.36731 12.7127 8.40693 12.7523 8.39372 12.7259V12.7259ZM8.88232 12.6863C8.88232 12.7655 8.72386 12.6995 8.65783 12.7259C8.65783 12.6335 8.81629 12.7127 8.88232 12.6863ZM9.06719 12.7259C9.05399 12.7127 9.09361 12.7523 9.06719 12.7259V12.7259ZM8.45975 12.8051C8.44654 12.7787 8.48616 12.8183 8.45975 12.8051V12.8051ZM8.92194 12.8051C8.90873 12.7787 8.94835 12.8183 8.92194 12.8051V12.8051ZM9.04078 12.8051C9.01437 12.7787 9.05399 12.8183 9.04078 12.8051V12.8051ZM13.108 5.11963C13.0948 5.06681 13.1609 5.09322 13.108 5.11963V5.11963ZM6.94113 5.38374C6.90152 5.22527 7.05998 5.37053 6.94113 5.38374V5.38374ZM13.491 5.50259C13.4382 5.50259 13.4646 5.43656 13.491 5.50259V5.50259ZM15.4982 5.76669C15.485 5.75349 15.5246 5.7931 15.4982 5.76669V5.76669ZM10.2161 5.83272C10.2029 5.81952 10.2425 5.85913 10.2161 5.83272V5.83272ZM7.3637 6.07042C7.3637 5.96477 7.37691 5.84593 7.28447 5.83272C7.28447 5.93836 7.31088 6.0176 7.3637 6.07042ZM4.28686 5.95157C4.26045 5.93836 4.30006 5.97798 4.28686 5.95157V5.95157ZM10.4405 5.95157C10.4405 5.91195 10.4934 5.92516 10.4405 5.95157V5.95157ZM10.9027 5.95157V5.91195C10.8235 5.89875 10.7839 5.92516 10.7839 5.99118C10.8499 6.00439 10.8499 5.95157 10.9027 5.95157ZM11.2725 5.99118C11.1272 6.0308 11.2725 5.87234 11.2725 5.99118V5.99118ZM15.617 5.99118C15.6038 5.97798 15.6435 6.0176 15.617 5.99118V5.99118ZM4.31327 6.0308C4.28686 6.25529 4.33968 5.87234 4.31327 6.0308V6.0308ZM11.2725 5.99118C11.2857 6.0308 11.3253 6.0176 11.3517 6.0308C11.3517 5.99118 11.3121 6.00439 11.2725 5.99118ZM4.24724 6.11003C4.24724 6.0176 4.19442 6.04401 4.20763 6.11003H4.24724ZM8.65783 6.07042C8.68424 6.05721 8.72386 6.07042 8.73706 6.0308C8.69744 6.04401 8.65783 6.0308 8.65783 6.07042ZM8.76347 6.07042C8.80309 6.05721 8.8427 6.07042 8.8427 6.0308C8.81629 6.04401 8.76347 6.0308 8.76347 6.07042ZM7.3637 6.07042C7.39011 6.12324 7.40332 6.05721 7.3637 6.07042V6.07042ZM8.11641 6.11003C8.1032 6.08362 8.14282 6.13644 8.11641 6.11003V6.11003ZM8.42013 6.11003V6.07042C8.3541 6.08362 8.27487 6.08362 8.23526 6.14965C8.3541 6.18927 8.3409 6.16285 8.42013 6.11003ZM11.2065 6.11003C11.1536 6.11003 11.18 6.04401 11.2065 6.11003V6.11003ZM4.24724 6.11003C4.23404 6.14965 4.24724 6.17606 4.28686 6.17606C4.28686 6.13644 4.27365 6.11003 4.24724 6.11003ZM4.3925 6.14965C4.3925 6.09683 4.44532 6.12324 4.3925 6.14965V6.14965ZM8.01077 6.14965C8.05038 5.99118 8.05038 6.29491 8.01077 6.14965V6.14965ZM8.42013 6.11003C8.44654 6.16285 8.47295 6.09683 8.42013 6.11003V6.11003ZM4.3925 6.14965C4.28686 6.14965 4.43212 6.29491 4.3925 6.14965V6.14965ZM8.09 6.17606C8.11641 6.17606 8.15602 6.17606 8.15602 6.14965C8.12961 6.14965 8.09 6.14965 8.09 6.17606ZM8.23526 6.14965C8.18244 6.16285 8.23526 6.18927 8.23526 6.14965V6.14965ZM8.65783 6.17606C8.64462 6.16285 8.68424 6.20247 8.65783 6.17606V6.17606ZM11.6951 6.17606H11.7347C11.7215 6.13644 11.6951 6.16285 11.6951 6.17606ZM8.42013 6.21568C8.45975 6.21568 8.49936 6.21568 8.49936 6.17606C8.47295 6.18927 8.43334 6.17606 8.42013 6.21568ZM7.74666 6.29491C7.62781 6.17606 7.99756 6.21568 7.74666 6.29491V6.29491ZM8.3541 6.25529C8.30128 6.25529 8.32769 6.20247 8.3541 6.25529V6.25529ZM4.61699 6.33452C4.51135 6.32132 4.65661 6.17606 4.61699 6.33452V6.33452ZM7.66743 6.25529C7.57499 6.24209 7.52217 6.2685 7.50896 6.33452C7.58819 6.33452 7.64102 6.30811 7.66743 6.25529ZM7.32409 6.29491C7.28447 6.37414 7.3505 6.5326 7.40332 6.41376C7.3637 6.40055 7.3505 6.37414 7.3637 6.33452C7.39011 6.32132 7.44294 6.33452 7.44294 6.29491H7.32409ZM13.4118 6.33452C13.3985 6.32132 13.4382 6.36093 13.4118 6.33452V6.33452ZM4.61699 6.33452C4.6434 6.38735 4.66981 6.33452 4.61699 6.33452V6.33452ZM13.491 6.37414C13.5042 6.38735 13.6362 6.46658 13.6362 6.37414C13.5702 6.41376 13.5042 6.25529 13.491 6.37414ZM7.62781 6.41376C7.61461 6.38735 7.65422 6.44017 7.62781 6.41376V6.41376ZM4.61699 6.45337C4.66981 6.29491 4.66981 6.59863 4.61699 6.45337V6.45337ZM3.33607 6.47978C3.28325 6.49299 3.30966 6.42696 3.33607 6.47978V6.47978ZM13.9003 6.5194V6.47978C13.8211 6.50619 13.7815 6.37414 13.7947 6.5194H13.9003ZM6.21484 6.5194C6.21484 6.47978 6.28087 6.50619 6.21484 6.5194V6.5194ZM4.65661 6.5194C4.66981 6.59863 4.68302 6.65145 4.73584 6.67786C4.74905 6.58543 4.72264 6.5326 4.65661 6.5194ZM6.21484 6.5194C6.16202 6.54581 6.22804 6.57222 6.21484 6.5194V6.5194ZM13.9003 6.5194C13.9003 6.55901 13.9532 6.55901 13.9796 6.55901C13.9796 6.5194 13.9268 6.5326 13.9003 6.5194ZM16 6.5194C15.934 6.5194 15.8944 6.55901 15.8812 6.59863C15.9472 6.59863 15.9736 6.57222 16 6.5194ZM13.9796 6.59863C14.1116 6.62504 14.1116 6.5326 13.9796 6.55901V6.59863ZM15.7227 6.59863C15.7227 6.55901 15.7887 6.57222 15.7227 6.59863V6.59863ZM14.1645 6.63825C14.1248 6.63825 14.1513 6.58543 14.1645 6.63825V6.63825ZM15.6963 6.63825C15.7227 6.63825 15.7227 6.62504 15.7227 6.59863C15.6963 6.59863 15.6963 6.61184 15.6963 6.63825ZM5.99035 6.67786C5.97714 6.66466 6.01676 6.70427 5.99035 6.67786V6.67786ZM14.1645 6.63825C14.1645 6.67786 14.2173 6.66466 14.2437 6.67786C14.2437 6.63825 14.2041 6.65145 14.1645 6.63825ZM15.6963 6.63825C15.5774 6.65145 15.7227 6.79671 15.6963 6.63825V6.63825ZM15.8019 6.63825C15.8151 6.67786 15.8019 6.74389 15.8415 6.7571C15.8415 6.73068 15.8415 6.70427 15.8812 6.71748C15.8812 6.66466 15.8679 6.62504 15.8019 6.63825ZM4.77546 6.78351C4.77546 6.69107 4.72263 6.73068 4.73584 6.78351H4.77546ZM14.4682 6.78351C14.4286 6.79671 14.455 6.73068 14.4682 6.78351V6.78351ZM5.99035 6.82312V6.90235C6.04317 6.88915 6.02996 6.82312 5.99035 6.82312ZM15.617 6.90235C15.6567 6.75709 15.6567 7.04761 15.617 6.90235V6.90235ZM5.34329 6.94197C5.33008 6.92876 5.3697 6.96838 5.34329 6.94197V6.94197ZM4.85469 6.98159C4.84148 6.96838 4.8811 7.008 4.85469 6.98159V6.98159ZM4.93392 7.10043C4.81507 7.08723 4.96033 6.94197 4.93392 7.10043V7.10043ZM5.1188 7.06082C5.10559 7.03441 5.14521 7.08723 5.1188 7.06082V7.06082ZM4.93392 7.10043C4.93392 7.20608 5.07918 7.06082 4.93392 7.10043V7.10043ZM15.3926 7.32492C15.3793 7.35134 15.4058 7.36454 15.419 7.36454C15.4322 7.32492 15.4058 7.32492 15.3926 7.32492ZM4.04916 7.5098C4.10198 7.5098 4.07557 7.47018 4.04916 7.47018V7.5098ZM15.6567 7.58903C15.6038 7.58903 15.6302 7.53621 15.6567 7.58903V7.58903ZM3.56056 7.58903C3.50774 7.61544 3.56056 7.62865 3.56056 7.58903V7.58903ZM15.6567 7.58903V7.66826H15.6963C15.6963 7.61544 15.6831 7.60224 15.6567 7.58903ZM3.66621 7.66826C3.66621 7.73429 3.71903 7.7475 3.70582 7.81352H3.74544V7.70788C3.71903 7.69467 3.70582 7.66826 3.66621 7.66826ZM3.74544 7.70788H3.78506C3.78506 7.65506 3.74544 7.68147 3.74544 7.70788ZM3.9039 7.70788C3.85108 7.70788 3.87749 7.64185 3.9039 7.70788V7.70788ZM15.6963 7.66826C15.6831 7.69467 15.7095 7.69467 15.7227 7.70788C15.7359 7.66826 15.7095 7.66826 15.6963 7.66826ZM7.40332 7.73429C7.39012 7.72109 7.42973 7.7607 7.40332 7.73429V7.73429ZM15.7227 7.70788C15.7491 7.7607 15.7755 7.69467 15.7227 7.70788V7.70788ZM3.60018 7.77391C3.58698 7.7607 3.62659 7.80032 3.60018 7.77391V7.77391ZM3.78506 7.77391C3.77185 7.7607 3.81147 7.80032 3.78506 7.77391V7.77391ZM15.7623 7.81352C15.7623 7.77391 15.8283 7.78711 15.7623 7.81352V7.81352ZM11.431 7.93237C11.3121 7.87955 11.4706 7.73429 11.431 7.93237V7.93237ZM3.82467 7.93237H3.94352V7.97199C3.8907 7.95878 3.87749 7.97199 3.86429 8.0116H3.78506V7.97199C3.81147 7.97199 3.83788 7.95878 3.82467 7.93237ZM15.8415 8.0116C15.8283 7.98519 15.8679 8.03801 15.8415 8.0116V8.0116ZM7.13921 8.07763C7.1128 8.06442 7.15242 8.10404 7.13921 8.07763V8.07763ZM3.29646 8.11725H3.33607C3.32287 8.07763 3.29646 8.10404 3.29646 8.11725ZM7.24486 8.07763C7.19203 8.10404 7.24486 8.13045 7.24486 8.07763V8.07763ZM3.29646 8.11725C3.20402 8.11725 3.23043 8.17007 3.29646 8.15686V8.11725ZM3.03235 8.19648C3.03235 8.07763 3.17761 8.23609 3.03235 8.19648V8.19648ZM7.20524 8.19648C7.16562 8.19648 7.19203 8.14366 7.20524 8.19648V8.19648ZM7.13921 8.31533C7.08639 8.31533 7.1128 8.2493 7.13921 8.31533V8.31533ZM6.83549 8.61905C6.83549 8.52661 6.78267 8.55302 6.79587 8.61905H6.83549ZM6.75626 8.65866C6.78267 8.64546 6.79587 8.64546 6.79587 8.61905C6.75626 8.60584 6.75626 8.63225 6.75626 8.65866ZM6.71664 8.72469C6.71664 8.7511 6.69023 8.77751 6.67703 8.72469H6.71664ZM6.59779 8.84354C6.58459 8.83033 6.6242 8.86995 6.59779 8.84354V8.84354ZM15.1945 8.96239C15.1813 8.93598 15.2209 8.9888 15.1945 8.96239V8.96239ZM6.45254 9.10765C6.49215 8.96239 6.49215 9.26611 6.45254 9.10765V9.10765ZM15.9208 9.14726C15.9076 9.13406 15.9472 9.17367 15.9208 9.14726V9.14726ZM15.0492 9.18688C15.036 9.13406 15.102 9.16047 15.0492 9.18688V9.18688ZM14.5078 9.30573C14.4946 9.27932 14.5342 9.31893 14.5078 9.30573V9.30573ZM14.2833 9.45099C14.3361 9.54342 14.1777 9.60945 14.2833 9.63586C14.3097 9.62265 14.3757 9.46419 14.2833 9.45099ZM14.4022 9.4906C14.3889 9.43778 14.455 9.46419 14.4022 9.4906V9.4906ZM14.4022 9.4906C14.3361 9.51701 14.4022 9.53022 14.4022 9.4906V9.4906ZM9.14643 9.56983C9.13322 9.55663 9.17284 9.59624 9.14643 9.56983V9.56983ZM14.0984 9.79432C14.1116 9.76791 14.3097 9.71509 14.1645 9.63586C14.0984 9.66227 13.9268 9.76791 13.8607 9.91317C13.9664 9.88676 13.9796 9.79432 14.0984 9.79432ZM14.3625 9.71509C14.2305 9.71509 14.2305 9.84715 14.1248 9.87356V9.95279H14.1645C14.1777 9.92638 14.1777 9.89997 14.2041 9.91317C14.2041 9.88676 14.2173 9.86035 14.2437 9.87356C14.2437 9.84715 14.2569 9.82074 14.2833 9.83394C14.2833 9.80753 14.2833 9.78112 14.3229 9.79432C14.3229 9.76791 14.3229 9.75471 14.3625 9.75471V9.71509ZM14.0984 9.79432C14.0852 9.83394 14.0984 9.86035 14.1248 9.87356C14.138 9.82073 14.1248 9.80753 14.0984 9.79432ZM13.6759 9.95279C13.6627 9.92638 13.7023 9.96599 13.6759 9.95279V9.95279ZM13.8211 9.95279C13.8607 9.95279 13.8607 9.92638 13.8607 9.91317C13.8343 9.89997 13.8343 9.92638 13.8211 9.95279ZM13.94 9.95279C13.94 9.89997 13.9928 9.92638 13.94 9.95279V9.95279ZM13.8211 9.95279C13.7683 9.93958 13.7287 9.9792 13.7155 10.0188H13.7947C13.7947 10.0056 13.7947 9.9792 13.8211 9.9792V9.95279ZM13.9003 9.9792C13.94 9.9924 13.94 9.96599 13.94 9.95279C13.9136 9.93958 13.9003 9.96599 13.9003 9.9792ZM11.3517 10.0188C11.3385 10.0056 11.3781 10.0452 11.3517 10.0188V10.0188ZM13.8211 9.9792C13.8343 10.0188 13.8079 10.0188 13.7947 10.0188C13.7815 10.0716 13.7419 10.0716 13.7551 10.1377C13.8211 10.098 13.8739 10.0452 13.9003 9.9792H13.8211ZM13.7155 10.0188C13.6494 10.0056 13.6494 10.0584 13.5966 10.0584V10.098H13.6759C13.6759 10.0584 13.7023 10.0584 13.7155 10.0188ZM13.3721 10.098C13.3721 10.0584 13.425 10.0716 13.3721 10.098V10.098ZM13.3721 10.098C13.3193 10.1245 13.3721 10.1509 13.3721 10.098V10.098ZM11.2725 10.1377C11.2857 10.1641 11.2593 10.1773 11.2461 10.1773C11.2329 10.2961 11.4045 10.1377 11.2725 10.1377ZM14.8908 10.1377V10.2169C14.9304 10.2169 14.9172 10.1641 14.9304 10.1377H14.8908ZM13.0288 10.2829C13.0948 10.2961 13.1212 10.2565 13.1476 10.2169C13.0816 10.2169 13.042 10.2433 13.0288 10.2829ZM3.4021 10.3225C3.44172 10.3225 3.48133 10.3225 3.48133 10.2829C3.45492 10.2961 3.4021 10.2961 3.4021 10.3225ZM2.34567 10.3622C2.31926 10.3489 2.37208 10.3886 2.34567 10.3622V10.3622ZM3.52095 10.4018C3.50774 10.3886 3.54736 10.4282 3.52095 10.4018V10.4018ZM2.4117 10.4414C2.39849 10.4282 2.43811 10.4678 2.4117 10.4414V10.4414ZM2.60978 10.4414C2.45132 10.4018 2.59657 10.5602 2.60978 10.4414V10.4414ZM2.45132 10.5206C2.43811 10.5074 2.47773 10.547 2.45132 10.5206V10.5206ZM2.68901 10.481C2.63619 10.481 2.6494 10.547 2.6494 10.5866C2.68901 10.5866 2.67581 10.5206 2.68901 10.481ZM2.6494 10.5866C2.59657 10.6131 2.6494 10.6395 2.6494 10.5866V10.5866ZM11.048 10.5866C10.9952 10.6131 11.048 10.6395 11.048 10.5866V10.5866ZM2.75504 10.7451C2.74183 10.7319 2.78145 10.7715 2.75504 10.7451V10.7451ZM4.3925 10.7451C4.23404 10.7847 4.3925 10.6263 4.3925 10.7451V10.7451ZM4.3925 10.7451C4.41891 10.7979 4.44532 10.7451 4.3925 10.7451V10.7451ZM4.59058 10.7847C4.56417 10.7715 4.60379 10.8111 4.59058 10.7847V10.7847ZM14.4418 10.7451C14.4418 10.7715 14.4154 10.7847 14.4022 10.7847C14.3889 10.8243 14.4022 10.8508 14.4418 10.864C14.4682 10.8243 14.4946 10.7583 14.4418 10.7451ZM2.79465 10.8243C2.78145 10.8111 2.82107 10.8508 2.79465 10.8243V10.8243ZM4.59058 10.93C4.57738 10.8772 4.61699 10.864 4.61699 10.8243C4.53776 10.7979 4.55097 10.8772 4.55097 10.93H4.59058ZM4.73584 10.864C4.72263 10.8375 4.76225 10.8904 4.73584 10.864V10.864ZM4.85469 10.9036C4.8811 10.8904 4.92072 10.8904 4.93392 10.864C4.8943 10.864 4.85469 10.864 4.85469 10.9036ZM10.9027 10.9036C10.8763 10.8772 10.9291 10.9168 10.9027 10.9036V10.9036ZM4.96033 10.93C4.94713 10.9168 4.98674 10.9564 4.96033 10.93V10.93ZM10.7047 11.0092C10.665 11.0092 10.6782 11.062 10.665 11.0884C10.7047 11.0884 10.7047 11.0356 10.7047 11.0092ZM5.99035 11.2073C5.97714 11.1809 6.01676 11.2205 5.99035 11.2073V11.2073Z" fill="white"/>
</g>
</svg>
